<svg xmlns="http://www.w3.org/2000/svg" viewBox="0 0 17.39 17.4"><defs><style>.cls-1{fill:#2bc3f9;stroke:#040d3f;stroke-miterlimit:10;}</style></defs><g id="Capa_2" data-name="Capa 2"><g id="iconos"><path class="cls-1" d="M7,16.9a6.46,6.46,0,0,1-4.56-11A6.43,6.43,0,0,1,9.94,4.73l.91-.91h-.54a.8.8,0,0,1-.74-.49.82.82,0,0,1,.17-.87L11.47.73A.79.79,0,0,1,12,.5H16.1a.79.79,0,0,1,.79.8V5.36a.81.81,0,0,1-.23.57L14.94,7.65a.83.83,0,0,1-.57.23.85.85,0,0,1-.31-.06.8.8,0,0,1-.49-.74V6.55l-.9.9A6.49,6.49,0,0,1,11.51,15,6.41,6.41,0,0,1,7,16.9Zm0-9a2.59,2.59,0,1,0,1.83.76A2.58,2.58,0,0,0,7,7.85Z"/></g></g></svg>