<svg xmlns="http://www.w3.org/2000/svg" xmlns:xlink="http://www.w3.org/1999/xlink" viewBox="0 0 192 192"><defs><style>.cls-1{fill:#333;}.cls-2{fill:#1a1a1a;}.cls-3{fill:url(#Degradado_sin_nombre_244);}.cls-4{fill:url(#Degradado_sin_nombre_244-2);}.cls-5{fill:url(#Degradado_sin_nombre_244-3);}.cls-6{fill:#000057;}.cls-7{fill:#4747a4;}.cls-8{fill:navy;}.cls-9{fill:url(#Degradado_sin_nombre_244-4);}.cls-10{fill:url(#Degradado_sin_nombre_244-5);}.cls-11{fill:url(#Degradado_sin_nombre_244-6);}.cls-12{fill:#002695;}.cls-13{fill:#2f5ce1;}.cls-14{fill:#0038db;}.cls-15{fill:url(#Degradado_sin_nombre_244-7);}.cls-16{fill:url(#Degradado_sin_nombre_244-8);}.cls-17{fill:#008ab6;}.cls-18{fill:#57d8fe;}.cls-19{fill:#02c3ff;}.cls-20{fill:url(#Degradado_sin_nombre_244-9);}.cls-21{fill:url(#Degradado_sin_nombre_244-10);}.cls-22{fill:url(#Degradado_sin_nombre_244-11);}.cls-23{fill:#105b2c;}.cls-24{fill:#57a475;}.cls-25{fill:#17803f;}.cls-26{fill:url(#Degradado_sin_nombre_244-12);}.cls-27{fill:url(#Degradado_sin_nombre_244-13);}.cls-28{fill:url(#Degradado_sin_nombre_244-14);}.cls-29{fill:#008f00;}.cls-30{fill:#58dd58;}.cls-31{fill:#01cb01;}.cls-32{fill:url(#Degradado_sin_nombre_244-15);}.cls-33{fill:url(#Degradado_sin_nombre_244-16);}.cls-34{fill:url(#Degradado_sin_nombre_244-17);}.cls-35{fill:#edec1b;}.cls-36{fill:#f7f780;}.cls-37{fill:#f3f248;}.cls-38{fill:url(#Degradado_sin_nombre_244-18);}.cls-39{fill:url(#Degradado_sin_nombre_244-19);}.cls-40{fill:url(#Degradado_sin_nombre_244-20);}.cls-41{fill:#ff6a07;}.cls-42{fill:#ffb380;}.cls-43{fill:#fc8544;}.cls-44{fill:url(#Degradado_sin_nombre_244-21);}.cls-45{fill:url(#Degradado_sin_nombre_244-22);}.cls-46{fill:url(#Degradado_sin_nombre_244-23);}.cls-47{fill:#c70000;}.cls-48{fill:#fe5151;}.cls-49{fill:red;}.cls-50{fill:url(#Degradado_sin_nombre_244-24);}.cls-51{fill:url(#Degradado_sin_nombre_244-25);}.cls-52{fill:url(#Degradado_sin_nombre_244-26);}.cls-53{fill:#f400b6;}.cls-54{fill:#ff81df;}.cls-55{fill:#ff3ecf;}.cls-56{fill:url(#Degradado_sin_nombre_244-27);}.cls-57{fill:url(#Degradado_sin_nombre_244-28);}.cls-58{fill:url(#Degradado_sin_nombre_244-29);}.cls-59{fill:#f097a5;}.cls-60{fill:#ffc4cd;}.cls-61{fill:#fea0ae;}.cls-62{fill:url(#Degradado_sin_nombre_244-30);}.cls-63{fill:url(#Degradado_sin_nombre_244-31);}.cls-64{fill:url(#Degradado_sin_nombre_244-32);}.cls-65{fill:#671b1b;}.cls-66{fill:#ba6868;}.cls-67{fill:#a02c2c;}.cls-68{fill:url(#Degradado_sin_nombre_244-33);}.cls-69{fill:url(#Degradado_sin_nombre_244-34);}.cls-70{fill:url(#Degradado_sin_nombre_244-35);}.cls-71{fill:none;stroke:#0d0c38;stroke-miterlimit:10;stroke-width:4px;}</style><linearGradient id="Degradado_sin_nombre_244" x1="3.62" y1="84.75" x2="18.7" y2="84.75" gradientUnits="userSpaceOnUse"><stop offset="0" stop-color="#fdc3b8"/><stop offset="1" stop-color="#f1977d"/></linearGradient><linearGradient id="Degradado_sin_nombre_244-2" x1="3.62" y1="94.85" x2="18.7" y2="94.85" xlink:href="#Degradado_sin_nombre_244"/><linearGradient id="Degradado_sin_nombre_244-3" x1="-91.22" y1="83.24" x2="211.47" y2="83.24" xlink:href="#Degradado_sin_nombre_244"/><linearGradient id="Degradado_sin_nombre_244-4" x1="19.06" y1="77.03" x2="34.14" y2="77.03" xlink:href="#Degradado_sin_nombre_244"/><linearGradient id="Degradado_sin_nombre_244-5" x1="19.06" y1="94.85" x2="34.14" y2="94.85" xlink:href="#Degradado_sin_nombre_244"/><linearGradient id="Degradado_sin_nombre_244-6" x1="-75.78" y1="75.39" x2="226.9" y2="75.39" xlink:href="#Degradado_sin_nombre_244"/><linearGradient id="Degradado_sin_nombre_244-7" x1="34.5" y1="69.52" x2="49.58" y2="69.52" xlink:href="#Degradado_sin_nombre_244"/><linearGradient id="Degradado_sin_nombre_244-8" x1="-60.34" y1="67.77" x2="242.34" y2="67.77" xlink:href="#Degradado_sin_nombre_244"/><linearGradient id="Degradado_sin_nombre_244-9" x1="49.93" y1="85.66" x2="65.02" y2="85.66" xlink:href="#Degradado_sin_nombre_244"/><linearGradient id="Degradado_sin_nombre_244-10" x1="49.93" y1="94.85" x2="65.02" y2="94.85" xlink:href="#Degradado_sin_nombre_244"/><linearGradient id="Degradado_sin_nombre_244-11" x1="-44.9" y1="84.17" x2="257.78" y2="84.17" xlink:href="#Degradado_sin_nombre_244"/><linearGradient id="Degradado_sin_nombre_244-12" x1="65.37" y1="76.6" x2="80.46" y2="76.6" xlink:href="#Degradado_sin_nombre_244"/><linearGradient id="Degradado_sin_nombre_244-13" x1="65.37" y1="94.85" x2="80.46" y2="94.85" xlink:href="#Degradado_sin_nombre_244"/><linearGradient id="Degradado_sin_nombre_244-14" x1="-29.46" y1="74.99" x2="273.22" y2="74.99" xlink:href="#Degradado_sin_nombre_244"/><linearGradient id="Degradado_sin_nombre_244-15" x1="80.81" y1="65.29" x2="95.9" y2="65.29" xlink:href="#Degradado_sin_nombre_244"/><linearGradient id="Degradado_sin_nombre_244-16" x1="80.81" y1="94.85" x2="95.9" y2="94.85" xlink:href="#Degradado_sin_nombre_244"/><linearGradient id="Degradado_sin_nombre_244-17" x1="-14.02" y1="63.51" x2="288.66" y2="63.51" xlink:href="#Degradado_sin_nombre_244"/><linearGradient id="Degradado_sin_nombre_244-18" x1="96.25" y1="69.13" x2="111.33" y2="69.13" xlink:href="#Degradado_sin_nombre_244"/><linearGradient id="Degradado_sin_nombre_244-19" x1="96.25" y1="94.85" x2="111.33" y2="94.85" xlink:href="#Degradado_sin_nombre_244"/><linearGradient id="Degradado_sin_nombre_244-20" x1="1.41" y1="67.4" x2="304.1" y2="67.4" xlink:href="#Degradado_sin_nombre_244"/><linearGradient id="Degradado_sin_nombre_244-21" x1="111.69" y1="85.66" x2="126.77" y2="85.66" xlink:href="#Degradado_sin_nombre_244"/><linearGradient id="Degradado_sin_nombre_244-22" x1="111.69" y1="94.85" x2="126.77" y2="94.85" xlink:href="#Degradado_sin_nombre_244"/><linearGradient id="Degradado_sin_nombre_244-23" x1="16.85" y1="84.17" x2="319.53" y2="84.17" xlink:href="#Degradado_sin_nombre_244"/><linearGradient id="Degradado_sin_nombre_244-24" x1="127.13" y1="74.28" x2="142.21" y2="74.28" xlink:href="#Degradado_sin_nombre_244"/><linearGradient id="Degradado_sin_nombre_244-25" x1="127.13" y1="94.85" x2="142.21" y2="94.85" xlink:href="#Degradado_sin_nombre_244"/><linearGradient id="Degradado_sin_nombre_244-26" x1="32.29" y1="72.62" x2="334.97" y2="72.62" xlink:href="#Degradado_sin_nombre_244"/><linearGradient id="Degradado_sin_nombre_244-27" x1="142.56" y1="85.66" x2="157.65" y2="85.66" xlink:href="#Degradado_sin_nombre_244"/><linearGradient id="Degradado_sin_nombre_244-28" x1="142.56" y1="94.85" x2="157.65" y2="94.85" xlink:href="#Degradado_sin_nombre_244"/><linearGradient id="Degradado_sin_nombre_244-29" x1="47.73" y1="84.17" x2="350.41" y2="84.17" xlink:href="#Degradado_sin_nombre_244"/><linearGradient id="Degradado_sin_nombre_244-30" x1="158" y1="71.87" x2="173.09" y2="71.87" xlink:href="#Degradado_sin_nombre_244"/><linearGradient id="Degradado_sin_nombre_244-31" x1="158" y1="94.85" x2="173.09" y2="94.85" xlink:href="#Degradado_sin_nombre_244"/><linearGradient id="Degradado_sin_nombre_244-32" x1="63.17" y1="70.13" x2="365.85" y2="70.13" xlink:href="#Degradado_sin_nombre_244"/><linearGradient id="Degradado_sin_nombre_244-33" x1="173.44" y1="85.66" x2="188.53" y2="85.66" xlink:href="#Degradado_sin_nombre_244"/><linearGradient id="Degradado_sin_nombre_244-34" x1="173.44" y1="94.85" x2="188.53" y2="94.85" xlink:href="#Degradado_sin_nombre_244"/><linearGradient id="Degradado_sin_nombre_244-35" x1="78.61" y1="84.17" x2="381.29" y2="84.17" xlink:href="#Degradado_sin_nombre_244"/></defs><g id="Capa_2" data-name="Capa 2"><g id="Capa_1-2" data-name="Capa 1"><g id="Colores"><path d="M12.08,60.64l-1.8-.25L7.34,75.52l.26,4.06c-.5,3,2.74-1,2-2.77,0,0,2.25,3,3.24-2l1-5.06,4.87,24s-1.14,2.28-2.88,2c-1.4-.2-1,.08-2-.32v47.24q2.43,3.89,5.21,7.5V95.41Z"/><path d="M3.62,95.42l0,.08v25.79l0,0Z"/><path class="cls-1" d="M3.62,94.75v.67l.09-.48Z"/><path class="cls-1" d="M6.36,96.25c-1.06.64-2.3-1.45-2.65-2.09l-.09.49v26.28a98.29,98.29,0,0,0,4.73,11.79V96.07A2.25,2.25,0,0,0,6.36,96.25Z"/><path class="cls-2" d="M12.83,95c-2.24-1-1.49.5-2,1.26a1.23,1.23,0,0,1-1.74.25,2.53,2.53,0,0,0-.75-.43v36.65c.24.51.49,1,.75,1.52q2.16,4.33,4.73,8.42V95.42C13.59,95.33,13.28,95.19,12.83,95Z"/><polygon points="7.34 75.52 3.62 93.98 3.75 93.98 7.34 75.52"/><polygon class="cls-3" points="7.34 75.52 3.62 93.98 3.75 93.98 7.34 75.52"/><path d="M8.35,94h5.48v1.44c.95.4.59.12,2,.32,1.74.26,2.88-2,2.88-2l-4.87-24-1,5.06c-1,5-3.24,2-3.24,2,.75,1.76-2.49,5.8-2,2.77l-.26-4.06L3.75,94Z"/><path class="cls-1" d="M3.75,94.75H3.62l.09.19Z"/><path class="cls-4" d="M3.75,94.75H3.62l.09.19Z"/><path class="cls-1" d="M3.75,94l0,.18c.35.64,1.59,2.73,2.65,2.09a2.25,2.25,0,0,1,2-.18V94Z"/><path class="cls-2" d="M9.1,94V96.5a1.23,1.23,0,0,0,1.74-.25c.5-.76-.25-2.27,2-1.26.45.2.76.34,1,.43V94Z"/><path class="cls-2" d="M8.35,94v2.09a2.53,2.53,0,0,1,.75.43V94Z"/><path class="cls-5" d="M13.83,69.73l-1,5.06c-1,5-3.24,2-3.24,2,.75,1.76-2.49,5.8-2,2.77l-.26-4.06L3.75,94l0,.18c.35.64,1.59,2.73,2.65,2.09a2.25,2.25,0,0,1,2-.18,2.53,2.53,0,0,1,.75.43,1.23,1.23,0,0,0,1.74-.25c.5-.76-.25-2.27,2-1.26.45.2.76.34,1,.43.95.4.59.12,2,.32,1.74.26,2.88-2,2.88-2Z"/><polygon class="cls-6" points="19.06 95.42 19.04 95.5 19.04 96.17 19.06 96.25 19.06 95.42"/><path class="cls-6" d="M27.52,50.71l-1.8-.28L22.78,67,23,71.39c-.5,3.31,2.74-1.1,2-3,0,0,2.24,3.3,3.24-2.21l1-5.52,4.87,26.2S33,89.31,31.26,89c-1.4-.22-1,.09-2-.35v72.23q2.52,2.64,5.21,5.07V88.67Z"/><path class="cls-6" d="M19,96.17v54l0,0V96.25Z"/><path class="cls-7" d="M19.06,94.75v.67l.09-.48Z"/><path class="cls-7" d="M21.8,89.59c-1.06.7-2.3-1.58-2.65-2.28l-.09.53v60.65q2.25,3.22,4.73,6.25V89.4A2.08,2.08,0,0,0,21.8,89.59Z"/><path class="cls-8" d="M28.27,88.21c-2.24-1.1-1.49.55-2,1.38a1.16,1.16,0,0,1-1.74.27,2.26,2.26,0,0,0-.75-.46v65.34c.25.3.49.6.75.9q2.28,2.73,4.73,5.28V88.69Z"/><polygon points="22.77 66.96 19.06 87.11 19.19 87.11 22.77 66.96"/><polygon class="cls-9" points="22.77 66.96 19.06 87.11 19.19 87.11 22.77 66.96"/><path class="cls-6" d="M23.79,87.11h5.48v1.58c.95.44.59.13,2,.35,1.74.27,2.88-2.21,2.88-2.21l-4.87-26.2-1,5.52c-1,5.51-3.24,2.21-3.24,2.21.75,1.93-2.49,6.34-2,3L22.78,67,19.19,87.11Z"/><path class="cls-7" d="M19.19,94.75h-.13l.09.19Z"/><path class="cls-10" d="M19.19,94.75h-.13l.09.19Z"/><path class="cls-7" d="M19.19,87.11l0,.2c.35.7,1.59,3,2.65,2.28a2.08,2.08,0,0,1,2-.19V87.11Z"/><path class="cls-8" d="M24.54,87.11v2.75a1.16,1.16,0,0,0,1.74-.27c.5-.83-.25-2.48,2-1.38l1,.48V87.11Z"/><path class="cls-8" d="M23.79,87.11V89.4a2.26,2.26,0,0,1,.75.46V87.11Z"/><path class="cls-11" d="M29.27,60.63l-1,5.52c-1,5.51-3.24,2.21-3.24,2.21.75,1.93-2.49,6.34-2,3L22.77,67,19.19,87.11l0,.2c.35.7,1.59,3,2.65,2.28a2.08,2.08,0,0,1,2-.19,2.26,2.26,0,0,1,.75.46,1.16,1.16,0,0,0,1.74-.27c.5-.83-.25-2.48,2-1.38l1,.48c.95.44.59.13,2,.35,1.74.27,2.88-2.21,2.88-2.21Z"/><polygon class="cls-12" points="34.49 95.42 34.48 95.5 34.48 96.17 34.49 96.25 34.49 95.42"/><path class="cls-12" d="M43,41.51l-1.81-.29L38.21,58.8l.27,4.71c-.5,3.52,2.74-1.17,2-3.22,0,0,2.24,3.52,3.24-2.35l1-5.87,4.88,27.87s-1.14,2.64-2.88,2.35c-1.4-.24-1,.09-2-.37v90.83c1.71,1.25,3.45,2.43,5.22,3.56V81.9Z"/><path class="cls-12" d="M34.48,96.17V166h0V96.25Z"/><path class="cls-13" d="M34.5,94.75v.67l.09-.48Z"/><path class="cls-13" d="M37.23,82.87c-1,.75-2.29-1.68-2.64-2.42L34.5,81v83.14c1.53,1.48,3.11,2.91,4.73,4.27V82.67A2,2,0,0,0,37.23,82.87Z"/><path class="cls-14" d="M43.71,81.41c-2.24-1.18-1.5.58-2,1.46a1.13,1.13,0,0,1-1.75.3,2.18,2.18,0,0,0-.74-.5v85.76l.74.63q2.33,1.92,4.73,3.69V81.92Z"/><polygon points="38.21 58.8 34.49 80.23 34.63 80.23 38.21 58.8"/><polygon class="cls-15" points="38.21 58.8 34.49 80.23 34.63 80.23 38.21 58.8"/><path class="cls-12" d="M39.23,80.23H44.7v1.69c1,.46.6.13,2,.37,1.74.29,2.88-2.35,2.88-2.35L44.7,52.07l-1,5.87c-1,5.87-3.24,2.35-3.24,2.35.75,2.05-2.49,6.74-2,3.22l-.27-4.71L34.63,80.23Z"/><path class="cls-13" d="M34.63,94.75H34.5l.09.19Z"/><path class="cls-13" d="M34.63,80.23l0,.22c.35.74,1.59,3.17,2.64,2.42a2,2,0,0,1,2-.2V80.23Z"/><path class="cls-14" d="M40,80.23v2.94a1.13,1.13,0,0,0,1.75-.3c.49-.88-.25-2.64,2-1.46l1,.51V80.23Z"/><path class="cls-14" d="M39.23,80.23v2.44a2.18,2.18,0,0,1,.74.5V80.23Z"/><path class="cls-16" d="M44.7,52.07l-1,5.87c-1,5.87-3.24,2.35-3.24,2.35.75,2.05-2.49,6.74-2,3.22l-.27-4.71L34.63,80.23l0,.22c.35.74,1.59,3.17,2.64,2.42a2,2,0,0,1,2-.2,2.18,2.18,0,0,1,.74.5,1.13,1.13,0,0,0,1.75-.3c.49-.88-.25-2.64,2-1.46l1,.51c1,.46.6.13,2,.37,1.74.29,2.88-2.35,2.88-2.35Z"/><path class="cls-17" d="M58.4,61.89l-1.81-.25L53.65,76.56l.27,4c-.5,3,2.74-1,2-2.74,0,0,2.24,3,3.24-2l1-5L65,94.51s-1.14,2.24-2.88,2c-1.4-.2-1,.08-2-.32v84.89q2.58,1,5.22,1.89V96.17Z"/><polygon class="cls-17" points="49.93 95.42 49.92 95.5 49.92 96.17 49.93 96.25 49.93 95.42"/><path class="cls-17" d="M49.92,96.17v80.14h0V96.17Z"/><path class="cls-18" d="M49.93,94.75v.67l.1-.48Z"/><path class="cls-18" d="M52.67,97c-1.06.63-2.29-1.43-2.64-2.06l-.1.48v80.9c1.56.83,3.13,1.63,4.73,2.38V96.82A2.28,2.28,0,0,0,52.67,97Z"/><path class="cls-19" d="M59.15,95.75c-2.24-1-1.5.5-2,1.25a1.26,1.26,0,0,1-1.74.25,2.11,2.11,0,0,0-.75-.43V178.7l.75.34c1.56.72,3.13,1.39,4.73,2V96.18Z"/><polygon points="53.65 76.56 49.93 94.75 50.06 94.75 53.65 76.56"/><polygon class="cls-20" points="53.65 76.56 49.93 94.75 50.06 94.75 53.65 76.56"/><path class="cls-17" d="M54.66,94.75h5.48v1.43c1,.4.6.12,2,.32,1.74.25,2.88-2,2.88-2L60.14,70.85l-1,5c-1,5-3.24,2-3.24,2,.75,1.75-2.49,5.73-2,2.74l-.27-4L50.07,94.75Z"/><path class="cls-18" d="M50.07,94.75h-.14l.1.19Z"/><path class="cls-21" d="M50.07,94.75h-.14l.1.19Z"/><path class="cls-18" d="M50.07,94.75l0,.19c.35.63,1.58,2.69,2.64,2.06a2.28,2.28,0,0,1,2-.18V94.75Z"/><path class="cls-19" d="M55.41,94.75v2.5A1.26,1.26,0,0,0,57.15,97c.5-.75-.24-2.25,2-1.25l1,.43V94.75Z"/><path class="cls-19" d="M54.66,94.75v2.07a2.11,2.11,0,0,1,.75.43v-2.5Z"/><path class="cls-22" d="M60.14,70.85l-1,5c-1,5-3.24,2-3.24,2,.75,1.75-2.49,5.73-2,2.74l-.27-4L50.07,94.75l0,.19c.35.63,1.58,2.69,2.64,2.06a2.28,2.28,0,0,1,2-.18,2.11,2.11,0,0,1,.75.43A1.26,1.26,0,0,0,57.15,97c.5-.75-.24-2.25,2-1.25l1,.43c1,.4.6.12,2,.32,1.74.25,2.88-2,2.88-2Z"/><path class="cls-23" d="M73.84,50.7,72,50.43,69.09,66.69l.27,4.36c-.5,3.26,2.74-1.08,2-3,0,0,2.24,3.25,3.24-2.17l1-5.43,4.88,25.78s-1.14,2.44-2.89,2.17c-1.39-.22-1,.08-2-.35v97.58q2.58.6,5.21,1V88.06Z"/><polygon class="cls-23" points="65.37 95.42 65.36 95.5 65.36 96.17 65.37 96.25 65.37 95.42"/><path class="cls-23" d="M65.36,96.17V183h0V96.17Z"/><path class="cls-24" d="M65.37,94.75v.67l.1-.48Z"/><path class="cls-24" d="M68.11,89c-1.06.69-2.29-1.56-2.64-2.25l-.1.53v95.39c1.56.56,3.14,1.09,4.73,1.56V88.77A2.13,2.13,0,0,0,68.11,89Z"/><path class="cls-25" d="M74.59,87.6c-2.25-1.08-1.5.54-2,1.36a1.18,1.18,0,0,1-1.74.27,2.32,2.32,0,0,0-.75-.46v95.42l.75.22c1.56.46,3.14.87,4.73,1.24V88.07C75.35,88,75,87.82,74.59,87.6Z"/><polygon points="69.09 66.69 65.37 86.52 65.5 86.52 69.09 66.69"/><polygon class="cls-26" points="69.09 66.69 65.37 86.52 65.5 86.52 69.09 66.69"/><path class="cls-23" d="M70.1,86.52h5.48v1.55c1,.43.6.13,2,.35,1.75.27,2.89-2.17,2.89-2.17L75.58,60.47l-1,5.43c-1,5.42-3.24,2.17-3.24,2.17.75,1.9-2.49,6.24-2,3l-.27-4.36L65.5,86.52Z"/><path class="cls-24" d="M65.5,94.75h-.13l.1.19Z"/><path class="cls-27" d="M65.5,94.75h-.13l.1.19Z"/><path class="cls-24" d="M65.5,86.52l0,.19c.35.69,1.58,2.94,2.64,2.25a2.13,2.13,0,0,1,2-.19V86.52Z"/><path class="cls-25" d="M70.85,86.52v2.71A1.18,1.18,0,0,0,72.59,89c.5-.82-.25-2.44,2-1.36.44.22.76.37,1,.47V86.52Z"/><path class="cls-25" d="M70.1,86.52v2.25a2.32,2.32,0,0,1,.75.46V86.52Z"/><path class="cls-28" d="M75.58,60.47l-1,5.43c-1,5.42-3.24,2.17-3.24,2.17.75,1.9-2.49,6.24-2,3l-.27-4.36L65.5,86.52l0,.19c.35.69,1.58,2.94,2.64,2.25a2.13,2.13,0,0,1,2-.19,2.32,2.32,0,0,1,.75.46A1.18,1.18,0,0,0,72.59,89c.5-.82-.25-2.44,2-1.36.44.22.76.37,1,.47,1,.43.6.13,2,.35,1.75.27,2.89-2.17,2.89-2.17Z"/><polygon class="cls-29" points="80.81 95.42 80.8 95.5 80.8 96.17 80.81 96.25 80.81 95.42"/><path class="cls-29" d="M96.23,77.9l-7-41.11-1.81-.3L84.53,54.38l.26,4.8c-.49,3.59,2.74-1.19,2-3.28,0,0,2.24,3.58,3.23-2.39l1-6L95.9,75.91S94.75,78.59,93,78.3c-1.4-.24-1,.09-2-.38V187.74c.6,0,1.19.07,1.79.09h3.42Z"/><path class="cls-29" d="M80.79,96.17V186.7h0V96.25Z"/><path class="cls-30" d="M80.81,94.75v.67l.1-.48A1.94,1.94,0,0,1,80.81,94.75Z"/><path class="cls-30" d="M83.55,78.89c-1.06.76-2.3-1.71-2.64-2.47l-.1.58V186.48c1.57.29,3.14.54,4.73.75V78.69A2,2,0,0,0,83.55,78.89Z"/><path class="cls-31" d="M90,77.4c-2.24-1.19-1.49.6-2,1.49a1.1,1.1,0,0,1-1.74.3,2.25,2.25,0,0,0-.75-.5V187.23l.75.09c1.57.18,3.14.33,4.73.42V77.92Z"/><polygon points="80.94 76.21 84.53 54.38 80.81 76.21 80.94 76.21"/><polygon class="cls-32" points="80.94 76.21 84.53 54.38 80.81 76.21 80.94 76.21"/><path class="cls-29" d="M85.54,76.21H91v1.71c1,.47.59.14,2,.38,1.74.29,2.89-2.39,2.89-2.39L91,47.54l-1,6c-1,6-3.23,2.39-3.23,2.39.74,2.09-2.49,6.87-2,3.28l-.26-4.8L80.94,76.21Z"/><path class="cls-30" d="M80.94,94.75h-.13a1.94,1.94,0,0,0,.1.19Z"/><path class="cls-33" d="M80.94,94.75h-.13a1.94,1.94,0,0,0,.1.19Z"/><path class="cls-30" d="M83.55,78.89a2,2,0,0,1,2-.2V76.21h-4.6l0,.21C81.25,77.18,82.49,79.65,83.55,78.89Z"/><path class="cls-31" d="M86.29,76.21v3a1.1,1.1,0,0,0,1.74-.3c.5-.89-.25-2.68,2-1.49l1,.52V76.21Z"/><path class="cls-31" d="M86.29,79.19v-3h-.75v2.48A2.25,2.25,0,0,1,86.29,79.19Z"/><path class="cls-34" d="M91,47.54l-1,6c-1,6-3.23,2.39-3.23,2.39.74,2.09-2.49,6.87-2,3.28l-.26-4.8L80.94,76.21l0,.21c.34.76,1.58,3.23,2.64,2.47a2,2,0,0,1,2-.2,2.25,2.25,0,0,1,.75.5,1.1,1.1,0,0,0,1.74-.3c.5-.89-.25-2.68,2-1.49l1,.52c1,.47.59.14,2,.38,1.74.29,2.89-2.39,2.89-2.39Z"/><polygon class="cls-35" points="96.25 95.42 96.23 95.5 96.23 96.17 96.25 96.25 96.25 95.42"/><path class="cls-35" d="M104.72,41.51l-1.81-.29L100,58.56l.26,4.65c-.49,3.47,2.74-1.16,2-3.19,0,0,2.24,3.47,3.23-2.31l1-5.79,4.87,27.49s-1.14,2.6-2.88,2.31c-1.4-.23-1,.09-2-.36V187.24q2.63-.31,5.21-.81V81.34Z"/><polygon class="cls-35" points="96.23 96.17 96.23 187.83 96.25 187.83 96.25 96.25 96.23 96.17"/><path class="cls-36" d="M96.25,94.75v.67l.09-.48Z"/><path class="cls-36" d="M101,82.1a2,2,0,0,0-2,.2c-1.06.74-2.3-1.66-2.65-2.4l-.09.57V187.83h2.94l1.79-.08Z"/><path class="cls-37" d="M105.46,80.85c-2.24-1.16-1.49.58-2,1.45a1.13,1.13,0,0,1-1.74.29,2.22,2.22,0,0,0-.75-.49V187.75l.75-.05c1.58-.11,3.16-.26,4.73-.46V81.36Z"/><polygon points="99.97 58.56 96.25 79.69 96.38 79.69 99.97 58.56"/><polygon class="cls-38" points="99.97 58.56 96.25 79.69 96.38 79.69 99.97 58.56"/><path class="cls-35" d="M101,79.7h5.48v1.66c1,.45.59.13,2,.36,1.74.29,2.88-2.31,2.88-2.31l-4.87-27.49-1,5.79c-1,5.78-3.23,2.31-3.23,2.31.74,2-2.49,6.66-2,3.19L100,58.56,96.38,79.7Z"/><path class="cls-36" d="M96.38,94.75h-.13l.09.19Z"/><path class="cls-39" d="M96.38,94.75h-.13l.09.19Z"/><path class="cls-36" d="M96.38,79.7l0,.2c.35.74,1.59,3.14,2.65,2.4a2,2,0,0,1,2-.2V79.7Z"/><path class="cls-37" d="M101.73,79.7v2.89a1.13,1.13,0,0,0,1.74-.29c.5-.87-.25-2.6,2-1.45l1,.51V79.7Z"/><path class="cls-37" d="M101,79.7v2.4a2.22,2.22,0,0,1,.75.49V79.7Z"/><path class="cls-40" d="M106.46,51.92l-1,5.79c-1,5.78-3.23,2.31-3.23,2.31.74,2-2.49,6.66-2,3.19L100,58.56,96.38,79.69l0,.21c.35.74,1.59,3.14,2.65,2.4a2,2,0,0,1,2-.2,2.22,2.22,0,0,1,.75.49,1.13,1.13,0,0,0,1.74-.29c.5-.87-.25-2.61,2-1.45l1,.51c1,.45.59.13,2,.36,1.74.29,2.88-2.31,2.88-2.31Z"/><path class="cls-41" d="M120.15,61.89l-1.8-.25-2.94,14.92.26,4c-.5,3,2.74-1,2-2.74,0,0,2.24,3,3.24-2l1-5,4.87,23.66s-1.14,2.24-2.88,2c-1.4-.2-1,.08-2-.32V184.4q2.63-.72,5.21-1.59V96.17Z"/><polygon class="cls-41" points="111.69 95.42 111.67 95.5 111.67 96.17 111.69 96.25 111.69 95.42"/><path class="cls-41" d="M111.67,96.17v90.46h0V96.25Z"/><path class="cls-42" d="M111.69,94.75v.67l.09-.48Z"/><path class="cls-42" d="M114.43,97c-1.06.63-2.3-1.43-2.65-2.06l-.09.48v91.2c1.59-.25,3.17-.55,4.73-.88V96.82A2.28,2.28,0,0,0,114.43,97Z"/><path class="cls-43" d="M120.9,95.75c-2.24-1-1.49.5-2,1.25a1.26,1.26,0,0,1-1.74.25,2.33,2.33,0,0,0-.75-.43v88.92l.75-.17c1.59-.35,3.16-.74,4.73-1.17V96.18C121.66,96.09,121.34,96,120.9,95.75Z"/><polygon points="115.41 76.56 111.69 94.75 111.82 94.75 115.41 76.56"/><polygon class="cls-44" points="115.41 76.56 111.69 94.75 111.82 94.75 115.41 76.56"/><path class="cls-41" d="M116.42,94.75h5.48v1.43c.95.4.59.12,2,.32,1.74.25,2.88-2,2.88-2L121.9,70.85l-1,5c-1,5-3.24,2-3.24,2,.75,1.75-2.49,5.73-2,2.74l-.26-4-3.59,18.19Z"/><path class="cls-42" d="M111.82,94.75h-.13l.09.19Z"/><path class="cls-45" d="M111.82,94.75h-.13l.09.19Z"/><path class="cls-42" d="M111.82,94.75l0,.19c.35.63,1.59,2.69,2.65,2.06a2.28,2.28,0,0,1,2-.18V94.75Z"/><path class="cls-43" d="M117.17,94.75v2.5a1.26,1.26,0,0,0,1.74-.25c.5-.75-.25-2.25,2-1.25.44.2.76.34,1,.43V94.75Z"/><path class="cls-43" d="M116.42,94.75v2.07a2.33,2.33,0,0,1,.75.43v-2.5Z"/><path class="cls-46" d="M121.9,70.85l-1,5c-1,5-3.24,2-3.24,2,.75,1.75-2.49,5.73-2,2.74l-.26-4-3.59,18.19,0,.19c.35.63,1.59,2.69,2.65,2.06a2.28,2.28,0,0,1,2-.18,2.33,2.33,0,0,1,.75.43,1.26,1.26,0,0,0,1.74-.25c.5-.75-.25-2.25,2-1.25.44.2.76.34,1,.43.95.4.59.12,2,.32,1.74.25,2.88-2,2.88-2Z"/><path class="cls-47" d="M142.55,176.06q-2.56,1.4-5.21,2.64"/><path class="cls-47" d="M135.59,47.72l-1.8-.28-2.95,16.67.27,4.48c-.5,3.33,2.74-1.12,2-3.06,0,0,2.24,3.33,3.24-2.23l1-5.56,4.87,26.42s-1.14,2.51-2.88,2.23c-1.4-.22-1,.09-2-.35v92.18q2.64-1.4,5.21-2.95V86Z"/><polygon class="cls-47" points="127.13 95.42 127.11 95.5 127.11 96.17 127.13 96.25 127.13 95.42"/><path class="cls-47" d="M127.11,96.17v86.64h0V96.25Z"/><path class="cls-48" d="M127.13,94.75v.67l.09-.48Z"/><path class="cls-48" d="M129.86,86.94c-1.05.71-2.29-1.59-2.64-2.3l-.09.55V182.8q2.38-.9,4.73-1.94V86.75A2.1,2.1,0,0,0,129.86,86.94Z"/><path class="cls-49" d="M137.34,178.7q-2.34,1.1-4.74,2.07"/><path class="cls-49" d="M132.6,180.77l-.74.3"/><path class="cls-49" d="M136.34,85.55c-2.24-1.11-1.49.56-2,1.39a1.16,1.16,0,0,1-1.75.28,2.23,2.23,0,0,0-.74-.47v94.11l.74-.33q2.4-1.09,4.74-2.31V86Z"/><polygon points="130.84 64.11 127.13 84.44 127.26 84.44 130.84 64.11"/><polygon class="cls-50" points="130.84 64.11 127.13 84.44 127.26 84.44 130.84 64.11"/><path class="cls-47" d="M131.86,84.44h5.48V86c.95.44.59.13,2,.35,1.74.28,2.88-2.23,2.88-2.23l-4.87-26.42-1,5.56c-1,5.56-3.24,2.23-3.24,2.23.75,1.94-2.49,6.39-2,3.06l-.27-4.48-3.58,20.33Z"/><path class="cls-48" d="M127.26,94.75h-.13l.09.19Z"/><path class="cls-51" d="M127.26,94.75h-.13l.09.19Z"/><path class="cls-48" d="M127.26,84.44l0,.2c.35.71,1.59,3,2.64,2.3a2.1,2.1,0,0,1,2-.19V84.44Z"/><path class="cls-49" d="M132.6,84.44v2.78a1.16,1.16,0,0,0,1.75-.28c.5-.83-.25-2.5,2-1.39l1,.49v-1.6Z"/><path class="cls-49" d="M131.86,84.44v2.31a2.23,2.23,0,0,1,.74.47V84.44Z"/><path class="cls-52" d="M137.34,57.74l-1,5.56c-1,5.56-3.24,2.23-3.24,2.23.75,1.94-2.49,6.39-2,3.06l-.27-4.48-3.58,20.33,0,.2c.35.71,1.59,3,2.64,2.3a2.1,2.1,0,0,1,2-.19,2.23,2.23,0,0,1,.74.47,1.16,1.16,0,0,0,1.75-.28c.5-.83-.25-2.5,2-1.39l1,.49c.95.44.59.13,2,.35,1.74.28,2.88-2.23,2.88-2.23Z"/><path class="cls-53" d="M151,61.89l-1.81-.25-2.94,14.92.27,4c-.5,3,2.74-1,2-2.74,0,0,2.24,3,3.24-2l1-5,4.88,23.66s-1.14,2.24-2.88,2c-1.4-.2-1,.08-2-.32v73.44q2.68-1.92,5.22-4V96.17Z"/><polygon class="cls-53" points="142.56 95.42 142.55 95.5 142.55 96.17 142.56 96.25 142.56 95.42"/><path class="cls-53" d="M142.56,176.05h0"/><path class="cls-53" d="M142.55,96.17v79.89h0V96.17Z"/><path class="cls-54" d="M142.56,94.75v.67l.1-.48Z"/><path class="cls-54" d="M145.3,97c-1.05.63-2.29-1.43-2.64-2.06l-.1.48v80.63q2.41-1.32,4.74-2.76V96.82A2.3,2.3,0,0,0,145.3,97Z"/><path class="cls-55" d="M151.78,95.75c-2.24-1-1.5.5-2,1.25a1.27,1.27,0,0,1-1.75.25,2.14,2.14,0,0,0-.74-.43v76.47l.74-.47q2.42-1.53,4.73-3.2V96.18Z"/><polygon points="146.28 76.56 142.56 94.75 142.7 94.75 146.28 76.56"/><polygon class="cls-56" points="146.28 76.56 142.56 94.75 142.7 94.75 146.28 76.56"/><path class="cls-53" d="M147.3,94.75h5.47v1.43c1,.4.6.12,2,.32,1.74.25,2.88-2,2.88-2l-4.88-23.66-1,5c-1,5-3.24,2-3.24,2,.75,1.75-2.49,5.73-2,2.74l-.27-4L142.7,94.75Z"/><path class="cls-54" d="M142.7,94.75h-.14l.1.19Z"/><path class="cls-57" d="M142.7,94.75h-.14l.1.19Z"/><path class="cls-54" d="M142.7,94.75l0,.19c.35.63,1.59,2.69,2.64,2.06a2.3,2.3,0,0,1,2-.18V94.75Z"/><path class="cls-55" d="M148,94.75v2.5a1.27,1.27,0,0,0,1.75-.25c.49-.75-.25-2.25,2-1.25l1,.43V94.75Z"/><path class="cls-55" d="M147.3,94.75v2.07a2.14,2.14,0,0,1,.74.43v-2.5Z"/><path class="cls-58" d="M152.77,70.85l-1,5c-1,5-3.24,2-3.24,2,.75,1.75-2.49,5.73-2,2.74l-.27-4L142.7,94.75l0,.19c.35.63,1.59,2.69,2.64,2.06a2.3,2.3,0,0,1,2-.18,2.14,2.14,0,0,1,.74.43,1.27,1.27,0,0,0,1.75-.25c.49-.75-.25-2.25,2-1.25l1,.43c1,.4.6.12,2,.32,1.74.25,2.88-2,2.88-2Z"/><path class="cls-59" d="M173.43,149.56q-2.49,3.24-5.22,6.27"/><path class="cls-59" d="M166.47,44l-1.81-.29L161.72,61.2l.27,4.7c-.5,3.5,2.74-1.17,2-3.21,0,0,2.24,3.5,3.24-2.34l1-5.84,4.88,27.74s-1.14,2.62-2.89,2.33c-1.39-.23-1,.1-2-.37v69.93q2.73-3.54,5.22-7.35V84.2Z"/><polygon class="cls-59" points="158 95.42 157.99 95.5 157.99 96.17 158 96.25 158 95.42"/><path class="cls-59" d="M158,96.17V165.6h0V96.17Z"/><line class="cls-60" x1="158" y1="187.83" x2="158" y2="187.88"/><path class="cls-60" d="M158,94.75v.67l.1-.48Z"/><path class="cls-60" d="M160.74,85.17c-1.06.74-2.29-1.68-2.64-2.42l-.1.57v82.27c1.63-1.57,3.2-3.21,4.73-4.9V85A2,2,0,0,0,160.74,85.17Z"/><path class="cls-61" d="M168.21,155.83q-2.28,2.52-4.73,4.87"/><path class="cls-61" d="M163.48,160.7l-.75.71"/><path class="cls-61" d="M167.22,83.71c-2.25-1.17-1.5.58-2,1.46a1.13,1.13,0,0,1-1.74.29,2.25,2.25,0,0,0-.75-.5v75.73l.75-.83q2.45-2.76,4.73-5.72V84.21Z"/><polygon points="161.72 61.2 158 82.54 158.13 82.54 161.72 61.2"/><polygon class="cls-62" points="161.72 61.2 158 82.54 158.13 82.54 161.72 61.2"/><path class="cls-59" d="M162.73,82.54h5.48v1.67c1,.47.6.14,2,.37,1.75.29,2.89-2.33,2.89-2.33l-4.88-27.74-1,5.84c-1,5.84-3.24,2.34-3.24,2.34.75,2-2.49,6.71-2,3.21l-.27-4.7-3.59,21.34Z"/><path class="cls-60" d="M158.13,94.75H158l.1.19Z"/><path class="cls-63" d="M158.13,94.75H158l.1.19Z"/><path class="cls-60" d="M158.13,82.54l0,.21c.35.74,1.58,3.16,2.64,2.42a2,2,0,0,1,2-.21V82.54Z"/><path class="cls-61" d="M163.48,82.54v2.92a1.13,1.13,0,0,0,1.74-.29c.5-.88-.25-2.63,2-1.46l1,.5V82.54Z"/><path class="cls-61" d="M162.73,82.54V85a2.25,2.25,0,0,1,.75.5V82.54Z"/><path class="cls-64" d="M168.21,54.51l-1,5.84c-1,5.84-3.24,2.34-3.24,2.34.75,2-2.49,6.71-2,3.21l-.27-4.7-3.59,21.34,0,.21c.35.74,1.58,3.16,2.64,2.42a2,2,0,0,1,2-.21,2.25,2.25,0,0,1,.75.5,1.13,1.13,0,0,0,1.74-.29c.5-.88-.25-2.63,2-1.46l1,.5c1,.47.6.14,2,.37,1.75.29,2.89-2.33,2.89-2.33Z"/><path class="cls-65" d="M188.88,119.8A96.91,96.91,0,0,1,183.65,133"/><path class="cls-65" d="M181.91,61.89l-1.81-.25-2.94,14.92.27,4c-.5,3,2.73-1,2-2.74,0,0,2.24,3,3.23-2l1-5,4.88,23.66s-1.14,2.24-2.89,2c-1.4-.2-1,.08-2-.32V133a96.91,96.91,0,0,0,5.23-13.16V96.25Z"/><polygon class="cls-65" points="173.44 95.42 173.43 95.5 173.43 96.17 173.44 96.25 173.44 95.42"/><path class="cls-65" d="M173.44,149.54v0"/><path class="cls-65" d="M173.43,96.17v0Z"/><path class="cls-66" d="M173.44,94.75v.67l.1-.48Z"/><path class="cls-66" d="M178.17,142.76q-2.22,3.5-4.73,6.78"/><path class="cls-66" d="M176.18,97c-1.06.63-2.3-1.43-2.64-2.06l-.1.48v54.12q2.51-3.28,4.73-6.78V96.82A2.28,2.28,0,0,0,176.18,97Z"/><path class="cls-67" d="M183.65,133a94.44,94.44,0,0,1-4.73,8.61"/><path class="cls-67" d="M178.92,141.57l-.75,1.19"/><path class="cls-67" d="M182.65,95.75c-2.24-1-1.49.5-2,1.25a1.26,1.26,0,0,1-1.74.25,2.22,2.22,0,0,0-.75-.43v45.94l.75-1.19a94.44,94.44,0,0,0,4.73-8.61V96.18C183.41,96.09,183.1,96,182.65,95.75Z"/><polygon points="177.16 76.56 173.44 94.75 173.57 94.75 177.16 76.56"/><polygon class="cls-68" points="177.16 76.56 173.44 94.75 173.57 94.75 177.16 76.56"/><path class="cls-65" d="M178.17,94.75h5.48v1.43c1,.4.59.12,2,.32,1.75.25,2.89-2,2.89-2l-4.88-23.66-1,5c-1,5-3.23,2-3.23,2,.74,1.75-2.49,5.73-2,2.74l-.27-4-3.59,18.19Z"/><path class="cls-66" d="M173.57,94.75h-.13l.1.19Z"/><path class="cls-69" d="M173.57,94.75h-.13l.1.19Z"/><path class="cls-66" d="M173.57,94.75l0,.19c.34.63,1.58,2.69,2.64,2.06a2.28,2.28,0,0,1,2-.18V94.75Z"/><path class="cls-67" d="M178.92,94.75v2.5a1.26,1.26,0,0,0,1.74-.25c.5-.75-.25-2.25,2-1.25.45.2.76.34,1,.43V94.75Z"/><path class="cls-67" d="M178.17,94.75v2.07a2.22,2.22,0,0,1,.75.43v-2.5Z"/><path class="cls-70" d="M183.65,70.85l-1,5c-1,5-3.23,2-3.23,2,.74,1.75-2.49,5.73-2,2.74l-.27-4-3.59,18.19,0,.19c.34.63,1.58,2.69,2.64,2.06a2.28,2.28,0,0,1,2-.18,2.22,2.22,0,0,1,.75.43,1.26,1.26,0,0,0,1.74-.25c.5-.75-.25-2.25,2-1.25.45.2.76.34,1,.43,1,.4.59.12,2,.32,1.75.25,2.89-2,2.89-2Z"/><circle class="cls-71" cx="96" cy="96" r="94"/></g></g></g></svg>