<svg xmlns="http://www.w3.org/2000/svg" viewBox="0 0 139.31 115.79"><defs><style>.cls-1{fill:#fff;}.cls-2{fill:#ffdab6;}.cls-3{fill:#394e72;}.cls-4{opacity:0.3;}.cls-5{fill:#000072;}.cls-6{opacity:0.14;}.cls-7{fill:none;stroke:#394e72;stroke-miterlimit:10;stroke-width:0.75px;}</style></defs><g id="Capa_2" data-name="Capa 2"><g id="Apps1"><path class="cls-1" d="M50.2,115.79c-.69,0-1.39,0-2.09-.07a30.2,30.2,0,0,1-13.47-4.11c-.64,0-1.28.08-1.92.08a24.51,24.51,0,0,1-18.21-8.16C10,98.62,8.34,92.71,9.71,87.05,4.2,79.18,1.05,71,.34,62.54c-.89-10.6,2.17-20.9,9.11-30.7l0,0a30.52,30.52,0,0,1-3.76-2A17.46,17.46,0,0,1,1.51,26,7.08,7.08,0,0,1,.06,20.79a7,7,0,0,1,7-6.15c.23,0,.46,0,.68,0A11.27,11.27,0,0,1,9.8,12.09a12.91,12.91,0,0,1,3.87-2.44,12.11,12.11,0,0,1,4.53-.9c.3,0,.59,0,.88,0a12.13,12.13,0,0,1,4.86,1.41A13.62,13.62,0,0,1,28,13.56C36.51,7.8,45.34,4.89,54.4,4.89c1.27,0,2.56.06,3.84.17,8.41.77,16.63,4,24.46,9.56a17.16,17.16,0,0,1,3.77-.43,18.38,18.38,0,0,1,12.66,5.34,25.87,25.87,0,0,1,4.58,5.65c.93-.82,1.87-1.62,2.79-2.4a74.7,74.7,0,0,0,6.57-6c3.09-3.35,4.8-6.82,4.8-9.76a7,7,0,0,1,6.68-7h.33a7,7,0,0,1,7,6.34L138.6,78a8.19,8.19,0,0,1,.2,1.12l.48,5.13a6.42,6.42,0,0,1,0,1.16,7,7,0,0,1-2.09,5.51c-3.81,3.71-11.94,10-23.59,10.43-.6,0-1.26,0-2,0a27.73,27.73,0,0,1-16.28-4.76A30.74,30.74,0,0,1,92,93.89c-.71.74-1.24,1.25-1.53,1.53-2.55,2.64-20.4,20.37-40.22,20.37Z"/><path class="cls-1" d="M132.31,84.89l-.48-5.13-.09.07L124.87,7c0,5.45-3,10.51-6.66,14.51s-8.17,7.21-12.13,11a59.94,59.94,0,0,0-6,6.64,17.56,17.56,0,0,0-5.72-14.46c-4.91-4.56-9.75-3.85-12.86-2.15-6-4.88-14.23-9.58-23.9-10.47-12-1.09-23.69,4-34.83,15l-.33-.24.26-.16a4.07,4.07,0,0,0,1.4-1.73,5.27,5.27,0,0,0,.39-2.07,7.6,7.6,0,0,0-1.08-3.68,7.16,7.16,0,0,0-2.78-2.76,5.22,5.22,0,0,0-2.09-.6,5.05,5.05,0,0,0-2.19.35,6,6,0,0,0-1.81,1.13,4.05,4.05,0,0,0-1.24,2.17,4.48,4.48,0,0,0,.24,2.37,8.32,8.32,0,0,0,.91,1.76c.28.4.57.77.87,1.13-.75-.23-1.49-.49-2.23-.79-1-.38-1.92-.86-2.91-1.27a15.33,15.33,0,0,0-3.14-1H7a0,0,0,0,0,0,.05,10.22,10.22,0,0,0,2.48,2.22,25.27,25.27,0,0,0,2.9,1.57,29.07,29.07,0,0,0,3.1,1.25,16.23,16.23,0,0,0,2.56.63c.81.68,1.64,1.32,2.48,1.94C10.82,39.75,6.38,50.72,7.32,62c.81,9.68,5.45,17.89,10.29,24-1.72,3.1-2.47,7.93,2.06,12.87a17.64,17.64,0,0,0,13,5.89,15.7,15.7,0,0,0,3.5-.39,23.56,23.56,0,0,0,12.34,4.44c.56,0,1.12.05,1.68.05,17.46,0,34.18-17.18,35.29-18.34a75.22,75.22,0,0,0,6.58-7.28,29.69,29.69,0,0,0,7.2,7.72c5.44,3.81,11.67,3.54,14,3.45,10.18-.38,17-6.54,19-8.45l-.09-.92ZM16.53,19.33a3.22,3.22,0,0,1,.9-.6,2.24,2.24,0,0,1,2,.05,5.26,5.26,0,0,1,2.66,4.09,2.12,2.12,0,0,1-.71,1.89,2.56,2.56,0,0,1-1,.44c-.5-.41-1-.82-1.46-1.25a13.9,13.9,0,0,1-2-2.13,5.72,5.72,0,0,1-.61-1.08,1.69,1.69,0,0,1-.14-.81A1,1,0,0,1,16.53,19.33Z"/><path class="cls-2" d="M80.29,25.41s6-6.05,12.95.45,5.81,15.5,3.2,18.76S80.29,25.41,80.29,25.41Z"/><path class="cls-3" d="M95.77,46.59h-.19c-1.56-.11-4-1.45-10.36-10.57-3.37-4.84-6.31-9.71-6.34-9.76a1.65,1.65,0,0,1,.24-2c2.45-2.48,8.79-5.6,15.24.4,7.45,6.93,6.72,16.82,3.36,21A2.45,2.45,0,0,1,95.77,46.59ZM82.44,25.78c4.82,7.84,10.76,16.06,13,17.36,1.71-2.76,2.91-10.25-3.35-16.08C87.83,23.07,84.15,24.61,82.44,25.78Z"/><path class="cls-2" d="M20.53,84.74s-6.1,5.92.35,13,15.46,5.93,18.74,3.34S20.53,84.74,20.53,84.74Z"/><path class="cls-3" d="M32.72,104.69a17.64,17.64,0,0,1-13-5.89c-6-6.49-2.79-12.81-.29-15.24a1.63,1.63,0,0,1,2-.22c.05,0,4.9,3,9.71,6.4,9.08,6.42,10.4,8.88,10.49,10.44a2.46,2.46,0,0,1-1,2.14A13.06,13.06,0,0,1,32.72,104.69ZM20.88,86.89c-1.18,1.71-2.74,5.37,1.21,9.69,5.79,6.31,13.28,5.16,16.06,3.47C36.86,97.77,28.69,91.77,20.88,86.89Z"/><path class="cls-2" d="M84.37,89.28S51.05,124.4,30.46,96.16c0,0-18.14-12.81-21.18-31.78-1.7-10.51,1.26-22.92,14.53-36.1C61-8.65,91.64,35.42,91.64,35.42c5.43,4,8.5,8.52,9.89,13.13C107.36,67.78,84.37,89.28,84.37,89.28Z"/><g class="cls-4"><path class="cls-5" d="M84.37,89.28S51.05,124.4,30.46,96.16c0,0-18.14-12.81-21.18-31.78.46.68,25.63,37.19,70.77,14.21,14.72-7.5,20.46-18.53,21.48-30C107.36,67.78,84.37,89.28,84.37,89.28Z"/></g><path class="cls-3" d="M74.61,40.54a9.94,9.94,0,0,1-.32,5.29,12,12,0,0,1-2.8,4.66,12.19,12.19,0,0,1-2.12,1.76c-.38.25-.78.47-1.18.68a11.34,11.34,0,0,1-1.24.54,11.75,11.75,0,0,1-5.23.75.14.14,0,0,1-.11-.13.11.11,0,0,1,.07-.09c1.53-.85,3-1.6,4.3-2.47a4.2,4.2,0,0,0,.49-.33l.49-.32c.3-.25.63-.46.92-.71a17.64,17.64,0,0,0,1.69-1.54A19.1,19.1,0,0,0,72.37,45a29.48,29.48,0,0,0,2.14-4.44h0a.06.06,0,0,1,.07,0S74.61,40.52,74.61,40.54Z"/><path class="cls-3" d="M35.7,79.07A29.54,29.54,0,0,0,40.15,77a19.18,19.18,0,0,0,3.68-2.77,17.74,17.74,0,0,0,1.55-1.69c.25-.28.46-.61.71-.91l.33-.48a5.25,5.25,0,0,0,.33-.49c.88-1.32,1.65-2.76,2.5-4.29a.12.12,0,0,1,.16,0,.11.11,0,0,1,.06.09,11.71,11.71,0,0,1-.78,5.22c-.15.43-.36.83-.55,1.24s-.44.8-.7,1.18a12.07,12.07,0,0,1-.82,1.1c-.3.34-.61.69-.94,1A12.11,12.11,0,0,1,41,78.89a9.93,9.93,0,0,1-5.29.28s-.05,0,0-.06l0,0Z"/><path class="cls-3" d="M65.36,63.16a24.41,24.41,0,0,0-2.41,1,7.45,7.45,0,0,0-1.84,1.26,6.3,6.3,0,0,0-1.23,1.76c-.34.69-.61,1.49-1,2.39a.08.08,0,0,1-.11.05.09.09,0,0,1-.05,0,4.63,4.63,0,0,1-.48-2.87A4.56,4.56,0,0,1,59.75,64a5.18,5.18,0,0,1,2.77-1.27,5,5,0,0,1,2.84.36.05.05,0,0,1,0,.07l0,0Z"/><path class="cls-3" d="M50.24,108.79c-.56,0-1.12,0-1.68-.05-7.56-.49-14-4.33-19.27-11.4C27,95.63,9,81.91,7.32,62c-1-12,4.15-23.74,15.33-34.84S45.59,10.94,57.6,12c19.94,1.82,33.54,19.88,35.23,22.23,7,5.28,10.82,11.79,11.25,19.36,1,18.06-17.34,35.69-18.55,36.83S67.7,108.79,50.24,108.79Zm4.19-93.61c-10,0-19.91,4.79-29.46,14.27C14.51,39.83,9.68,50.67,10.6,61.68c1.62,19.38,20.62,33,20.81,33.13a1.71,1.71,0,0,1,.38.38c4.65,6.38,10.36,9.83,17,10.26,16.71,1.09,34.23-17.12,34.4-17.3l.07-.07c.19-.18,18.52-17.55,17.56-34.28-.39-6.62-3.8-12.36-10.14-17a1.52,1.52,0,0,1-.37-.39c-.14-.19-13.66-19.3-33-21C56.33,15.23,55.38,15.18,54.43,15.18Z"/><path class="cls-3" d="M27.68,33.87A66.15,66.15,0,0,1,22,30.39a43.63,43.63,0,0,1-5.26-4.16,18.1,18.1,0,0,1-2.33-2.69,8.32,8.32,0,0,1-.91-1.76,4.48,4.48,0,0,1-.24-2.37,4.05,4.05,0,0,1,1.24-2.17,6,6,0,0,1,1.81-1.13,5.05,5.05,0,0,1,2.19-.35,5.22,5.22,0,0,1,2.09.6,7.16,7.16,0,0,1,2.78,2.76,7.6,7.6,0,0,1,1.08,3.68,5.27,5.27,0,0,1-.39,2.07,4.07,4.07,0,0,1-1.4,1.73,4.89,4.89,0,0,1-1.93.78,8.58,8.58,0,0,1-1.88.09,14.37,14.37,0,0,1-3.4-.73,29.07,29.07,0,0,1-3.1-1.25,25.27,25.27,0,0,1-2.9-1.57A10.22,10.22,0,0,1,7,21.7a0,0,0,0,1,0-.05H7a15.33,15.33,0,0,1,3.14,1c1,.41,1.93.89,2.91,1.27a25.2,25.2,0,0,0,3,1,12.76,12.76,0,0,0,2.94.47,3.87,3.87,0,0,0,2.36-.6,2.12,2.12,0,0,0,.71-1.89,5.26,5.26,0,0,0-2.66-4.09,2.24,2.24,0,0,0-2-.05,3.22,3.22,0,0,0-.9.6,1,1,0,0,0-.33.6,1.69,1.69,0,0,0,.14.81A5.72,5.72,0,0,0,17,21.82a13.9,13.9,0,0,0,2,2.13A58.71,58.71,0,0,0,29.22,31l0,0a1.62,1.62,0,0,1-1.58,2.82Z"/><rect class="cls-3" x="84.81" y="69.39" width="2" height="5" rx="1"/><path class="cls-2" d="M124.87,7c0,5.45-3,10.51-6.66,14.51s-8.17,7.21-12.13,11A60.16,60.16,0,0,0,89.61,59.89a26.35,26.35,0,0,1-2.24,6.41A7,7,0,0,1,82,70.06a2.56,2.56,0,0,0,.29,1.83,2.94,2.94,0,0,0,2,1c2.79.46,5.15,5.84,7,9a30.18,30.18,0,0,0,8,9c5.44,3.81,11.67,3.54,14,3.45,10.18-.38,17-6.54,19-8.45"/><path class="cls-3" d="M123.29,5.18c-.16,11.34-10.8,18-18.22,24.83a60.58,60.58,0,0,0-16,24.72C87.53,59.22,86.81,67.49,80.7,68a.19.19,0,0,0-.26.2c-.32,2.58,2,5.84,4.54,6.54a4,4,0,0,1,1.62.54,7.41,7.41,0,0,1,1.39,2c1.26,2.2,2.4,4.46,3.86,6.55a39.61,39.61,0,0,0,5.85,6.75,21.74,21.74,0,0,0,14,5.72,29.49,29.49,0,0,0,12.82-2.24,31.23,31.23,0,0,0,9.32-6.26c.75-.73-2.48-4.51-3-4a29.23,29.23,0,0,1-19.41,8.45A21.72,21.72,0,0,1,99,89.47c-3.88-2.44-6.12-6.23-8.29-10.12a32.46,32.46,0,0,0-4-5.82c-1.12-1.25-2.73-2.82-4.55-2.83L82,70.59l1.6,2c.13-.12,0-.38.23-.54a10.23,10.23,0,0,1,1.45-.38,7.12,7.12,0,0,0,2.7-2c1.6-1.88,2.29-4.34,2.92-6.68a61,61,0,0,1,14.7-26.46c7.78-8.13,20.72-14.89,20.9-27.67,0-1-.91-2-1.51-2.71-.13-.15-1.65-1.63-1.66-.93Z"/><g class="cls-6"><path class="cls-5" d="M112.91,87.34c-2.49.09-9,.36-14.74-3.45a30.66,30.66,0,0,1-8.39-9c-1.29-2.09-2.81-5.15-4.54-7.11A5.73,5.73,0,0,1,82,69.06a2.56,2.56,0,0,0,.29,1.83,2.94,2.94,0,0,0,2,1c2.79.46,5.15,5.84,7,9a30.18,30.18,0,0,0,8,9c5.44,3.81,11.67,3.54,14,3.45,10.18-.38,17-6.54,19-8.45l-.48-5.13A31.25,31.25,0,0,1,112.91,87.34Z"/></g><ellipse class="cls-2" cx="79.31" cy="71.39" rx="4.2" ry="6"/><path class="cls-7" d="M82.81,74.39c2-2.45,1.46-6.24-1.26-8.5"/></g></g></svg>