<svg xmlns="http://www.w3.org/2000/svg" viewBox="0 0 240.27 219.21"><defs><style>.cls-1{isolation:isolate;}.cls-2,.cls-7{fill:#fff;}.cls-3{fill:#f9caab;}.cls-18,.cls-4,.cls-6,.cls-8{mix-blend-mode:multiply;}.cls-5,.cls-6{fill:#d9d9d9;}.cls-7,.cls-8{opacity:0.2;}.cls-7{mix-blend-mode:soft-light;}.cls-9{fill:#f7bba0;}.cls-10{fill:#eab693;}.cls-11{fill:#402716;}.cls-12{fill:#3f2717;}.cls-13{fill:#5d2e2e;}.cls-14{fill:#ee7e8a;}.cls-15{fill:none;stroke:#a3763e;stroke-miterlimit:10;}.cls-16{fill:#a3763e;}.cls-17,.cls-18{fill:#96ccef;}.cls-18{opacity:0.5;}</style></defs><g class="cls-1"><g id="Capa_2" data-name="Capa 2"><g id="Apps1"><path class="cls-2" d="M117.86,219.19c-.67,0-1.33,0-2,0l-.5,0q-1,0-2-.09l-.36,0-2.18-.15-.33,0c-.74-.07-1.45-.13-2.16-.21l-.33,0-2.18-.26-.28,0-2.19-.33-.2,0c-.77-.12-1.51-.25-2.25-.39l-.19,0c-.75-.15-1.5-.29-2.24-.45l-.21-.05c-.71-.15-1.46-.31-2.2-.49l-.16,0c-.73-.17-1.48-.36-2.23-.56l-.18,0-2.18-.6-.17-.06c-.68-.19-1.43-.42-2.17-.66l-.18-.06c-.7-.22-1.42-.46-2.14-.71l-.17-.06c-.71-.24-1.41-.5-2.11-.76l-.2-.07h0l-2.1-.82-.22-.09c-.63-.25-1.32-.54-2-.84l-.22-.09-2-.88-.21-.1-2-.94-.23-.12-1.92-1-.23-.13c-.63-.33-1.26-.66-1.88-1l-.29-.16-1.79-1-.4-.23-1.66-1-.43-.27-1.59-1-.47-.31-1.51-1-.52-.36-1.42-1-.82-.61c-.38-.27-.75-.55-1.12-.83l-.71-.55-1.16-.89-.87-.71-1-.81-1-.88c-.26-.22-.52-.44-.77-.67l-.61-.54-.42-.38-.74-.66-.67-.63-1.05-1-.67-.66-1-1c-.29-.29-.56-.57-.83-.86,0,0-.67-.69-.82-.86s-.59-.62-.87-.93l-.75-.82-1-1.09-.62-.71-1.12-1.34-.39-.47-1.19-1.5-.3-.37c-.41-.52-.81-1.06-1.21-1.59l-.19-.26c-.45-.61-.85-1.16-1.24-1.71l-.2-.29c-.42-.59-.84-1.2-1.25-1.81l-.12-.19c-.41-.61-.84-1.27-1.26-1.93l0,0a99.29,99.29,0,0,1-9-18,16.79,16.79,0,0,1-3.4,1.4,16.06,16.06,0,0,1-3.44.57l-.82,0c-8.14,0-14.65-6.39-15.46-15.2A17.94,17.94,0,0,1,3,139.33c0-.33,0-.66.07-1,0,0,0-.22,0-.26a34.71,34.71,0,0,1-3-12.85c-.36-8.76,2.46-16.93,7.73-22.42A20.48,20.48,0,0,1,22.5,96.26c.62-2.61,1.35-5.18,2.17-7.7C28.4,77.17,38,55.63,60.05,39.4A96.74,96.74,0,0,1,92.29,23.94a31.79,31.79,0,0,1,9.53-12.5,38.53,38.53,0,0,1,18.69-8c.78-.11,1.6-.2,2.47-.26q1.08-.47,2.16-.87A39,39,0,0,1,135.51.12c1-.08,2-.12,3-.12a39.52,39.52,0,0,1,7.56.73A38.25,38.25,0,0,1,154,3.17c1.21.52,2,.94,2.2,1A9,9,0,0,1,153.42,21l-2.45.44-1.21.25-1,.22c-.43.08-.77.18-1.11.27l-.93.25c-.27.06-.49.13-.7.19a88,88,0,0,1,30.59,13C195.26,48.09,208.1,67,214.77,91.65c.41,1.5.78,3,1.12,4.56a20.56,20.56,0,0,1,14.44,6.54c5.27,5.49,8.09,13.65,7.74,22.4,0,.94-.12,1.89-.24,2.84.17.33.33.66.48,1,.07.15.13.31.2.48.17.4.35.84.51,1.29.07.21.14.42.2.63l0,.12c.13.41.26.82.37,1.25.06.25.12.53.18.81l0,.18c.08.37.16.74.21,1.12s.1.77.13,1.16v.11c0,.33.06.68.07,1a17.94,17.94,0,0,1-.07,2.43c-.81,8.8-7.32,15.19-15.47,15.19h0l-.78,0a16.45,16.45,0,0,1-3.46-.57,16.18,16.18,0,0,1-2.89-1.13,19.2,19.2,0,0,1-3.71.36c-.45,0-.9,0-1.34,0-.4,1.1-.81,2.18-1.24,3.26a1.12,1.12,0,0,1-.05.13c-.29.71-.57,1.41-.87,2.11l-.1.23c-.27.62-.57,1.3-.88,2l-.1.22c-.31.66-.61,1.31-.93,2l-.12.23c-.33.69-.64,1.31-1,1.93l-.24.45-.89,1.67-.29.51c-.29.52-.58,1.05-.89,1.57l-.48.81q-.37.65-.75,1.26l-.49.79-.77,1.22-.63.94c-.23.35-.46.7-.7,1.05l-.74,1.06c-.2.3-.41.61-.63.9s-1.21,1.67-1.41,1.93l-.71.92-.17.21c-.19.26-.38.51-.58.76l-.59.72-.9,1.12-.75.88-.79.92c-.28.33-.55.63-.82.93l-.78.86-1,1.07-.64.68-1.11,1.13-.55.55-1.13,1.1-.59.57-1.19,1.11-.54.49c-.45.41-.9.8-1.35,1.19l-.46.4c-.46.4-.93.8-1.41,1.19l-.41.35-1.47,1.17-.39.31c-.49.39-1,.78-1.54,1.18l-.37.28-1.6,1.16-.31.22-1.65,1.14-.35.23c-.54.37-1.12.74-1.7,1.12l-.25.16c-.61.39-1.21.76-1.82,1.13l-.16.1c-.68.41-1.31.78-1.94,1.14l-.21.12q-.91.53-1.89,1l-.09.05c-.73.4-1.38.73-2,1.07l-.24.12c-.59.31-1.25.63-1.91.95l-.23.11-1.94.9-.28.12-2,.85-.22.1-2,.8-.21.09-2.08.78-.21.08-2,.71-.31.11c-.62.21-1.3.42-2,.63l-.36.11c-.63.2-1.31.4-2,.59l-.34.1-2,.54-.27.07c-.73.19-1.4.34-2.08.5l-.39.09-2,.43-.43.09-1.95.37-.5.09-1.93.32-.51.08c-.63.1-1.28.18-1.92.27l-.54.07c-.63.08-1.26.14-1.89.21l-.61.07-1.83.15-.69.06-1.81.11-.71,0-1.5.06-1,0-1.72,0h-.77Z"/><path class="cls-3" d="M201.27,123.86c-.46,10.84,5.63,19.6,13.59,19.57s14.77-8.81,15.22-19.65-5.65-19.6-13.61-19.57S201.71,113,201.27,123.86Z"/><g class="cls-4"><path class="cls-5" d="M212.38,119.36s0-.6.13-1.61a14.8,14.8,0,0,1,1.14-4c.7-1.53,2-3.35,3.93-3.7a6.28,6.28,0,0,1,1.51,0c.09,0,.64.1.81.17s.38.11.62.24a6,6,0,0,1,2.31,2,10.71,10.71,0,0,1,1.48,2.87,10.2,10.2,0,0,1,.63,3c0,1.08.1,2.18,0,3.13s-.16,1.88-.24,2.73-.25,1.65-.34,2.36-.27,1.32-.36,1.83c-.21,1-.3,1.6-.3,1.6s.3-.53.78-1.5c.21-.49.56-1.06.81-1.76s.57-1.48.87-2.35.47-1.86.69-2.89a23.44,23.44,0,0,0,.35-3.18,9.89,9.89,0,0,0-.5-3.62,12.65,12.65,0,0,0-1.67-3.43,8.38,8.38,0,0,0-3.3-2.72,6.36,6.36,0,0,0-1.21-.4,10,10,0,0,0-1.12-.16,9,9,0,0,0-2.36.23,6.12,6.12,0,0,0-3.45,2.36,8.42,8.42,0,0,0-1.34,2.88,12,12,0,0,0-.23,4.37A7.34,7.34,0,0,0,212.38,119.36Z"/></g><path class="cls-6" d="M212.38,119.36s-.93-1,4.14-2c0,0,5.84,0,3.49,5.64a12.93,12.93,0,0,0-1,3.75c-.17,1.82,1.19,4.08.12,5.82-1.38,2.25-6.1,1.7-6.81-.57-.54-1.73,1.52-5.09,2.48-6.51C214.77,125.52,217.71,121.22,212.38,119.36Z"/><g class="cls-4"><path class="cls-5" d="M212.25,131.81a2.32,2.32,0,0,0-.34.33,3.09,3.09,0,0,0-.57,1.08,2.45,2.45,0,0,0-.12.78,1.93,1.93,0,0,0,.08.89,4.84,4.84,0,0,0,.3.91,6.23,6.23,0,0,0,.58.83,5,5,0,0,0,.73.72,9.68,9.68,0,0,0,.87.5,3.91,3.91,0,0,0,1.71.56,7,7,0,0,0,1.8.06,8,8,0,0,0-1-1.17,4.62,4.62,0,0,0-.52-.44c-.16-.16-.29-.37-.47-.53a6.15,6.15,0,0,0-.53-.49c-.22-.14-.29-.37-.44-.54a5.33,5.33,0,0,1-.85-1.07,4,4,0,0,1-.33-.55c-.08-.19-.24-.36-.3-.54A13.94,13.94,0,0,1,212.25,131.81Z"/></g><path class="cls-3" d="M38.83,123.9c.47,10.84-5.62,19.61-13.58,19.58S10.48,134.68,10,123.84s5.64-19.6,13.6-19.58S38.38,113.07,38.83,123.9Z"/><g class="cls-4"><path class="cls-5" d="M27.71,119.41a14.3,14.3,0,0,0-1.27-5.64c-.7-1.53-2-3.35-3.92-3.7A6.36,6.36,0,0,0,21,110c-.09,0-.64.1-.81.17a6.33,6.33,0,0,0-.61.24,5.88,5.88,0,0,0-2.31,2,10.4,10.4,0,0,0-1.49,2.86,10.23,10.23,0,0,0-.62,3c0,1.09-.1,2.18,0,3.13s.16,1.89.24,2.74.25,1.65.34,2.36.27,1.31.36,1.82c.21,1,.31,1.61.31,1.61s-.31-.54-.79-1.5c-.21-.49-.56-1.07-.81-1.76s-.57-1.48-.87-2.35-.47-1.86-.7-2.9a25,25,0,0,1-.34-3.18,9.8,9.8,0,0,1,.49-3.61,12.54,12.54,0,0,1,1.68-3.43,8.29,8.29,0,0,1,3.29-2.73,7.15,7.15,0,0,1,1.21-.4,8.23,8.23,0,0,1,1.12-.15,8.52,8.52,0,0,1,2.36.22,6.12,6.12,0,0,1,3.45,2.36,8.37,8.37,0,0,1,1.35,2.88,11.71,11.71,0,0,1,.22,4.37A7.34,7.34,0,0,1,27.71,119.41Z"/></g><path class="cls-6" d="M27.71,119.41s.94-1-4.13-2c0,0-5.85,0-3.49,5.64a13.59,13.59,0,0,1,1,3.76c.16,1.81-1.2,4.07-.12,5.81,1.38,2.25,6.1,1.69,6.8-.57.55-1.73-1.51-5.1-2.48-6.51C25.33,125.57,22.39,121.27,27.71,119.41Z"/><g class="cls-4"><path class="cls-5" d="M27.86,131.86a2.24,2.24,0,0,1,.34.33,3.27,3.27,0,0,1,.56,1.08,2.2,2.2,0,0,1,.12.78,1.77,1.77,0,0,1-.07.88,7,7,0,0,1-.3.92,5.64,5.64,0,0,1-.59.82,3.88,3.88,0,0,1-.73.73,8.47,8.47,0,0,1-.87.5,3.87,3.87,0,0,1-1.71.56,7,7,0,0,1-1.8.06,8.46,8.46,0,0,1,1.05-1.17,3.22,3.22,0,0,1,.52-.43c.16-.17.29-.38.47-.54a6.36,6.36,0,0,1,.53-.5c.21-.14.29-.36.44-.53a5.56,5.56,0,0,0,.84-1.07,4,4,0,0,0,.33-.55c.08-.19.25-.37.3-.54C27.63,132.48,27.86,131.86,27.86,131.86Z"/></g><path class="cls-3" d="M210.36,119.17A90.32,90.32,0,1,1,120.47,28.3,90.38,90.38,0,0,1,210.36,119.17Z"/><path class="cls-7" d="M178.61,119c-.19,41.82-26,75.6-57.73,75.46s-57.22-34.17-57-76,26-75.6,57.73-75.45S178.81,77.21,178.61,119Z"/><g class="cls-8"><path class="cls-3" d="M29.73,118.34a90.37,90.37,0,0,0,89.72,90.86c-40.26-.3-72.67-40.9-72.44-90.78s33.12-90.3,73.46-90.12A90.4,90.4,0,0,0,29.73,118.34Z"/><path class="cls-3" d="M120.47,28.3c40.34.19,72.85,40.84,72.62,90.8s-33,90.17-73.29,90.11a90.46,90.46,0,0,0,.67-180.91Z"/></g><path class="cls-9" d="M87.21,128.15c0,4.79-6.83,8.67-15.26,8.67S56.69,133,56.69,128.16s6.83-8.67,15.26-8.68S87.21,123.36,87.21,128.15Z"/><path class="cls-9" d="M152.89,128.13c0,4.79,6.84,8.67,15.27,8.67s15.25-3.89,15.25-8.68-6.83-8.66-15.26-8.66S152.89,123.34,152.89,128.13Z"/><path class="cls-10" d="M108.64,128.46A7.65,7.65,0,0,0,112,125l-.06.12a6.47,6.47,0,0,1,.81-1.48,8.19,8.19,0,0,1,1.09-1.19,7.41,7.41,0,0,1,1.35-.94,6.93,6.93,0,0,1,1.52-.62,7.91,7.91,0,0,1,1.58-.32l.73,0a7.82,7.82,0,0,1,.84,0,9,9,0,0,1,3.12.71,7.79,7.79,0,0,1,1.46.82c.22.17.44.36.65.54l.58.63.5.69.38.74c.13.29.33.7.52,1a12.43,12.43,0,0,0,1.38,2.07,7.19,7.19,0,0,0,2,1.7,5,5,0,0,1-2.83-.6,9.27,9.27,0,0,1-2.37-1.75,8.48,8.48,0,0,1-1-1.17,5.44,5.44,0,0,0-.69-.74,6.48,6.48,0,0,0-.81-.56,7,7,0,0,0-.93-.4,8.13,8.13,0,0,0-2.11-.4,4.4,4.4,0,0,0-.5,0l-.61,0a6.14,6.14,0,0,0-1.06.13,4.26,4.26,0,0,0-1,.29,5.88,5.88,0,0,0-1,.45,6.39,6.39,0,0,0-.87.63,6.1,6.1,0,0,0-.72.72l-.06.12a6.33,6.33,0,0,1-2.47,1.82A6,6,0,0,1,108.64,128.46Z"/><path class="cls-11" d="M163.38,101.09s-.4-.13-1.09-.32-1.66-.45-2.8-.74c-.58-.13-1.2-.27-1.86-.4s-1.36-.21-2-.34-1.46-.16-2.21-.2a21.44,21.44,0,0,0-2.27,0,19.1,19.1,0,0,0-2.27.17c-.76.05-1.49.25-2.23.36s-1.41.37-2.09.53-1.29.43-1.89.6-1.18.36-1.64.57-.91.36-1.27.5l-1.18.41s.24-.28.72-.77c.24-.24.54-.53.91-.86a8.7,8.7,0,0,1,1.37-1,12.56,12.56,0,0,1,1.85-1.08,21.43,21.43,0,0,1,2.34-1l1.34-.38a6.57,6.57,0,0,1,1.41-.32,18,18,0,0,1,2.93-.31,18.2,18.2,0,0,1,2.88.12,19.34,19.34,0,0,1,2.58.5,14.91,14.91,0,0,1,3.87,1.62,9.38,9.38,0,0,1,2.07,1.62A3.82,3.82,0,0,1,163.38,101.09Z"/><path class="cls-12" d="M164.09,99a39.7,39.7,0,0,0-12.91-2.07,32,32,0,0,0-7.46,1.22c-2,.54-3.83,1.4-5.77,2l2.3,3.53a14.91,14.91,0,0,1,10.23-4.93,16.11,16.11,0,0,1,6.32.73c1.54.53,3.52,1.39,4.42,2.83,1.46,2.34,5.89.09,4.33-2.41-1.24-2-3.66-3.36-5.79-4.18a21.5,21.5,0,0,0-8.7-1.36c-5.22.24-10.79,2.39-14.25,6.42a2.13,2.13,0,0,0-.44,2.65,2.48,2.48,0,0,0,2.75.88c4-1.3,7.65-2.9,11.91-3a35.84,35.84,0,0,1,11.64,2,2.7,2.7,0,0,0,3.08-1.67C166.19,100.23,165.25,99.31,164.09,99Z"/><path class="cls-11" d="M76.25,103.08l1.09-.31c.68-.2,1.67-.46,2.8-.74.58-.13,1.2-.27,1.86-.4s1.36-.21,2-.34,1.46-.16,2.21-.2a17.17,17.17,0,0,1,2.27,0,19.1,19.1,0,0,1,2.27.17c.76.05,1.49.25,2.23.36s1.41.37,2.09.53,1.29.43,1.89.6,1.18.36,1.64.57.91.36,1.27.49c.73.27,1.18.42,1.18.42s-.24-.29-.72-.77c-.24-.24-.54-.54-.91-.86a8.12,8.12,0,0,0-1.37-1,11,11,0,0,0-1.85-1.08,19.62,19.62,0,0,0-2.34-1l-1.34-.39a7.22,7.22,0,0,0-1.41-.31,18,18,0,0,0-2.93-.31,17.09,17.09,0,0,0-2.88.12,21.11,21.11,0,0,0-2.58.49,15.26,15.26,0,0,0-3.87,1.62,9.69,9.69,0,0,0-2.07,1.62A4.25,4.25,0,0,0,76.25,103.08Z"/><path class="cls-12" d="M76.83,105.16a35.69,35.69,0,0,1,11.39-1.92c4.13.09,7.74,1.66,11.59,2.92a2.94,2.94,0,0,0,3-.5,2.06,2.06,0,0,0,.44-2.66,20.09,20.09,0,0,0-14.32-6.66,20.91,20.91,0,0,0-8.55,1.3c-2.32.91-4.89,2.27-6.26,4.45-1.68,2.7,2.75,4.36,4.23,2a7.49,7.49,0,0,1,3.76-2.49,16.23,16.23,0,0,1,6.56-.88,17.57,17.57,0,0,1,6.1,1.65,11.78,11.78,0,0,1,2.46,1.47A13.07,13.07,0,0,1,98.47,105c.16.16.32.34.49.5.33.29-.13-.16,0,0l3.46-3.15c-1.94-.64-3.82-1.44-5.77-2a30.29,30.29,0,0,0-7.79-1.34A39.71,39.71,0,0,0,75.66,101a2.41,2.41,0,0,0-1.82,2.76A2.38,2.38,0,0,0,76.83,105.16Z"/><path class="cls-13" d="M150.72,161.37c-1.75-22.57-24.77-23-30.67-22.73-5.89-.26-28.91.18-30.65,22.74-.65,8.41,4.37,16.81,14.28,17.61,3.44.28,6.52-.25,9.14-2.32a9.38,9.38,0,0,1,7.24-2.26,9.4,9.4,0,0,1,7.25,2.25c2.62,2.08,5.7,2.6,9.14,2.32C146.35,178.18,151.37,169.77,150.72,161.37Z"/><path class="cls-6" d="M137.6,164.27c.65-5.89-2.14-12.31-8.37-11.23a6.55,6.55,0,0,0-4.49,2.55c-1,1.49-1.39,3.51-3,4.46-4.09,2.37-5.7-4.19-8-5.85-1.86-1.32-5.1-.87-7.08,0a6.17,6.17,0,0,0-2.89,2.4c-1.7,3-1.43,6.58-.42,9.82a39,39,0,0,0,6.14,12.09,10.66,10.66,0,0,0,3.39-1.79,9.38,9.38,0,0,1,7.24-2.26,9.4,9.4,0,0,1,7.25,2.25,10.6,10.6,0,0,0,4.6,2.11C134.24,174.41,137.08,169.07,137.6,164.27Z"/><path class="cls-14" d="M134.66,174.31c-.29-6.83-6.58-9.62-12.73-10-5.22-.3-13.41.11-16.07,5.68a10.36,10.36,0,0,0,.49,9,11.2,11.2,0,0,0,6.47-2.35,9.38,9.38,0,0,1,7.24-2.26,9.4,9.4,0,0,1,7.25,2.25A11.21,11.21,0,0,0,134,179,15,15,0,0,0,134.66,174.31Z"/><path class="cls-15" d="M157.88,86.66a14.07,14.07,0,0,1-13.69-6.36"/><path class="cls-15" d="M80.28,86.68A14.09,14.09,0,0,0,94,80.31"/><path class="cls-16" d="M131.24,22.42a9.08,9.08,0,0,1,.82-1.8A11,11,0,0,1,133.29,19l.75-.76.83-.71a16.38,16.38,0,0,1,1.85-1.28c.64-.41,1.34-.76,2-1.12s1.44-.64,2.17-.95,1.5-.58,2.28-.81,1.54-.5,2.34-.69,1.58-.44,2.39-.6,1.61-.37,2.43-.51l2.45-.45s-.5-.27-1.41-.66a28.64,28.64,0,0,0-6.06-1.86,30.48,30.48,0,0,0-8.16-.48,30.14,30.14,0,0,0-7.91,1.7c-1.09.4-2.14.86-3.16,1.35a29.74,29.74,0,0,0-3.4.25,29.78,29.78,0,0,0-14.24,6.05,22.23,22.23,0,0,0-7.65,11.18,15.08,15.08,0,0,0,1.84,12.56,23,23,0,0,0,4.93,5.15,20.56,20.56,0,0,0,7,3.51,27,27,0,0,0,8.22,1,21.64,21.64,0,0,0,8-1.69,12.37,12.37,0,0,0,2.9-1.73,22,22,0,0,0,7.81-1.2,10.06,10.06,0,0,0,5.81-4.6,6.65,6.65,0,0,0-.44-6.42,10.19,10.19,0,0,0-6-4.43,12,12,0,0,0-7.84.6,12.6,12.6,0,0,1-1.67-3.29,10.26,10.26,0,0,1-.44-1.88,8.47,8.47,0,0,1,.31-3.78Z"/><path class="cls-16" d="M29.94,125A91,91,0,0,1,66.38,45.65c22.33-16.39,45.38-17.17,54.09-17.35,10-.19,31.31-.32,52.13,13.7,24.79,16.7,32.09,42.14,34.48,51a97.16,97.16,0,0,1,1.79,42.21c-1.76-5.42.59-18.54-8.69-22.54C192.72,109.46,169.5,60,169.5,60s-10.06-8.19-10.06-11.71c0,0,.76,14.54,8.71,19.91,0,0-15.27-1.64-25.1-22.72,0,0-12.94,12.41,1.14,24.35,0,0-17.07-6.55-18.47-14.51,0,0,1.64,13.81-7.26,20.13,0,0,2.58-20.84-7-25.05a23.71,23.71,0,0,0-5.77,8.17c-3.69,8.72-.79,16.89,0,19a31.18,31.18,0,0,1-21.07-20,29.47,29.47,0,0,1-4.92,5.62A31.38,31.38,0,0,1,63.2,70.52a84.83,84.83,0,0,1-9.13,26.69A85.38,85.38,0,0,1,29.94,125Z"/><path class="cls-17" d="M195,111.82c2,2,5.65,2.05,8,.88a6.76,6.76,0,0,0,1.27-.82c3.08-2.52,2.65-6.73.35-9.8-4.13-5.5-13-5.55-14.3-5.49A26.84,26.84,0,0,0,183,98.17a19.06,19.06,0,0,0-3.45,1.61,12.52,12.52,0,0,0-2.1,1.54c-.87.81-2.51,2.6-2.11,3.23s1.54-.09,3.33-.3c2.49-.29,4.38.32,6.85,1.12a17.46,17.46,0,0,1,7.16,3.86C194.17,110.67,194,110.76,195,111.82Z"/><path class="cls-18" d="M194.43,111.17a6,6,0,0,0,5-1.38c1.87-1.68,1.67-4.77.54-6.46-1.89-2.83-6.9-2.45-10.79-2.15a38.83,38.83,0,0,0-4.45.66,22,22,0,0,0-3.27.89c-.95.36-1.86.78-1.86.78-1,.48-1.13.61-1.77.84-.8.29-2.19.63-2.46.2-.11-.19,0-.52.07-.72a2,2,0,0,1,.33-.58c.5-.63.75-1,.91-1.11a11.16,11.16,0,0,1,1.19-1.16,14.65,14.65,0,0,1,1.71-1.2,25.42,25.42,0,0,1,5.7-2.18,33.21,33.21,0,0,1,5.1-1c.44,0,9.95-.3,14.3,5.49,2.3,3.07,2.73,7.28-.35,9.8a6.76,6.76,0,0,1-1.27.82c-2.34,1.17-6,1.08-8-.88A7.45,7.45,0,0,1,194.43,111.17Z"/><path class="cls-2" d="M197.48,108.82c1.55-2.68.21-6-3.85-6.63a.4.4,0,1,1,.11-.8c4.37.58,7.23,4.91,4.64,7.89C198,109.71,197.19,109.3,197.48,108.82Z"/><path class="cls-17" d="M194.81,136c.14,2.76,2.82,5.31,5.34,6a6,6,0,0,0,1.49.25c4,.2,6.48-3.21,6.84-7,.63-6.85-5.88-12.82-6.9-13.67a26.32,26.32,0,0,0-6.51-3.77,17.46,17.46,0,0,0-3.64-1.12,12.06,12.06,0,0,0-2.59-.28c-1.18,0-3.6.24-3.73,1-.09.56,1.2,1,2.67,2,2,1.46,3,3.18,4.32,5.43a17.58,17.58,0,0,1,2.71,7.67C195,134.53,194.74,134.45,194.81,136Z"/><path class="cls-18" d="M194.81,135.07a6,6,0,0,0,4.6,2.32c2.52,0,4.44-2.42,4.74-4.43.51-3.37-3.46-6.45-6.55-8.85a39.67,39.67,0,0,0-3.74-2.49,23.14,23.14,0,0,0-3-1.54c-.95-.38-1.91-.67-1.91-.67-1.09-.34-1.25-.31-1.87-.57-.79-.33-2.06-1-2-1.5,0-.22.35-.39.54-.49a1.56,1.56,0,0,1,.63-.2c.8-.14,1.2-.21,1.42-.23a13.24,13.24,0,0,1,1.66,0,12.27,12.27,0,0,1,2.07.27,25.35,25.35,0,0,1,5.69,2.2,35.34,35.34,0,0,1,4.46,2.69c.35.26,7.57,6.45,6.9,13.67-.36,3.81-2.87,7.22-6.84,7a6,6,0,0,1-1.49-.25c-2.52-.7-5.2-3.25-5.34-6C194.8,135.66,194.8,135.37,194.81,135.07Z"/><path class="cls-2" d="M198.65,135.38c2.95-.94,4.2-4.32,1.6-7.5a.4.4,0,1,1,.61-.52c2.86,3.37,2.06,8.5-1.86,9C198.43,136.39,198.11,135.54,198.65,135.38Z"/><path class="cls-17" d="M218.57,138.52c.14,2.76,2.81,5.31,5.33,6a6.72,6.72,0,0,0,1.5.25c4,.2,6.48-3.21,6.83-7,.64-6.85-5.87-12.82-6.9-13.67a26.62,26.62,0,0,0-6.5-3.78,18,18,0,0,0-3.64-1.11,12.06,12.06,0,0,0-2.59-.28c-1.19,0-3.61.24-3.73,1-.1.56,1.2,1,2.66,2,2.05,1.46,3,3.18,4.32,5.43a17.33,17.33,0,0,1,2.71,7.67C218.71,137.09,218.49,137,218.57,138.52Z"/><path class="cls-18" d="M218.56,137.63a6,6,0,0,0,4.6,2.31c2.52,0,4.45-2.41,4.75-4.42.5-3.37-3.47-6.45-6.55-8.85a39.67,39.67,0,0,0-3.74-2.49,22.33,22.33,0,0,0-3-1.54c-.95-.38-1.9-.67-1.9-.67-1.1-.35-1.25-.31-1.88-.57-.79-.33-2-1-1.95-1.5,0-.22.34-.39.53-.49a1.89,1.89,0,0,1,.64-.21c.79-.13,1.19-.2,1.41-.22a13.32,13.32,0,0,1,1.66,0,12.21,12.21,0,0,1,2.08.27,25.56,25.56,0,0,1,5.69,2.2,33.5,33.5,0,0,1,4.45,2.69c.35.26,7.57,6.45,6.9,13.67-.35,3.81-2.86,7.22-6.83,7a6.72,6.72,0,0,1-1.5-.25c-2.52-.7-5.19-3.25-5.33-6A8.81,8.81,0,0,1,218.56,137.63Z"/><path class="cls-2" d="M222.4,137.94c2.95-.94,4.2-4.32,1.6-7.5a.41.41,0,1,1,.62-.52c2.85,3.37,2.06,8.5-1.86,9C222.19,139,221.87,138.1,222.4,137.94Z"/><path class="cls-17" d="M50.18,114c-2,2-5.65,2-8,.88a6.76,6.76,0,0,1-1.27-.82c-3.08-2.53-2.65-6.74-.35-9.8,4.13-5.5,13-5.55,14.3-5.49a26.84,26.84,0,0,1,7.35,1.58A19.06,19.06,0,0,1,65.67,102a12.52,12.52,0,0,1,2.1,1.54c.87.8,2.51,2.6,2.11,3.23-.31.48-1.54-.09-3.33-.3-2.49-.3-4.38.32-6.85,1.12a17.46,17.46,0,0,0-7.16,3.86C51,112.85,51.25,112.94,50.18,114Z"/><path class="cls-18" d="M50.78,113.35a6,6,0,0,1-5-1.38c-1.87-1.69-1.67-4.77-.54-6.47,1.89-2.82,6.9-2.44,10.79-2.14a38.83,38.83,0,0,1,4.45.66,22,22,0,0,1,3.27.89c.95.36,1.86.78,1.86.78,1,.48,1.13.61,1.77.84.8.29,2.19.63,2.46.2.11-.19,0-.52-.07-.72a1.89,1.89,0,0,0-.33-.58c-.5-.64-.75-1-.91-1.12a11.24,11.24,0,0,0-1.19-1.15,13.42,13.42,0,0,0-1.71-1.2A26.15,26.15,0,0,0,60,99.77a34.59,34.59,0,0,0-5.1-1c-.44,0-9.95-.3-14.3,5.49-2.3,3.06-2.73,7.27.35,9.8a6.76,6.76,0,0,0,1.27.82c2.34,1.16,6,1.08,8-.88C50.39,113.79,50.59,113.58,50.78,113.35Z"/><path class="cls-2" d="M47.73,111c-1.55-2.68-.21-6,3.85-6.63a.4.4,0,1,0-.11-.8c-4.37.58-7.23,4.91-4.64,7.89C47.21,111.89,48,111.48,47.73,111Z"/><path class="cls-17" d="M50.4,138.14c-.14,2.76-2.82,5.3-5.34,6a7.14,7.14,0,0,1-1.49.25c-4,.2-6.48-3.21-6.84-7-.63-6.85,5.88-12.83,6.9-13.67a26.81,26.81,0,0,1,6.51-3.78,18.75,18.75,0,0,1,3.64-1.12,12.85,12.85,0,0,1,2.59-.27c1.18,0,3.6.24,3.73,1,.09.56-1.2,1-2.67,2-2,1.46-3,3.18-4.32,5.43a17.58,17.58,0,0,0-2.71,7.67C50.25,136.71,50.47,136.63,50.4,138.14Z"/><path class="cls-18" d="M50.4,137.25a6,6,0,0,1-4.6,2.31c-2.52,0-4.44-2.41-4.74-4.43-.51-3.36,3.46-6.44,6.55-8.84a37.71,37.71,0,0,1,3.74-2.49,23.14,23.14,0,0,1,3-1.54c1-.38,1.91-.68,1.91-.67,1.09-.35,1.25-.31,1.87-.57.79-.33,2.06-1,2-1.5,0-.22-.35-.39-.54-.49a1.78,1.78,0,0,0-.63-.21c-.8-.13-1.2-.2-1.42-.22a13.24,13.24,0,0,0-1.66,0,12.91,12.91,0,0,0-2.07.26A25.22,25.22,0,0,0,48.09,121a33.1,33.1,0,0,0-4.46,2.69c-.35.26-7.57,6.45-6.9,13.67.36,3.81,2.87,7.22,6.84,7a7.14,7.14,0,0,0,1.49-.25c2.52-.71,5.2-3.25,5.34-6C50.41,137.84,50.41,137.55,50.4,137.25Z"/><path class="cls-2" d="M46.56,137.55c-3-.93-4.2-4.31-1.6-7.49a.4.4,0,1,0-.61-.52c-2.86,3.37-2.06,8.5,1.86,9C46.78,138.57,47.1,137.72,46.56,137.55Z"/><path class="cls-17" d="M26.64,140.7c-.14,2.76-2.81,5.3-5.33,6a7.34,7.34,0,0,1-1.5.25c-4,.2-6.48-3.21-6.83-7-.64-6.85,5.87-12.83,6.9-13.68a26.82,26.82,0,0,1,6.5-3.77A18.75,18.75,0,0,1,30,121.37a12.16,12.16,0,0,1,2.59-.27c1.19,0,3.61.24,3.73,1,.1.56-1.2,1-2.66,2-2.05,1.46-3,3.18-4.32,5.43a17.33,17.33,0,0,0-2.71,7.67C26.5,139.26,26.72,139.19,26.64,140.7Z"/><path class="cls-18" d="M26.65,139.81a6,6,0,0,1-4.6,2.31c-2.52,0-4.45-2.41-4.75-4.43-.5-3.36,3.47-6.44,6.55-8.84a37.71,37.71,0,0,1,3.74-2.49,22.33,22.33,0,0,1,3-1.54c.95-.38,1.9-.68,1.9-.68,1.1-.34,1.25-.3,1.88-.56.79-.33,2-1,2-1.5,0-.22-.34-.39-.53-.49a1.89,1.89,0,0,0-.64-.21c-.79-.13-1.19-.2-1.41-.22a13.32,13.32,0,0,0-1.66,0,12.85,12.85,0,0,0-2.08.26,25.43,25.43,0,0,0-5.69,2.21,33.3,33.3,0,0,0-4.45,2.68c-.35.27-7.57,6.46-6.9,13.68.35,3.81,2.86,7.22,6.83,7a7.34,7.34,0,0,0,1.5-.25c2.52-.71,5.19-3.25,5.33-6A8.84,8.84,0,0,0,26.65,139.81Z"/><path class="cls-2" d="M22.81,140.11c-2.95-.93-4.2-4.31-1.6-7.49a.41.41,0,1,0-.62-.52c-2.85,3.37-2.06,8.49,1.86,9C23,141.13,23.34,140.28,22.81,140.11Z"/></g></g></g></svg>