<svg xmlns="http://www.w3.org/2000/svg" viewBox="0 0 226.75 183.72"><defs><style>.cls-1,.cls-3,.cls-5{fill:#fff;}.cls-2{fill:#cbcbcb;}.cls-11,.cls-2,.cls-3,.cls-4,.cls-7{stroke:#394e72;stroke-miterlimit:10;}.cls-2,.cls-7{stroke-width:4px;}.cls-3{stroke-width:2px;}.cls-10,.cls-4{fill:#01cade;}.cls-5{opacity:0.29;}.cls-6{fill:#0d0c38;opacity:0.13;}.cls-11,.cls-7{fill:none;}.cls-8{fill:#ff748d;}.cls-9{fill:#036d72;opacity:0.33;}</style></defs><g id="Capa_2" data-name="Capa 2"><g id="Apps1"><g id="MEDICINA"><path class="cls-1" d="M225.05,55.34a41.84,41.84,0,0,0-20.11-25.19c-.76-.42-1.55-.82-2.5-1.26l-.59-.27c-.85-.38-1.64-.7-2.4-1l-.12-.05c-.91-.33-1.85-.64-2.85-.94l-.08,0a42.27,42.27,0,0,0-48.71,20.14l-7.08,12.86V52.08a22.45,22.45,0,0,0,9.53-18.38V22.5A22.52,22.52,0,0,0,127.64,0H22.5A22.52,22.52,0,0,0,0,22.5V33.7A22.42,22.42,0,0,0,10.89,53v102.8a21.61,21.61,0,0,0,21.59,21.59H119a20.9,20.9,0,0,0,2.09-.11c.71.45,1.43.88,2.15,1.27a42,42,0,0,0,20.2,5.19h0a42.33,42.33,0,0,0,34.44-17.66l.15-.21c.36-.52.72-1.06,1.07-1.61l.22-.34c.41-.65.79-1.3,1.17-2l41-74.54A41.8,41.8,0,0,0,225.05,55.34Z"/><g id="frasco"><rect class="cls-2" x="17.89" y="23.34" width="115.72" height="147.03" rx="14.59"/><rect class="cls-3" x="26.74" y="30.82" width="96.66" height="129.33" rx="12"/></g><g id="tapa"><rect class="cls-4" x="7" y="7" width="136.14" height="42.2" rx="15.5"/><path class="cls-5" d="M9.72,34.23h0a21.16,21.16,0,0,1,21.1-21.1h93.94a21.14,21.14,0,0,1,17.32,9.09A21.19,21.19,0,0,0,122,7.68H28.1A21.17,21.17,0,0,0,7,28.78H7a21,21,0,0,0,3.79,12A20.69,20.69,0,0,1,9.72,34.23Z"/><path class="cls-6" d="M131,8.35a21,21,0,0,1,4,12.26h0a21.17,21.17,0,0,1-21.1,21.11H19.93a20.84,20.84,0,0,1-8.95-2A21.08,21.08,0,0,0,28.1,48.52H122a21.16,21.16,0,0,0,21.1-21.1h0A21.16,21.16,0,0,0,131,8.35Z"/><rect class="cls-7" x="7" y="7" width="136.14" height="42.2" rx="15.5"/><ellipse class="cls-1" cx="18.76" cy="19.44" rx="6.81" ry="4.07" transform="translate(-8.25 18.96) rotate(-45)"/></g><g id="PASTILLAS_DENTRO" data-name="PASTILLAS DENTRO"><g id="PASTILLA"><path class="cls-8" d="M47.16,95.49a12.85,12.85,0,0,0-6.95,2.05h0a14.07,14.07,0,0,0-2.42,2l-.08.09c-.31.34-.61.7-.88,1.06l-.14.19a11.86,11.86,0,0,0-.78,1.21.21.21,0,0,0,0,.06,13.68,13.68,0,0,0-.67,1.39c0,.07-.05.15-.08.22-.15.38-.28.77-.4,1.17,0,.15-.07.29-.11.44a9.37,9.37,0,0,0-.21,1.08c0,.14,0,.29-.07.44a12.82,12.82,0,0,0-.1,1.53v12.26H60.09V108.42A13,13,0,0,0,47.16,95.49Z"/><path class="cls-9" d="M39,115.91V103a12.9,12.9,0,0,1,1.22-5.44h0a14.07,14.07,0,0,0-2.42,2l-.08.09c-.31.34-.61.7-.88,1.06l-.14.19a11.86,11.86,0,0,0-.78,1.21.21.21,0,0,0,0,.06,13.68,13.68,0,0,0-.67,1.39c0,.07-.05.15-.08.22-.15.38-.28.77-.4,1.17,0,.15-.07.29-.11.44a9.37,9.37,0,0,0-.21,1.08c0,.14,0,.29-.07.44a12.82,12.82,0,0,0-.1,1.53v12.26H39Z"/><path class="cls-10" d="M39,120.68H34.23v19.06a13,13,0,0,0,12.93,12.93,11.93,11.93,0,0,0,1.7-.13l.43-.06a14.46,14.46,0,0,0,1.48-.34l.14,0a12.44,12.44,0,0,0,1.57-.61l.27-.13a14.05,14.05,0,0,0,1.37-.76l.08-.05a13.19,13.19,0,0,0,1.4-1.06l.06-.05a13.3,13.3,0,0,0,1.24-1.25h0a13.06,13.06,0,0,0,1-1.32c.05-.07.1-.14.14-.21a13.5,13.5,0,0,0,.83-1.49h0a12.67,12.67,0,0,0,1.22-5.43V120.68Z"/><path class="cls-9" d="M51.93,147.22A13,13,0,0,1,39,134.29V120.68H34.23v19.06a13,13,0,0,0,12.93,12.93,11.93,11.93,0,0,0,1.7-.13l.43-.06a14.46,14.46,0,0,0,1.48-.34l.14,0a12.44,12.44,0,0,0,1.57-.61l.27-.13a14.05,14.05,0,0,0,1.37-.76l.08-.05a13.19,13.19,0,0,0,1.4-1.06l.06-.05a13.3,13.3,0,0,0,1.24-1.25h0a12.93,12.93,0,0,0,2-3A12.81,12.81,0,0,1,51.93,147.22Z"/><path id="CONTORNO" class="cls-11" d="M47.16,95.49a13,13,0,0,0-12.93,12.93v31.32a12.93,12.93,0,0,0,25.86,0V108.42A13,13,0,0,0,47.16,95.49Z"/><ellipse class="cls-1" cx="53.02" cy="102.37" rx="2.04" ry="3.42" transform="translate(-48 46.81) rotate(-33.81)"/></g><g id="PASTILLA-2" data-name="PASTILLA"><path class="cls-8" d="M72.32,147.43a12.88,12.88,0,0,0,6.2,3.75h0a13.64,13.64,0,0,0,3.11.44h.12q.69,0,1.38-.06l.24,0a13.8,13.8,0,0,0,1.41-.23l.08,0a11.24,11.24,0,0,0,1.47-.44l.22-.09c.38-.14.76-.31,1.13-.49l.4-.22c.32-.17.63-.36.94-.56l.37-.25a12.31,12.31,0,0,0,1.2-1L99.65,140l-3.21-3.52L82.22,120.9l-9,8.26A13,13,0,0,0,72.32,147.43Z"/><path class="cls-9" d="M92.92,139.7l-9.56,8.72a12.79,12.79,0,0,1-4.84,2.76h0a13.64,13.64,0,0,0,3.11.44h.12q.69,0,1.38-.06l.24,0a13.8,13.8,0,0,0,1.41-.23l.08,0a11.24,11.24,0,0,0,1.47-.44l.22-.09c.38-.14.76-.31,1.13-.49l.4-.22c.32-.17.63-.36.94-.56l.37-.25a12.31,12.31,0,0,0,1.2-1L99.65,140l-3.21-3.52Z"/><path class="cls-10" d="M96.44,136.49,99.65,140l.5-.46,13.58-12.38a13,13,0,0,0,.84-18.27,12.38,12.38,0,0,0-1.24-1.17,3.92,3.92,0,0,0-.33-.27,11.66,11.66,0,0,0-1.25-.87l-.12-.08a13.2,13.2,0,0,0-1.5-.76l-.28-.11a15.32,15.32,0,0,0-1.49-.5l-.09,0a12.83,12.83,0,0,0-1.73-.32h-.07a14.81,14.81,0,0,0-1.76-.08h0a11.52,11.52,0,0,0-1.65.16l-.25,0a16,16,0,0,0-1.66.39h0a12.73,12.73,0,0,0-4.84,2.76L82.72,120.44l-.5.46Z"/><path class="cls-9" d="M107.34,109.05a13,13,0,0,1-.84,18.27l-10.06,9.17L99.65,140l.5-.46,13.58-12.38a13,13,0,0,0,.84-18.27,12.38,12.38,0,0,0-1.24-1.17,3.92,3.92,0,0,0-.33-.27,11.66,11.66,0,0,0-1.25-.87l-.12-.08a13.2,13.2,0,0,0-1.5-.76l-.28-.11a15.32,15.32,0,0,0-1.49-.5l-.09,0a12.83,12.83,0,0,0-1.73-.32h-.07a14.81,14.81,0,0,0-1.76-.08h0a12.83,12.83,0,0,0-3.57.59A12.75,12.75,0,0,1,107.34,109.05Z"/><path id="CONTORNO-2" data-name="CONTORNO" class="cls-11" d="M72.32,147.43a13,13,0,0,0,18.27.84l9.56-8.72,13.58-12.38A12.93,12.93,0,0,0,96.3,108.06L82.72,120.44l-9.55,8.72A13,13,0,0,0,72.32,147.43Z"/><ellipse class="cls-1" cx="73.47" cy="138.46" rx="3.42" ry="2.04" transform="translate(-78.54 176.7) rotate(-76.17)"/></g><g id="PASTILLA-3" data-name="PASTILLA"><path class="cls-8" d="M69.82,115.89a8.13,8.13,0,0,0,4.35,1.36h0a8.61,8.61,0,0,0,2-.2l.07,0a7.44,7.44,0,0,0,.84-.25l.14,0a8.58,8.58,0,0,0,.83-.35l0,0a8.77,8.77,0,0,0,.84-.49l.12-.09c.21-.15.41-.31.61-.48l.22-.19c.16-.15.33-.31.48-.48l.2-.21a9.11,9.11,0,0,0,.58-.77l4.3-6.41-2.5-1.66-11-7.39-4.29,6.4A8.17,8.17,0,0,0,69.82,115.89Z"/><path class="cls-9" d="M81.25,108.07l-4.53,6.76a8,8,0,0,1-2.55,2.42h0a8.61,8.61,0,0,0,2-.2l.07,0a7.44,7.44,0,0,0,.84-.25l.14,0a8.58,8.58,0,0,0,.83-.35l0,0a8.77,8.77,0,0,0,.84-.49l.12-.09c.21-.15.41-.31.61-.48l.22-.19c.16-.15.33-.31.48-.48l.2-.21a9.11,9.11,0,0,0,.58-.77l4.3-6.41-2.5-1.66Z"/><path class="cls-10" d="M82.91,105.58l2.5,1.66.23-.35,6.44-9.61A8.17,8.17,0,0,0,89.85,86a6.8,6.8,0,0,0-.94-.53l-.25-.12a7.26,7.26,0,0,0-.88-.34l-.09,0a7.67,7.67,0,0,0-1-.24l-.19,0a6.58,6.58,0,0,0-1-.08h-.07a8.13,8.13,0,0,0-1.1.07h0a8.27,8.27,0,0,0-1.08.22h0a8.25,8.25,0,0,0-1,.34l-.15.06c-.32.15-.64.31-1,.49h0a7.91,7.91,0,0,0-2.55,2.41l-6.43,9.61-.24.36Z"/><path class="cls-9" d="M85.45,87.16a8.17,8.17,0,0,1,2.23,11.3l-4.77,7.12,2.5,1.66.23-.35,6.44-9.61A8.17,8.17,0,0,0,89.85,86a6.8,6.8,0,0,0-.94-.53l-.25-.12a7.26,7.26,0,0,0-.88-.34l-.09,0a7.67,7.67,0,0,0-1-.24l-.19,0a6.58,6.58,0,0,0-1-.08h-.07a8.13,8.13,0,0,0-1.1.07h0a8.27,8.27,0,0,0-1.08.22h0a8.38,8.38,0,0,0-2.09.89A8.13,8.13,0,0,1,85.45,87.16Z"/><path id="CONTORNO-3" data-name="CONTORNO" class="cls-11" d="M69.82,115.89a8.16,8.16,0,0,0,11.29-2.24l4.53-6.76,6.44-9.61a8.14,8.14,0,0,0-13.53-9.06l-6.43,9.61-4.53,6.76A8.17,8.17,0,0,0,69.82,115.89Z"/><ellipse class="cls-1" cx="69.17" cy="110.23" rx="1.29" ry="2.15"/></g><g id="PASTILLA-4" data-name="PASTILLA"><path class="cls-8" d="M33.55,68.26a12.82,12.82,0,0,0,2.05,6.95h0a12.94,12.94,0,0,0,2,2.42l.09.08c.34.31.69.61,1.06.89l.19.14q.59.42,1.2.78l.07,0a11.64,11.64,0,0,0,1.38.66l.23.09A11.46,11.46,0,0,0,43,80.7l.44.11c.35.09.71.16,1.07.22l.45.07a12.82,12.82,0,0,0,1.53.1H58.73V55.33H46.48A13,13,0,0,0,33.55,68.26Z"/><path class="cls-9" d="M54,76.43H41a12.85,12.85,0,0,1-5.43-1.22h0a12.94,12.94,0,0,0,2,2.42l.09.08c.34.31.69.61,1.06.89l.19.14q.59.42,1.2.78l.07,0a11.64,11.64,0,0,0,1.38.66l.23.09A11.46,11.46,0,0,0,43,80.7l.44.11c.35.09.71.16,1.07.22l.45.07a12.82,12.82,0,0,0,1.53.1H58.73V76.43Z"/><path class="cls-10" d="M58.73,76.43V81.2H77.79A13,13,0,0,0,90.73,68.26a13.6,13.6,0,0,0-.13-1.7c0-.14,0-.28-.07-.43a12,12,0,0,0-.33-1.47.83.83,0,0,0,0-.15,12.39,12.39,0,0,0-.6-1.57l-.13-.27a14.05,14.05,0,0,0-.76-1.37.22.22,0,0,1,0-.08,14.69,14.69,0,0,0-1.06-1.4l-.06-.06a13.19,13.19,0,0,0-1.24-1.24h0a13.2,13.2,0,0,0-1.33-1l-.21-.14a13.29,13.29,0,0,0-1.48-.82h0a12.75,12.75,0,0,0-5.44-1.22H58.73Z"/><path class="cls-9" d="M85.28,63.5A13,13,0,0,1,72.35,76.43H58.73V81.2H77.79A13,13,0,0,0,90.73,68.26a13.6,13.6,0,0,0-.13-1.7c0-.14,0-.28-.07-.43a12,12,0,0,0-.33-1.47.83.83,0,0,0,0-.15,12.39,12.39,0,0,0-.6-1.57l-.13-.27a14.05,14.05,0,0,0-.76-1.37.22.22,0,0,1,0-.08,14.69,14.69,0,0,0-1.06-1.4l-.06-.06a13.19,13.19,0,0,0-1.24-1.24h0a13.26,13.26,0,0,0-3-2A12.82,12.82,0,0,1,85.28,63.5Z"/><path id="CONTORNO-4" data-name="CONTORNO" class="cls-11" d="M33.55,68.26A13,13,0,0,0,46.48,81.2H77.79a12.94,12.94,0,1,0,0-25.87H46.48A13,13,0,0,0,33.55,68.26Z"/><ellipse class="cls-1" cx="40.43" cy="62.41" rx="3.42" ry="2.04" transform="translate(-27.89 33.05) rotate(-33.81)"/></g></g><g id="PASTILLA-5" data-name="PASTILLA"><path class="cls-8" d="M201.56,36.28a34.89,34.89,0,0,0-19.23-4.21h0a35.58,35.58,0,0,0-8.38,1.6l-.31.1a33.84,33.84,0,0,0-3.5,1.37l-.58.26a34.47,34.47,0,0,0-3.44,1.85l-.18.1a33.32,33.32,0,0,0-3.4,2.42c-.17.13-.33.29-.49.42-.86.72-1.68,1.48-2.47,2.28-.29.29-.57.59-.85.89-.67.73-1.31,1.49-1.92,2.29-.25.32-.5.63-.74,1a34.5,34.5,0,0,0-2.25,3.52L137.76,79.3l11.35,6.24,50.24,27.63L215.4,84A35.23,35.23,0,0,0,201.56,36.28Z"/><path class="cls-9" d="M155.35,74.2l17-30.79a34.7,34.7,0,0,1,10-11.34h0a35.58,35.58,0,0,0-8.38,1.6l-.31.1a33.84,33.84,0,0,0-3.5,1.37l-.58.26a34.47,34.47,0,0,0-3.44,1.85l-.18.1a33.32,33.32,0,0,0-3.4,2.42c-.17.13-.33.29-.49.42-.86.72-1.68,1.48-2.47,2.28-.29.29-.57.59-.85.89-.67.73-1.31,1.49-1.92,2.29-.25.32-.5.63-.74,1a34.5,34.5,0,0,0-2.25,3.52L137.76,79.3l11.35,6.24Z"/><path class="cls-10" d="M149.11,85.54,137.76,79.3l-.89,1.62-24.08,43.75a34.81,34.81,0,0,0,18.06,49.65c.36.15.73.28,1.1.41a35.56,35.56,0,0,0,4,1.14l.39.1a34.81,34.81,0,0,0,4.52.62l.82,0a33.63,33.63,0,0,0,4.26,0h.27a37.12,37.12,0,0,0,4.71-.69l.21,0a36.89,36.89,0,0,0,4.58-1.34h0a35.22,35.22,0,0,0,4.12-1.84l.61-.32a36,36,0,0,0,3.91-2.45l0,0h0a34.6,34.6,0,0,0,10-11.34l24.09-43.76.89-1.62Z"/><path class="cls-9" d="M145.11,165.67A35.23,35.23,0,0,1,131.27,118l17.84-32.41L137.76,79.3l-.89,1.62-24.08,43.75a34.81,34.81,0,0,0,18.06,49.65c.36.15.73.28,1.1.41a35.56,35.56,0,0,0,4,1.14l.39.1a34.81,34.81,0,0,0,4.52.62l.82,0a33.63,33.63,0,0,0,4.26,0h.27a37.12,37.12,0,0,0,4.71-.69l.21,0a36.89,36.89,0,0,0,4.58-1.34h0a35.49,35.49,0,0,0,8.67-4.63A34.83,34.83,0,0,1,145.11,165.67Z"/><path id="CONTORNO-5" data-name="CONTORNO" class="cls-7" d="M201.56,36.28a35.27,35.27,0,0,0-47.74,13.85L136.87,80.92l-24.08,43.75a35.14,35.14,0,1,0,61.58,33.88l24.09-43.76L215.4,84A35.23,35.23,0,0,0,201.56,36.28Z"/><ellipse class="cls-1" cx="206.48" cy="60.34" rx="5.55" ry="9.3" transform="translate(-4.45 18.13) rotate(-4.97)"/></g></g></g></g></svg>