<svg xmlns="http://www.w3.org/2000/svg" viewBox="0 0 214.54 199.49"><defs><style>.cls-1{fill:#fff;}.cls-2,.cls-4{fill:#ffff2e;}.cls-2,.cls-3,.cls-4{stroke:#394e72;stroke-miterlimit:10;}.cls-2,.cls-3{stroke-width:0.5px;}.cls-3{fill:#dbd62a;}.cls-5{fill:#004b7f;}</style></defs><g id="Capa_2" data-name="Capa 2"><g id="Apps1"><g id="NOTAS"><path class="cls-1" d="M108.77,199.49c-24.2,0-46.42-6.4-64.28-11.53-11.22-3.23-20.9-6-27.18-6-.54,0-1,0-1.52.06l-.18,0c-.73.07-2.24.21-3.9.21-5.78,0-9.5-1.93-11.07-5.74s-.2-8,4.17-12.15c4.6-4.4,14.1-30.15,21-61.55a404.11,404.11,0,0,0,9.06-77.25,6.92,6.92,0,0,1,2-4.74L55.66,2a6.91,6.91,0,0,1,4.89-2,6.33,6.33,0,0,1,1,.07L208.6,20.91a6.92,6.92,0,0,1,5.75,8.48v130a6.9,6.9,0,0,1-2,4.89L192.63,184a6.91,6.91,0,0,1-4.89,2,7.56,7.56,0,0,1-1.06-.08l-27.8-4.33q-1.44,3.28-2.9,6.44a6.91,6.91,0,0,1-3.8,3.56,118.37,118.37,0,0,1-20.38,5.83A125.25,125.25,0,0,1,108.77,199.49Z"/><polygon class="cls-2" points="41.57 25.7 60.36 6.92 207.43 27.76 187.55 47.65 41.57 25.7"/><polygon class="cls-2" points="187.55 47.65 187.55 179.06 207.24 159.37 207.24 27.76 187.55 47.65"/><path class="cls-3" d="M187.55,179.06l-146-22.73V25.7l146,22Z"/><path class="cls-4" d="M149.51,185.11a110.6,110.6,0,0,1-19.18,5.49C81.1,199.88,35.21,173.26,15,175.12c-1.31.12-7.28.8-8.12-1.24-.65-1.59,2.08-4.08,2.6-4.58,7-6.66,16.94-37.82,22.91-65A410.25,410.25,0,0,0,41.57,25.7L182.12,46.83l5.43.82a443.72,443.72,0,0,1-16,79.11A443,443,0,0,1,149.51,185.11Z"/><path class="cls-5" d="M82,61.62c-.16,1.1-.44,2.74-.85,4.93s-.69,3.84-.85,5L78.93,81q-.06.39-.48.33l-1.07-.12-1.06-.12c-.26,0-.64-.11-1.14-.22s-.88-.18-1.14-.22-.36-.21-.56-.56c-.57-1-1.85-3.33-3.86-6.88q-.81-1.48-2.51-4.39a.69.69,0,0,0-.19-.2.38.38,0,0,0-.17.3c-.16,1.12-.37,2.8-.62,5s-.47,3.93-.63,5.05c0,.34-.2.49-.47.45L60,78.78q-.42-.06-.36-.51c.15-1,.42-2.6.83-4.69s.68-3.65.83-4.7.35-2.78.57-5,.42-3.88.57-5c0-.21.24-.29.62-.23.57.07,1.27.13,2.11.17.2,0,.6,0,1.19,0a8,8,0,0,1,1.18,0c.11,0,.27.2.47.56l4.41,8.15c.39.74,1,1.81,1.8,3.23.2.34.39.51.56.54s.25-.35.35-1.1c.15-1,.31-2.54.49-4.59s.34-3.59.49-4.61c.05-.36.18-.52.38-.49.59.08,1.48.18,2.67.29s2.08.22,2.66.3C82,61.16,82,61.32,82,61.62Z"/><path class="cls-5" d="M107.06,76.34a11.56,11.56,0,0,1-4.62,7.84,12.21,12.21,0,0,1-9.22,2.24,11.69,11.69,0,0,1-8.17-4.57,11.08,11.08,0,0,1-2.14-8.7,11.56,11.56,0,0,1,4.64-7.83A12.1,12.1,0,0,1,96.75,63a11.71,11.71,0,0,1,8.16,4.58A11.22,11.22,0,0,1,107.06,76.34Zm-6.41-.88a5.75,5.75,0,0,0-.94-4.24,5.28,5.28,0,0,0-3.85-2.28,5.43,5.43,0,0,0-4.32,1.27A5.9,5.9,0,0,0,89.33,74a5.65,5.65,0,0,0,.89,4.24,5.35,5.35,0,0,0,3.9,2.24,5.52,5.52,0,0,0,4.33-1.25A5.83,5.83,0,0,0,100.65,75.46Z"/><path class="cls-5" d="M127,72.69c0,.21-.17.29-.42.26-.42-.06-2.11-.36-5.06-.9q-.71,4-.94,5.53c-.19,1.23-.42,3.1-.69,5.59s-.5,4.37-.69,5.6q0,.3-.21.36a2,2,0,0,1-.49,0,25.17,25.17,0,0,1-3-.26,24.85,24.85,0,0,1-3-.53c-.31-.09-.44-.27-.4-.55.19-1.23.53-3.08,1-5.53s.82-4.31,1-5.54q.19-1.23.7-5.49c-2.29-.08-4.11-.21-5.45-.39-.18,0-.27-.09-.25-.19a8.43,8.43,0,0,1,.42-1.18c.3-.71.46-1.14.51-1.3.11-.48.22-1,.34-1.46.2-.77.4-1.15.59-1.12l.24.05A73.83,73.83,0,0,0,119.27,67q1.52.19,5.66.44l2.25.13a1,1,0,0,1,.38.09s0,.14,0,.32-.11.67-.21,1.17-.18.94-.22,1.17a8.57,8.57,0,0,0-.06,1.17A9.61,9.61,0,0,1,127,72.69Z"/><path class="cls-5" d="M144.3,89.26a22.06,22.06,0,0,1-.67,2.63,10.11,10.11,0,0,1-.9,2.45.64.64,0,0,1-.6.24,3,3,0,0,1-.5-.12q-1.22-.34-7.19-1.19l-3.88-.57-3.86-.56c-.37,0-.53-.24-.49-.57q.27-1.89,1-5.67t1-5.66q.27-1.93.81-7.23c.1-.91.22-2.27.39-4.07V68.7q0-.4.48-.33c.84.11,2.09.31,3.76.6s2.92.48,3.76.6,2.07.27,3.73.46,2.91.34,3.74.45c.58.09.89.35.92.81,0,.27,0,1.07-.07,2.4s-.12,2.14-.16,2.42a.31.31,0,0,1-.39.31l-.35-.07q-4.45-1-8-1.52c-.6-.08-1,0-1.16.27a5,5,0,0,0-.27,1.29,2.4,2.4,0,0,0,.12,1.57,1.41,1.41,0,0,0,1.06.48l.66.07.81.09c1.43.2,2.87.36,4.34.49l.94,0q.58,0,.93.06a.36.36,0,0,1,.35.45,22.72,22.72,0,0,0-.67,2.54c-.22.9-.39,1.79-.52,2.7,0,.22-.21.31-.54.26l-1.5-.38c-.63-.16-2.1-.4-4.39-.72l-1.79-.26c-.47-.06-.75,0-.86.23,0,0-.08.4-.17,1a5,5,0,0,0-.06,1.69c.13.45.81.81,2.06,1.06l2.47.35c.6.09,1.49.16,2.69.22s2.08.13,2.67.21C144.26,88.63,144.35,88.85,144.3,89.26Z"/></g></g></g></svg>