<svg xmlns="http://www.w3.org/2000/svg" viewBox="0 0 192 192"><defs><style>.cls-1{fill:none;stroke:#0d0c38;stroke-miterlimit:10;stroke-width:4px;}.cls-2{fill:#ab00cc;}.cls-3{fill:#ff55d6;}.cls-4{fill:#fdbbff;}.cls-5{fill:#240b61;}.cls-6{fill:#704fef;}.cls-7{fill:#25efef;}.cls-8{fill:#6fd36a;}.cls-9{fill:#1bab0a;}.cls-10{fill:#69ff08;}.cls-11{fill:#fccd7a;}.cls-12{fill:#fa0;}.cls-13{fill:#ff0;}</style></defs><g id="Capa_2" data-name="Capa 2"><g id="Capa_1-2" data-name="Capa 1"><g id="Numeros"><circle class="cls-1" cx="96" cy="96" r="94"/><g id="_2" data-name="2"><path class="cls-2" d="M81,142.73c-1.62.21-3,.2-8.27-.32-.75-.06-4.38-.19-15.61,1.27-2.52.33-6.49,1-11.78,2-5.86,1.09-10.15,1.81-13.12,2.2a14.74,14.74,0,0,1-16.39-11.09l0-.21c-.21-.92-.58-2.25-1.15-4-2.13-5.51-2.59-7.14-2.82-8.89-.5-3.84-.13-13.2,14.13-17,.63-.17,1.11-.31,1.48-.43,1.24-1.46,2.51-3.1,3.78-4.91a13.28,13.28,0,0,1-5.6,2.06c-7.26.95-15.78-3.53-17.36-15.6-.19-1.46-.33-2.21-.4-2.52s-.28-.64-.57-1.26a21,21,0,0,1-2.15-6.66,14.92,14.92,0,0,1,4.93-13A48.83,48.83,0,0,1,25.7,55.07a69.77,69.77,0,0,1,16-4.12c9.48-1.24,18-.05,25.42,3.53a30.62,30.62,0,0,1,17.6,24.38,37.13,37.13,0,0,1-2.65,18.56,15,15,0,0,1,10.67,12.87,51.13,51.13,0,0,1,.32,5.22c0,1.77.12,2.39.12,2.41.12.92.29,2.38.51,4.37.19,1.76.35,3.06.46,3.91C95.22,134.51,89.58,141.62,81,142.73Z"/><path class="cls-3" d="M80,135.18c-.78.1-1.66.13-6.54-.35-2-.17-6.66-.09-17.34,1.3-2.67.35-6.77,1-12.2,2.05-5.71,1.07-9.87,1.77-12.7,2.14a7.14,7.14,0,0,1-8-5.42c-.2-.87-.56-2.26-1.39-4.89-2.1-5.43-2.34-6.48-2.46-7.35-.8-6.17,6.23-8,8.53-8.65A19.26,19.26,0,0,0,32,112.59a84.43,84.43,0,0,0,8.87-12.08c5-8,4.8-10.49,4.79-10.59a2.92,2.92,0,0,0-1.33-2.24,3.8,3.8,0,0,0-2.92-.74,17.34,17.34,0,0,0-6.35,2.18,26.53,26.53,0,0,0-4.72,3.3c-2.71,2.26-3.85,3.16-5.7,3.4-1.25.16-7.57.5-8.81-9a24.66,24.66,0,0,0-.7-3.87,19.85,19.85,0,0,0-.92-2.14,14.19,14.19,0,0,1-1.51-4.42,7.26,7.26,0,0,1,2.54-6.42,41.32,41.32,0,0,1,13.22-7.75A61.89,61.89,0,0,1,42.67,58.5c8-1,15.09-.09,21.12,2.84A22.93,22.93,0,0,1,77.16,79.85c1,7.59-1.66,16.12-8.07,25.84q4.43-.7,7.79-1.14c4.23-.56,7.72,2.27,8.3,6.72.13,1.06.22,2.46.26,4.4a31.13,31.13,0,0,0,.18,3.23c.11.9.28,2.3.49,4.22s.36,3.18.47,4.06C87,130.67,84.94,134.54,80,135.18Z"/><path class="cls-4" d="M79.51,112c.11.83.18,2.1.22,3.79a37.94,37.94,0,0,0,.22,3.84q.18,1.31.48,4.11c.21,1.88.37,3.27.49,4.17s-.42,1.44-1.62,1.6a48.14,48.14,0,0,1-5.24-.37q-5.1-.45-18.64,1.32-4.19.54-12.5,2.1t-12.4,2.08a1.41,1.41,0,0,1-1.75-1.15q-.4-1.83-1.53-5.39a52.81,52.81,0,0,1-2.19-6.19c-.11-.79,1.34-1.59,4.33-2.39q5.23-1.4,6.6-2.85a88.19,88.19,0,0,0,9.74-13.16q6.18-9.87,5.6-14.33a8.66,8.66,0,0,0-3.65-6.14,9.52,9.52,0,0,0-7-1.77,23,23,0,0,0-8.42,2.87,31.5,31.5,0,0,0-5.63,3.94,18.77,18.77,0,0,1-2.71,2.07c-1.24.16-2-1.21-2.42-4.11a31.31,31.31,0,0,0-.91-4.86,23.93,23.93,0,0,0-1.2-2.83,10,10,0,0,1-1-2.75,1.8,1.8,0,0,1,.75-1.48A35.52,35.52,0,0,1,30.52,67.5a56.62,56.62,0,0,1,12.89-3.34q10.34-1.33,17.89,2.32a17.18,17.18,0,0,1,10.19,14.1q1.71,13.11-15.86,33.21,14-2.54,22-3.58Q79.26,110,79.51,112Z"/></g><g id="_1" data-name="1"><path class="cls-5" d="M86.75,105.51a13.58,13.58,0,0,1-9.89-4,13.09,13.09,0,0,1-3.63-9.64v-.34l.06-.67c.54-14.73.81-23.72.81-26.71V57.28c-5.79-1.46-9.83-6.64-9.83-13.17q0-1.95-.06-5.88-.06-4.12-.06-6.26A13.23,13.23,0,0,1,72.8,19.61a22.71,22.71,0,0,0,9.09-6.34c3.63-4.49,7.74-5.44,10.55-5.44a14.39,14.39,0,0,1,2.93.34c1.57.33,3.69.8,6.47,1.43,1.69.22,3.93.57,6.83,1.06l.64.11.62.18A12.57,12.57,0,0,1,119,23.2a19.32,19.32,0,0,1-.22,2.74c-.16,1.3-.55,6.33-.55,24q0,6.8.09,20.43T118.41,91a14.15,14.15,0,0,1-4.6,10.37,14.52,14.52,0,0,1-10,4c-1.86,0-4.67,0-8.41.06S88.67,105.51,86.75,105.51Z"/><path class="cls-6" d="M86.75,99.18a7.17,7.17,0,0,1-5.34-2.08,6.84,6.84,0,0,1-1.85-5v-.15l.06-.66c.55-14.9.82-24,.82-27.11V51a14.11,14.11,0,0,1-2.93.36c-4.07,0-6.9-3-6.9-7.26q0-2-.06-6T70.49,32a6.92,6.92,0,0,1,4.66-6.48A29.15,29.15,0,0,0,86.8,17.27c1.66-2,3.56-3.11,5.64-3.11a8.06,8.06,0,0,1,1.7.22c1.53.32,3.71.8,6.59,1.45,1.64.22,3.9.57,6.89,1.07l.28.05.28.08a6.21,6.21,0,0,1,4.49,6.17,15.37,15.37,0,0,1-.16,1.91c-.28,2.19-.61,8.33-.61,24.87q0,6.8.09,20.47T112.08,91a7.76,7.76,0,0,1-2.6,5.76,8.17,8.17,0,0,1-5.67,2.32c-1.88,0-4.71,0-8.47.06S88.66,99.18,86.75,99.18Z"/><path class="cls-7" d="M107,91a2.8,2.8,0,0,1-1,2.07,3.12,3.12,0,0,1-2.19,1c-1.9,0-4.74,0-8.54.06s-6.63.06-8.53.06c-1.46,0-2.17-.63-2.13-1.9l.06-.65q.82-22.63.83-27.43V46.54c0-1.1-.26-1.66-.77-1.66a14.27,14.27,0,0,0-3.59.71,13.81,13.81,0,0,1-3.64.71c-1.23,0-1.84-.73-1.84-2.19s0-3.35-.06-6-.06-4.72-.06-6.1c0-.79.5-1.39,1.48-1.78a34.07,34.07,0,0,0,13.69-9.72c.67-.83,1.25-1.24,1.72-1.24a6,6,0,0,1,.71.12c1.5.31,3.73.81,6.7,1.48q2.37.3,6.93,1.06a1.19,1.19,0,0,1,.83,1.31,11,11,0,0,1-.12,1.24q-.66,5.22-.65,25.54,0,6.81.09,20.5T107,91Z"/></g><g id="_3" data-name="3"><path class="cls-8" d="M139.91,140.45a74.12,74.12,0,0,1-15.35-2.87c-7.94-2.46-21.34-6.62-20.08-19.77a16.75,16.75,0,0,1,1.44-5.29l.16-.34c.57-1.17,1.3-2.67,2.23-4.62.45-1.34,1.07-3,1.88-5.17l.19-.52.23-.49a17.08,17.08,0,0,1,2.33-3.65,16.31,16.31,0,0,1,0-2.88,70.54,70.54,0,0,1,1.66-11,17.51,17.51,0,0,1-2.16-5.45l-.4-1.83.09-1.86q.09-2,.15-4.53c0-.15,0-.73-.06-1.56a31.93,31.93,0,0,1,.07-4.34c.63-6.6,4.9-14.76,21.64-16.09a77.73,77.73,0,0,1,13.66.07,43.37,43.37,0,0,1,21.65,7.85c9,6.45,13.43,15.74,12.44,26.16A30.65,30.65,0,0,1,178,94.35a28.94,28.94,0,0,1,3.36,16.91,30.51,30.51,0,0,1-16.63,24.85C157.62,139.88,149.27,141.34,139.91,140.45Z"/><path class="cls-9" d="M140.75,131.66a65.64,65.64,0,0,1-13.51-2.49c-8.5-2.64-14.51-4.94-14-10.52a7.74,7.74,0,0,1,.72-2.54l.09-.19c.55-1.14,1.37-2.82,2.43-5,.42-1.29,1.06-3.05,1.93-5.35l.08-.19.08-.19a7,7,0,0,1,5-4,6.75,6.75,0,0,1-1.88-5.4c.72-7.52,1.37-9.88,1.92-11.19a7.54,7.54,0,0,1,1.84-2.63c-1.49-.49-3.64-1.8-4.43-5.41l-.15-.69,0-.7c.06-1.38.12-3,.15-4.75,0-.3,0-1-.06-2.12a22.42,22.42,0,0,1,0-3.13c.68-7.1,10-7.85,13.56-8.13a69.82,69.82,0,0,1,12.11.05,34.7,34.7,0,0,1,17.32,6.23c8.16,5.84,9.3,13.1,8.82,18.16a20.47,20.47,0,0,1-5.84,12.85,21.13,21.13,0,0,1,2.69,3.57,20.22,20.22,0,0,1,2.77,12.62,21.64,21.64,0,0,1-11.94,17.87C155,131.25,148.35,132.39,140.75,131.66ZM132.1,103.8a18,18,0,0,0,5.32,1.72c3.14.3,4.47-.2,4.69-.4l0-.07a12.68,12.68,0,0,0-4.07-.89c-.78-.07-1.81-.14-3.09-.2S132.62,103.84,132.1,103.8Zm4.42-22.63c2.21.5,3.44.71,4.11.79v0a8.1,8.1,0,0,0-3.37-.83,10.24,10.24,0,0,0-1.33,0Z"/><path class="cls-10" d="M167.26,109.91a16.31,16.31,0,0,1-9.13,13.69q-7,3.74-16.88,2.78a60.07,60.07,0,0,1-12.4-2.26q-10.48-3.24-10.31-5a3.39,3.39,0,0,1,.29-.89q.89-1.8,2.61-5.42.59-1.84,2-5.44a1.62,1.62,0,0,1,1.64-1.12q-.15,0,4.38,2.11a24.1,24.1,0,0,0,7.51,2.4q9.93.94,10.56-5.68.51-5.33-8.91-6.22c-.85-.08-2-.15-3.35-.22s-2.31-.12-2.75-.16c-2.06-.2-3.19-.32-3.38-.38-1.47-.31-2.16-.95-2.07-1.93q.75-7.76,1.54-9.67a1.62,1.62,0,0,1,1.74-1.11,44.57,44.57,0,0,1,5,.92,42.57,42.57,0,0,0,5,.91,4.94,4.94,0,0,0,3.76-1.09,5,5,0,0,0,1.79-3.54q.57-6-8.14-6.81a35.47,35.47,0,0,0-10.06,1,2.42,2.42,0,0,1-.46,0c-.44,0-.77-.55-1-1.52.07-1.43.12-3.06.16-4.89,0-.41,0-1.23-.07-2.46a20.31,20.31,0,0,1,0-2.4q.27-2.69,8.71-3.36a64.06,64.06,0,0,1,11.18.05A29.41,29.41,0,0,1,161,67.51q7.41,5.31,6.64,13.36-.88,9.27-9.75,13.27a15.83,15.83,0,0,1,7.34,6.38A15,15,0,0,1,167.26,109.91Z"/></g><g id="_4" data-name="4"><path class="cls-11" d="M106.9,186c-17,0-18.55-.21-21.65-1.67a15,15,0,0,1-7.53-7.79c-2.24.05-4.08.08-5.47.08-11.24,0-17.12-8.24-17.12-16.38,0-.89,0-2.2,0-4,0-1.94-.05-3.4-.05-4.38a17.51,17.51,0,0,1,5.05-12.08,100.89,100.89,0,0,0,8.13-9.49c.18-.26,1.49-2.2,8.71-14.13.93-1.73,2.23-3.83,4-6.4l.36-.54.41-.5a15.38,15.38,0,0,1,11.84-5.71c2,0,4.06.32,10.26,2.11a40.19,40.19,0,0,0,4.13,1c8.31.25,14.51,6.8,14.51,15.42a60.07,60.07,0,0,1-.48,6.68,35.31,35.31,0,0,0-.3,3.62v6.51a14.52,14.52,0,0,1,6.54,12.34c0,.87,0,2-.13,3.55,0,.87-.09,1.53-.09,2,0,.22,0,.72.11,1.75.14,1.69.2,2.94.2,4a14.27,14.27,0,0,1-6.71,12.11A14.85,14.85,0,0,1,106.9,186Z"/><path class="cls-12" d="M106.9,178.43c-16.41,0-17-.26-18.42-1a7,7,0,0,1-4.26-6.42,13.26,13.26,0,0,1,.24-2.28l-3.28.09c-3.9.11-6.91.17-8.93.17-6.59,0-9.55-4.42-9.55-8.8,0-.91,0-2.27,0-4.08s0-3.31,0-4.26a10,10,0,0,1,3-6.9,109.66,109.66,0,0,0,8.78-10.27c.47-.66,2.28-3.46,9.13-14.79.81-1.52,2-3.46,3.65-5.9l.17-.24.18-.22a7.69,7.69,0,0,1,6-3c1,0,2.37.13,8.16,1.81a30.13,30.13,0,0,0,5.73,1.33c3.69,0,7.44,2.7,7.44,7.85a54.48,54.48,0,0,1-.43,5.82,41.19,41.19,0,0,0-.36,4.48v11.79a6.83,6.83,0,0,1,6.55,7.06c0,.69,0,1.72-.12,3.11-.07,1.06-.1,1.87-.1,2.43,0,.27,0,.94.13,2.37s.17,2.54.17,3.35a7,7,0,0,1-6,6.81l-.46.08c0,.77,0,1.41,0,1.92A7.34,7.34,0,0,1,106.9,178.43Z"/><path class="cls-13" d="M114.63,162c0,.43-.37.72-1.1.87a9.89,9.89,0,0,1-2.18,0c-1.31-.09-1.86-.13-1.66-.13a1.51,1.51,0,0,0-1.7,1.7c0,.7.05,1.76.13,3.17s.13,2.46.13,3.16q0,1.53-1.35,1.53-15,0-15.84-.37c-.52-.25-.78-.56-.78-.94a22.58,22.58,0,0,1,.54-3.23,20.1,20.1,0,0,0,.55-3.75q0-1.44-1.62-1.44c-2,0-4.86.05-8.75.17s-6.8.18-8.75.18c-2.32,0-3.49-.92-3.49-2.75,0-.93,0-2.32,0-4.17s0-3.24,0-4.17A4.16,4.16,0,0,1,70,149.15a114.65,114.65,0,0,0,9.29-10.91q1.4-2,9.47-15.31a62.7,62.7,0,0,1,3.41-5.5,1.68,1.68,0,0,1,1.31-.74,39.72,39.72,0,0,1,6.48,1.57,33.39,33.39,0,0,0,7.39,1.57c.93,0,1.4.6,1.4,1.79a50,50,0,0,1-.39,5.13,47.56,47.56,0,0,0-.4,5.17v18.37a27.37,27.37,0,0,0,2.88-.26,20.89,20.89,0,0,1,2.84-.27c.55,0,.83.34.83,1s0,1.52-.11,2.75-.11,2.15-.11,2.79.05,1.59.15,2.86S114.63,161.39,114.63,162ZM93.07,134.45c0-.18-.1-.26-.31-.26s-.52.18-.78.56l-5.59,9a50.08,50.08,0,0,1-6.54,8.34q2.4,0,12.22-.61c.05-1.17.26-4,.61-8.6Q93.07,137.45,93.07,134.45Z"/></g></g></g></g></svg>