<svg xmlns="http://www.w3.org/2000/svg" viewBox="0 0 241.69 179.26"><defs><style>.cls-1{fill:#fcfcfc;}.cls-2{fill:#a2d8f4;}.cls-2,.cls-5{stroke:#394e72;stroke-linecap:round;stroke-linejoin:round;stroke-width:5px;}.cls-3,.cls-7{opacity:0.18;}.cls-4,.cls-7{fill:#233f4c;}.cls-5{fill:none;}.cls-6{opacity:0.1;}</style></defs><g id="Capa_2" data-name="Capa 2"><g id="Apps1"><g id="PAÑAL"><path class="cls-1" d="M110.06,179.26a81.47,81.47,0,0,1-12.36-.95c-26.18-3.06-46.7-13.17-57.82-28.45-8.15-11.2-11-24.64-8.11-38.86,2.3-11.47,1.31-15.94.76-17.36a15.77,15.77,0,0,1-2.32.16c-4.52,0-13.49-1.52-22.75-11.72C-4.31,69.14,1.07,37.71,2.26,31.54a7,7,0,0,1,4.27-5.16,6.92,6.92,0,0,1,2.61-.5,7,7,0,0,1,4,1.28A163,163,0,0,0,39.61,42.41,144.92,144.92,0,0,0,93.27,54.75C93.2,53,93,51,92.81,49.16a31.8,31.8,0,0,1-4.64.33c-1,0-2.1-.05-3.17-.14-7.39-.67-11.15-3.93-13-6.53a13.64,13.64,0,0,1-2.5-7.74A20.19,20.19,0,0,1,63,32.76c-1.22-.63-2.88-1.5-6.24-3C48.56,26.11,45,23.62,45.53,15.08c0-.83.11-1.68.11-2.7C45.64,5,51.08,0,59.17,0a21.59,21.59,0,0,1,3.27.25l14.19.81A7,7,0,0,1,78.9.41c.19,0,1.93-.19,4.83-.19a95.63,95.63,0,0,1,39.88,9.15,56.84,56.84,0,0,0,24.27,5.55,43.2,43.2,0,0,0,10.44-1.16A247.46,247.46,0,0,1,194,2.57a33.91,33.91,0,0,1,7.9-1,22.28,22.28,0,0,1,9.55,2A26.74,26.74,0,0,1,222.74.85,20.77,20.77,0,0,1,237.1,6.58a6.77,6.77,0,0,1,.8.89c.65.85,6.23,8.77,2.53,23.6a6.79,6.79,0,0,1-.57,1.52c-1.46,2.82-5.14,5.84-11.1,5.84h0a21.54,21.54,0,0,1-5.12-.66v9.61a7,7,0,0,1-5.18,6.76L197,59.91c-2.88,23.28-5.42,40.13-7.57,50.13-.94,4.39-1.85,8.64-3.84,11.36-13.08,34.34-26.95,45.23-36.6,48.18a84.57,84.57,0,0,1-37.76,9.67Z"/><path class="cls-2" d="M99.36,62c1.47-1.36-.22-13.59-.22-13.59h0c-2-10-3-4-14-5s-9-9-9-9l3-26s19-2,41,8.33,40,4.67,40,4.67a237.41,237.41,0,0,1,35-11c21-5,21,14.84,21,14.84V48.38l-26,7c-8,66-11,63-11,63-19,51-38,46-38,46s-27-1-29-30,8-32.06,8-32.06,16,8.06,26.16-8.68,0-39,0-39a152.68,152.68,0,0,1-43.82,8.09c-.22,0-.75,0-1.29,0-.74,0-2,0-2-.4C99.09,62.2,99.31,62,99.36,62Z"/><path id="blanco" class="cls-1" d="M108.78,62.39s-1.14-9.51,15.86-14.51,30-2,32,2c0,0,18-1,17,17s-2.07,19.49-2.07,19.49.07,35.51-32.93,54.51c0,0-11.21,24.23-24.6,4.11s-6.4-20.71-6.4-20.71,0-25.4,3-29.4C110.64,94.88,99.92,76.9,108.78,62.39Z"/><g class="cls-3"><path class="cls-4" d="M153.64,154.38s-27-1-29-30c-.64-9.27,0-15.87,1-20.59a20.19,20.19,0,0,1-4.54-1.47s-10,3.06-8,32.06,29,30,29,30,8.61,2.26,20-11.82C156.94,155.24,153.64,154.38,153.64,154.38Z"/><path class="cls-4" d="M147.47,93.33c3.89-1.28,7.93-4.1,11.33-9.69,10.16-16.73,0-39,0-39a154.93,154.93,0,0,1-34.94,7.52c-3.29.31-12.6,1-12.37.65,1.77-2.71.15-14.44.15-14.44-2-10-3-4-14-5s-9-9-9-9L90.47,8.49a60.58,60.58,0,0,0-10.33-.11l-3,26s-2,8,9,9,12-5,14,5c0,0,1.62,11.73-.15,14.44-.23.35,9.08-.34,12.37-.65a154.93,154.93,0,0,0,34.94-7.52S157.32,76.63,147.47,93.33Z"/></g><path class="cls-5" d="M99.25,62.3c1.34-3.44-.11-13.92-.11-13.92-2-10-3-4-14-5s-9-9-9-9l3-26s19-2,41,8.33,40,4.67,40,4.67a237.41,237.41,0,0,1,35-11c21-5,21,14.84,21,14.84V48.38l-26,7c-8,66-11,63-11,63-19,51-38,46-38,46s-27-1-29-30,8-32.06,8-32.06,16,8.06,26.16-8.68,0-39,0-39a152.55,152.55,0,0,1-45,8.13C100.17,62.81,99,63,99.25,62.3Z"/><path class="cls-2" d="M8.64,33.88s-6.5,33.5,3.5,44.5,18.92,9.33,18.92,9.33,13.08-4.33,7.08,25.67,17,54,60,59a74.25,74.25,0,0,0,12.5.87,78.65,78.65,0,0,0,36.5-9.87c-.91.1-19.74,1.87-29.72-12a29.41,29.41,0,0,1-5.28-17s-3-25.11,8-32.06c0,0,12.13,7,22.06-3.45,0,0,16.26-11.94,4.1-44.22C146.3,54.65,80.14,84.38,8.64,33.88Z"/><g class="cls-6"><path class="cls-4" d="M144,164.5a75.55,75.55,0,0,1-22.33,3.75,74.25,74.25,0,0,1-12.5-.87c-43-5-66-29-60-59s-7.08-25.67-7.08-25.67-8.92,1.67-18.92-9.33C17.08,66.71,17.08,51.79,18,41.06q-4.68-2.87-9.38-6.18s-6.5,33.5,3.5,44.5,18.92,9.33,18.92,9.33,13.08-4.33,7.08,25.67,17,54,60,59a74.25,74.25,0,0,0,12.5.87,78.65,78.65,0,0,0,36.5-9.87C146.93,164.4,145.76,164.51,144,164.5Z"/></g><path class="cls-5" d="M8.64,33.88s-6.5,33.5,3.5,44.5,18.92,9.33,18.92,9.33,13.08-4.33,7.08,25.67,17,54,60,59a74.25,74.25,0,0,0,12.5.87,78.65,78.65,0,0,0,36.5-9.87c-.91.1-19.74,1.87-29.72-12a29.41,29.41,0,0,1-5.28-17s-3-25.11,8-32.06c0,0,12.13,7,22.06-3.45,0,0,16.26-11.94,4.1-44.22C146.3,54.65,80.14,84.38,8.64,33.88Z"/><path class="cls-2" d="M79,9.23l-17.89-1s-9-1.84-9,5.16-2,7,7,11,7,4,12,5,5.44,1.17,5.44,1.17S76.94,17.09,79,9.23Z"/><path class="cls-7" d="M74.14,21.38c-9-4-7-4-7-11a5.9,5.9,0,0,1,.07-.87l-5.06-.29s-9-1.84-9,5.16-2,7,7,11,7,4,12,5,5.44,1.17,5.44,1.17.1-3.7.49-8.35C77.05,22.7,75.78,22.11,74.14,21.38Z"/><path class="cls-5" d="M79,9.23l-17.89-1s-9-1.84-9,5.16-2,7,7,11,7,4,12,5,5.44,1.17,5.44,1.17S76.94,17.09,79,9.23Z"/><path class="cls-2" d="M210.81,12.7s11.71-8.67,21,0c0,0,4.31,5.68,1.31,17.68,0,0-3,5.8-17-2.1C216.14,28.28,216.48,17,210.81,12.7Z"/><path class="cls-7" d="M224.14,19.28a30.42,30.42,0,0,0-1.73-10.43c-6.3-.07-11.6,3.85-11.6,3.85,5.67,4.33,5.33,15.58,5.33,15.58,14,7.9,17,2.1,17,2.1a34.34,34.34,0,0,0,1-7.13A31.68,31.68,0,0,1,224.14,19.28Z"/><path class="cls-5" d="M210.81,12.7s11.71-8.67,21,0c0,0,4.31,5.68,1.31,17.68,0,0-3,5.8-17-2.1C216.14,28.28,216.48,17,210.81,12.7Z"/></g></g></g></svg>