<svg xmlns="http://www.w3.org/2000/svg" viewBox="0 0 198.79 193.96"><defs><style>.cls-1{fill:#fff;}.cls-2{fill:#f0fb0a;}.cls-3{fill:#b2bf02;}.cls-4{fill:#635702;}.cls-5{fill:#0c24d8;}.cls-6{fill:#041394;}.cls-7{fill:#010946;}.cls-8{fill:#fba10d;}.cls-9{fill:#b07501;}.cls-10{fill:#6d4f0b;}.cls-11{fill:#0bb0eb;}.cls-12{fill:#057b9d;}.cls-13{fill:#0c7b9c;}.cls-14{fill:#32be12;}.cls-15{fill:#289c0d;}.cls-16{fill:#227309;}.cls-17{fill:#fd11da;}.cls-18{fill:#c610ab;}.cls-19{fill:#7b015b;}.cls-20{fill:#eff90e;}.cls-21{fill:#dde209;}.cls-22{fill:#cace09;}.cls-23{fill:#11b1f8;}.cls-24{fill:#0daae1;}.cls-25{fill:#fe0a0c;}.cls-26{fill:#ae0c0c;}.cls-27{fill:#6d0b0d;}</style></defs><g id="Capa_2" data-name="Capa 2"><g id="Apps1"><g id="ESTADISTICAS"><path class="cls-1" d="M149.65,194a6.54,6.54,0,0,1-1-.07,6.63,6.63,0,0,1-1,.07h-18a6.54,6.54,0,0,1-1-.07,6.63,6.63,0,0,1-1,.07h-18a6.54,6.54,0,0,1-1-.07,6.63,6.63,0,0,1-1,.07h-18a6.54,6.54,0,0,1-1-.07,6.63,6.63,0,0,1-1,.07h-18a6.7,6.7,0,0,1-1.5-.16,6.82,6.82,0,0,1-1.5.16h-18a6.54,6.54,0,0,1-1-.07,6.63,6.63,0,0,1-1,.07h-18a6.54,6.54,0,0,1-1-.07,6.63,6.63,0,0,1-1,.07h-18a7,7,0,0,1-7-7v-28.5a7,7,0,0,1,3.61-6.12l9-5a7,7,0,0,1,3.39-.88h4v-16a7,7,0,0,1,3.61-6.12l9-5a7,7,0,0,1,3.39-.88H53.26a7,7,0,0,1,7,7.08l0,1.92h2.41v-16a7,7,0,0,1,3.61-6.12l9-5a7,7,0,0,1,3.39-.88H94.26a7,7,0,0,1,7,7.08l-.09,7.92h1.48v-24a7,7,0,0,1,3.61-6.12l9-5a7,7,0,0,1,3.39-.88h15.61a7,7,0,0,1,7,7.08l0,3.92h1.43v-15a7,7,0,0,1,3.61-6.12l9-5a7,7,0,0,1,3.39-.88h15.61a7,7,0,0,1,7,7.08L180.15,177a7,7,0,0,1-.8,3.17l-5.24,10a7,7,0,0,1-6.2,3.75Z"/><path class="cls-1" d="M15.44,146.72c-.44,0-.89,0-1.34,0a12.48,12.48,0,0,1-5.64-1.81A10.81,10.81,0,0,1,6,143.64l-1.82-1a9,9,0,0,1-4.1-9.21,14,14,0,0,1,1.08-5.75c.62-1.75,3.77-15.19,6.85-29.26a9.52,9.52,0,0,1,.46-1.49A12,12,0,0,1,19,89.49a12.69,12.69,0,0,1,1.51,0,15.42,15.42,0,0,1,6.67,2.11c2.76,1.6,10.05,5.23,13.91,7.14,2.56-4,5.79-9.38,7.58-12.44A9.1,9.1,0,0,1,50.54,84a15.76,15.76,0,0,1,10.89-3.39,18.63,18.63,0,0,1,4.53.85,26.87,26.87,0,0,0,3.67.85C72.2,75.88,78,63,80.15,58.34a12.36,12.36,0,0,1,11.06-8,12.52,12.52,0,0,1,1.62,0c3.47.21,7.06,1.67,11,4.46a57.79,57.79,0,0,0,10,5.62,196.84,196.84,0,0,1,10.21-18.16c.18-.28.35-.52.53-.75A12.08,12.08,0,0,1,133.44,37a11.21,11.21,0,0,1,1.42,0,14.19,14.19,0,0,1,8.66,3.87A118.33,118.33,0,0,0,154,27.25a7.52,7.52,0,0,1-1.43-6.08,10.44,10.44,0,0,1,.11-2.16c1-6.29,6.4-8.51,10-10l1.07-.44c4.4-1.86,17.73-7,19-7.51a14.69,14.69,0,0,1,4.62-1,11.06,11.06,0,0,1,1.41,0,10.57,10.57,0,0,1,8.12,4.48c1.39,2,2.72,5.43,1.18,10.27-.71,2.24-2.84,13.25-4.4,22.17a9.69,9.69,0,0,1-.29,1.21,12.81,12.81,0,0,1-11.28,9h0a13.83,13.83,0,0,1-1.44,0,13.43,13.43,0,0,1-3.34-.65c-5.78,6.68-18.75,21.07-22.11,24.79-1.51,1.94-5.29,5.9-11.13,6.22A13,13,0,0,1,137,75.86l-6.58,11.28a12.65,12.65,0,0,1-11.06,7.73,13.15,13.15,0,0,1-1.66,0,17.76,17.76,0,0,1-7.56-2.36,20.73,20.73,0,0,1-3.43-1.85c-1.51-1-3.08-2.09-4.6-3.16-1.32-.93-2.67-1.88-4-2.73-1.9,3.78-4.63,9.77-7.22,16.11-1.62,5.42-6.48,10.94-13.91,11.34a17.38,17.38,0,0,1-1.91,0,18.64,18.64,0,0,1-2.9-.43c-2.24-.51-4.1-1.1-5.6-1.58-.77-.24-1.66-.53-2.29-.69a64.67,64.67,0,0,0-6.18,11.32,13,13,0,0,1-11.41,8.3,12.83,12.83,0,0,1-1.64,0,16.68,16.68,0,0,1-6.08-1.63c-.44-.2-.91-.45-1.4-.71-.19-.08-.38-.16-.58-.26A67,67,0,0,1,31,123l-1.25-.77c-1.7,7.12-3.66,15.55-3.69,15.67a9,9,0,0,1-.43,1.37A11.79,11.79,0,0,1,15.44,146.72Z"/><g id="amarillo1"><rect class="cls-2" x="8.65" y="158.46" width="18" height="28.5"/><polygon class="cls-3" points="8.65 158.46 17.65 153.47 33.26 153.47 26.65 158.46 8.65 158.46"/><polygon class="cls-4" points="28.65 156.95 26.65 158.46 26.65 186.96 28.65 183.15 28.65 156.95"/></g><g id="azul"><polygon class="cls-5" points="53.11 139.46 48.65 139.46 48.65 186.96 52.62 186.96 66.65 186.96 66.65 139.46 53.11 139.46"/><polygon class="cls-6" points="48.65 139.46 57.65 134.47 73.26 134.47 66.65 139.46 48.65 139.46"/><polygon class="cls-7" points="69.65 137.2 66.65 139.46 66.65 186.96 69.65 181.24 69.65 137.2"/></g><g id="naranja"><polygon class="cls-8" points="69.65 111.46 69.65 137.2 69.65 186.96 72.72 186.96 87.65 186.96 87.65 111.46 69.65 111.46"/><polygon class="cls-9" points="69.65 111.46 78.65 106.47 94.26 106.47 87.65 111.46 69.65 111.46"/><polygon class="cls-10" points="89.65 126.46 94.05 126.46 94.26 106.47 87.65 111.46 87.65 186.96 89.65 183.15 89.65 126.46"/></g><g id="turquesa"><polygon class="cls-11" points="94.05 126.46 89.65 126.46 89.65 186.96 93.43 186.96 107.65 186.96 107.65 126.46 94.05 126.46"/><polygon class="cls-12" points="89.65 126.46 98.65 121.47 114.26 121.47 107.65 126.46 89.65 126.46"/><polygon class="cls-13" points="109.65 124.95 107.65 126.46 107.65 186.96 109.65 183.15 109.65 124.95"/></g><g id="verde"><polygon class="cls-14" points="109.65 90.46 109.65 124.95 109.65 186.96 113.58 186.96 127.65 186.96 127.65 90.46 109.65 90.46"/><polygon class="cls-15" points="109.65 90.46 118.65 85.47 134.26 85.47 127.65 90.46 109.65 90.46"/><polygon class="cls-16" points="129.65 101.46 134.09 101.46 134.26 85.47 127.65 90.46 127.65 186.96 129.65 183.15 129.65 101.46"/></g><g id="morado"><polygon class="cls-17" points="134.09 101.46 129.65 101.46 129.65 186.96 133.21 186.96 147.65 186.96 147.65 101.46 134.09 101.46"/><polygon class="cls-18" points="129.65 101.46 138.65 96.47 154.26 96.47 147.65 101.46 129.65 101.46"/><polygon class="cls-19" points="149.65 99.95 147.65 101.46 147.65 186.96 149.65 183.15 149.65 99.95"/></g><g id="amarillo"><polygon class="cls-20" points="149.65 74.46 149.65 99.95 149.65 186.96 153.32 186.96 167.65 186.96 167.65 74.46 149.65 74.46"/><polygon class="cls-21" points="167.91 186.96 173.15 176.96 174.26 69.47 167.65 74.46 167.65 186.96 167.91 186.96"/><polygon class="cls-22" points="149.65 74.46 158.65 69.47 174.26 69.47 167.65 74.46 149.65 74.46"/></g><path class="cls-23" d="M13.47,140.78a6.88,6.88,0,0,1-3.58-1.38L8,138.28c-1.56-.9-4-3.8-2.2-8.34.86-2.11,4.84-19.66,7.15-30.23a3.13,3.13,0,0,1,.16-.52,6.05,6.05,0,0,1,6.05-3.65,9.41,9.41,0,0,1,4.05,1.33c4,2.33,16.47,8.4,16.6,8.46a3.69,3.69,0,0,1,.67.44,2.29,2.29,0,0,0,1,.38c.72,0,1.43-.75,1.9-1.43,3.45-5,9.43-15.23,9.49-15.34a3.26,3.26,0,0,1,.65-.79,9.18,9.18,0,0,1,6.58-1.92,12.75,12.75,0,0,1,3.09.59,38.19,38.19,0,0,0,7.78,1.46A2.35,2.35,0,0,0,73.31,87c1.33-4.18,10-23.35,11.41-26.36a6.47,6.47,0,0,1,6.75-4.25c2.31.14,4.89,1.25,7.89,3.37a65.55,65.55,0,0,0,15.7,8.05c.38-.09,1.53-.87,2.72-3.65,3-7,10.07-18.17,10.37-18.65a1.88,1.88,0,0,1,.16-.23A6.17,6.17,0,0,1,133.49,43c2.15.13,4.25,1.33,6.24,3.57A9.69,9.69,0,0,0,142.66,49c1.66-1.28,6.86-5.89,15.73-19a3.11,3.11,0,0,1,.54-.61c.95-.85,2-2.36,2-3.14,0-.07,0-.21-.35-.5-.93-.79-3.42-2.9-3-5.82s3.32-4.13,6.33-5.37l1.1-.46c4.44-1.88,18.37-7.25,19-7.48a8.31,8.31,0,0,1,3.43-.62A4.49,4.49,0,0,1,191,8a5.55,5.55,0,0,1,.4,5c-1,3.29-3.67,17.69-4.59,23a3.2,3.2,0,0,1-.1.42,6.69,6.69,0,0,1-6.63,4.79A8.4,8.4,0,0,1,176.45,40c-.61-.35-1.23-.71-1.71-1-.2.25-.42.54-.62.81-2.35,3.06-22.59,25.51-24.5,27.61-.7,1-3.53,4.33-7.68,4.07a7.84,7.84,0,0,1-4.63-2,33.54,33.54,0,0,0-3.11-2.42L124.07,84.54a6.8,6.8,0,0,1-7,4.39,13.58,13.58,0,0,1-6.49-2.5c-1.47-1-3-2.05-4.52-3.1-3.85-2.72-8.64-6.1-11-6.25a.63.63,0,0,0-.29,0C92.56,79.73,87.2,91.81,84.29,99c-.77,2.84-3.67,7.69-9.77,7.31a12.14,12.14,0,0,1-1.93-.28c-2-.46-3.67-1-5.14-1.46a19.81,19.81,0,0,0-4.4-1.08,5,5,0,0,0-2.42.43c-1.73.75-5.93,7.63-9,14.75a7,7,0,0,1-7.12,4.56,11,11,0,0,1-3.89-1.07,66.57,66.57,0,0,1-5.8-3.36c-2.92-1.81-7.6-4.71-10.06-5.36-1.61,6.29-5.49,23-5.53,23.22a3.37,3.37,0,0,1-.15.48A5.75,5.75,0,0,1,13.47,140.78Z"/><path class="cls-23" d="M10.6,136.64l-2.09-1.21s-2.09-1.2-.82-4.35S15,100.33,15,100.33s1.28-3.15,5.46-.74,16.8,8.57,16.8,8.57,4.12,3.48,7.68-1.68,9.62-15.55,9.62-15.55,2.29-2,6.54-.67a40.86,40.86,0,0,0,8.57,1.61,5.72,5.72,0,0,0,5.66-4c1.34-4.22,11.36-26.19,11.36-26.19s1.4-5.3,9.7.59a67.86,67.86,0,0,0,16.8,8.57h0s3.56,1.3,6.49-5.52,10.13-18.2,10.13-18.2,2.36-3.08,6.41,1.47,6.28,3.62,6.28,3.62,5.59-2.89,17.5-20.44c0,0,5.72-5,1.61-8.51s-.82-4.35,3.63-6.23,18.87-7.44,18.87-7.44,4.44-1.88,3.1,2.34-4.69,23.38-4.69,23.38-1.34,4.22-5.53,1.81-4.18-2.41-6.53.67S146,65.37,146,65.37s-3.57,5.16-7.69,1.68-6.2-4.69-7.41-2.61L120,83.13s-1.41,5.3-8.7.54-16.53-12.85-20-8.76-11.17,23-11.17,23-1.47,6.36-7.88,4.89-9.51-3.81-14-1.93S47.52,117.4,47.52,117.4s-1.34,4.22-6.61,1.74-18.69-13-20.1-7.69S15,135.83,15,135.83,13.7,139,10.6,136.64Z"/><path class="cls-24" d="M8.31,138.65l-2.09-1.21s-2.09-1.2-.82-4.35,7.31-30.75,7.31-30.75,1.28-3.15,5.46-.74S35,110.17,35,110.17s4.12,3.48,7.68-1.68,9.62-15.55,9.62-15.55,2.29-2,6.54-.67a40.86,40.86,0,0,0,8.57,1.61,5.72,5.72,0,0,0,5.66-4C74.38,85.7,84.4,63.73,84.4,63.73s1.4-5.3,9.7.59a67.86,67.86,0,0,0,16.8,8.57h0s3.56,1.3,6.49-5.52,10.14-18.2,10.14-18.2,2.35-3.08,6.4,1.47,6.28,3.62,6.28,3.62,5.59-2.89,17.5-20.44c0,0,5.72-5,1.61-8.51S158.5,21,163,19.08s18.87-7.44,18.87-7.44,4.44-1.88,3.1,2.34-4.69,23.38-4.69,23.38-1.34,4.22-5.52,1.81-4.19-2.41-6.54.67-24.44,27.54-24.44,27.54-3.57,5.16-7.69,1.68-6.2-4.69-7.41-2.61l-10.9,18.69s-1.41,5.3-8.7.54S92.5,72.83,89,76.92s-11.17,23-11.17,23-1.47,6.36-7.88,4.89-9.51-3.81-14-1.93-10.77,16.55-10.77,16.55-1.34,4.22-6.61,1.74-18.69-13-20.1-7.69-5.83,24.38-5.83,24.38S11.41,141,8.31,138.65Z"/><g id="rojo"><polygon class="cls-25" points="28.65 130.46 28.65 156.95 28.65 186.96 32.91 186.96 46.65 186.96 46.65 130.46 28.65 130.46"/><polygon class="cls-26" points="28.65 130.46 37.65 125.47 53.26 125.47 46.65 130.46 28.65 130.46"/><polygon class="cls-27" points="48.65 139.46 53.11 139.46 53.26 125.47 46.65 130.46 46.65 186.96 48.65 183.15 48.65 139.46"/></g></g></g></g></svg>