<svg xmlns="http://www.w3.org/2000/svg" viewBox="0 0 260.92 178.07"><defs><style>.cls-1{fill:#fff;}.cls-2{opacity:0.3;}.cls-3{fill:#000072;}.cls-4{fill:#394e72;}.cls-5{fill:#32a6fc;}.cls-6{fill:#ffdab6;}.cls-7{fill:#00dbff;}.cls-8{fill:#ffe448;}</style></defs><g id="Capa_2" data-name="Capa 2"><g id="Apps1"><path class="cls-1" d="M120.94,178.07c-26.87,0-42.27-12.61-50.45-23.19a64.37,64.37,0,0,1-7.1-11.56,46.81,46.81,0,0,1-19.56,4.1,47.65,47.65,0,0,1-15.91-2.68c-8.21-3-27.36-13.09-27.91-43.4C-.26,86.24,4.23,74,13.35,65.06c8-7.86,17.91-11.62,26.23-13.38a48.05,48.05,0,0,1,9-22.45h0a33.36,33.36,0,0,1-3.75-2,17.12,17.12,0,0,1-4.15-3.75,7,7,0,0,1,1.21-9.92l.09-.07A7.12,7.12,0,0,1,46.14,12l.68,0a11,11,0,0,1,2.09-2.59A12.91,12.91,0,0,1,52.78,7a12.27,12.27,0,0,1,4.53-.9l.87,0a12.31,12.31,0,0,1,4.87,1.42A13.41,13.41,0,0,1,67.14,11C75.62,5.19,84.45,2.28,93.5,2.28c1.28,0,2.57.06,3.84.18,8.42.76,16.63,4,24.46,9.56a16.65,16.65,0,0,1,3.77-.43,18.36,18.36,0,0,1,12.66,5.33,25.58,25.58,0,0,1,4.4,5.35c1.54-.22,3.09-.41,4.62-.59a12,12,0,0,1,6.45-13c4.19-2.07,8.46-4,12.7-5.82A29.38,29.38,0,0,1,178.06,0c.6,0,1.21,0,1.81.08a12.26,12.26,0,0,1,3.91,1,12.07,12.07,0,0,1,6.95,9.25,11.84,11.84,0,0,1,1.69.62A12,12,0,0,1,192,33c-.56.22-1.13.46-1.71.71a72.79,72.79,0,0,1,14.3,13.38,39.33,39.33,0,0,1,10.52-1.4,46.61,46.61,0,0,1,45.37,40.09c1.58,11.24-.71,23.06-6.8,35.13-7.47,14.82-18.07,24.34-31.51,28.32a50.94,50.94,0,0,1-14.46,2h0a69.18,69.18,0,0,1-25-5.06,65.77,65.77,0,0,1-9.78,12.11C163.7,167.35,147.21,178.07,120.94,178.07Z"/><path class="cls-1" d="M253.5,86.8a39.05,39.05,0,0,0-11.2-22.46c-11.14-11.09-27.47-14.63-40.24-8.9-2.77-4-12.3-16.39-27-21.88a122.4,122.4,0,0,1,14.27-7,5,5,0,0,0,2.78-6.5,5,5,0,0,0-6.5-2.78c-2.39.95-4.85,2.06-7.45,3.33,1.4-1.79,2.86-3.53,4.37-5.2a5,5,0,0,0-1.65-7.92,5.16,5.16,0,0,0-1.63-.42c-3.76-.32-7.08.92-10.16,2.21C165,11,160.85,12.9,156.81,14.9a5,5,0,0,0,.17,9,5,5,0,0,0,4.27-.08c1.19-.59,2.4-1.18,3.62-1.75a101.11,101.11,0,0,0-5,8.81l-1.17,0a4.11,4.11,0,0,0-.89-1.11,4.22,4.22,0,0,0-1.15-.7,15.87,15.87,0,0,0-7.79-.61c-3.31.36-6.64.82-9.91,1.38a2.88,2.88,0,0,0-.42.11,17.88,17.88,0,0,0-5-8c-4.9-4.57-9.74-3.86-12.86-2.16-6-4.88-14.22-9.58-23.89-10.46-12-1.09-23.69,4-34.84,15l-.33-.23.27-.16a4.09,4.09,0,0,0,1.39-1.74,4.89,4.89,0,0,0,.39-2.06,7.64,7.64,0,0,0-1.08-3.69,7.09,7.09,0,0,0-2.78-2.76,5.22,5.22,0,0,0-2.09-.6,4.94,4.94,0,0,0-2.19.36,5.84,5.84,0,0,0-1.81,1.13,3.94,3.94,0,0,0-1.23,2.17,4.45,4.45,0,0,0,.23,2.36,8.2,8.2,0,0,0,.92,1.77c.27.4.57.77.86,1.12-.74-.23-1.49-.49-2.22-.78-1-.38-1.93-.87-2.91-1.27a14.65,14.65,0,0,0-3.15-1s0,0,0,0a0,0,0,0,0,0,0,10.65,10.65,0,0,0,2.48,2.23,25.34,25.34,0,0,0,2.91,1.56,26.4,26.4,0,0,0,3.1,1.25,14.09,14.09,0,0,0,2.56.63c.8.69,1.63,1.33,2.47,1.94C50.42,36.62,46,47,46.34,57.64c-7.52.93-19.3,3.78-28.08,12.41C10.56,77.63,6.77,88.11,7,101.22c.45,25,14.78,33.87,23.28,36.93,12.49,4.49,28.09,2.1,36.5-5.22A57,57,0,0,0,76,150.6c7.22,9.34,20.88,20.47,44.91,20.47s38.8-9.64,47.07-17.72a56.62,56.62,0,0,0,11.66-16.14c5.36,2.75,22.9,10.54,40.46,5.34,11.52-3.4,20.69-11.73,27.26-24.75C252.82,107,254.88,96.6,253.5,86.8ZM55.63,16.73a3.15,3.15,0,0,1,.9-.6,2.24,2.24,0,0,1,2,0,5.25,5.25,0,0,1,2.66,4.1,2.09,2.09,0,0,1-.7,1.88,2.64,2.64,0,0,1-1,.45c-.5-.41-1-.82-1.47-1.25a14.39,14.39,0,0,1-2-2.14,4.74,4.74,0,0,1-.61-1.07,1.69,1.69,0,0,1-.14-.81A1,1,0,0,1,55.63,16.73Z"/><path class="cls-1" d="M53.62,58.87s-45.76-1.59-45,42.32,46.28,43.38,59,28.56c0,0,8.07,39.68,53.3,39.68s57.92-34.52,57.92-34.52,44.84,26.19,67.06-17.85-19-72.48-44.44-59.52c0,0-27.77-44.43-68.77-14.81,0,0-11.46-7-23.63,5.47C109.08,48.2,76.1,21.84,53.62,58.87Z"/><g class="cls-2"><path class="cls-3" d="M8.7,97.81c1.56,42.74,46.36,42.1,58.94,27.42,0,0,8.07,39.67,53.3,39.67s57.92-34.52,57.92-34.52,44.84,26.19,67.06-17.85a55.47,55.47,0,0,0,6.28-22.07,38.22,38.22,0,0,0-4.32-15.85c.81,8.08-.82,17.36-5.93,27.49-16.81,33.33-47,25-59.32,19.85a6.48,6.48,0,0,0-8.07,2.67c-5.53,9.4-20.62,28.06-53.29,28.06-30.91,0-43.85-19.18-48.77-30.4a6.46,6.46,0,0,0-8.94-3.09c-16.74,8.88-50.05,4.46-50.72-32.41a52.5,52.5,0,0,1,.33-7.13A42.15,42.15,0,0,0,8.7,97.81Z"/></g><g class="cls-2"><path class="cls-3" d="M48,94.44S46.48,74.3,90.21,77.65s127-28.22,132.64,10.88c0,0-33.54-14.59-48.88,22.71,0,0-33.06-17.72-52.64,5.55C121.33,116.79,99.14,68.65,48,94.44Z"/></g><path class="cls-4" d="M120.94,171.07c-24,0-37.69-11.13-44.91-20.47a57,57,0,0,1-9.24-17.67c-8.41,7.32-24,9.71-36.5,5.22C21.79,135.09,7.46,126.23,7,101.22c-.24-13.11,3.55-23.59,11.25-31.17,12.16-12,30.06-12.82,34.45-12.84,6.9-11,15.45-17.5,25.42-19.27,14.28-2.53,26.94,5.37,30.8,8.1,6.35-6,12.48-7.1,16.6-6.91a18.77,18.77,0,0,1,7,1.68c12-8.39,24-11.48,35.79-9.17,18.49,3.62,30.53,19.24,33.7,23.8,12.77-5.73,29.1-2.19,40.24,8.9A39.05,39.05,0,0,1,253.5,86.8c1.38,9.8-.68,20.23-6.11,31-6.57,13-15.74,21.35-27.26,24.75-17.56,5.2-35.1-2.59-40.46-5.34A56.62,56.62,0,0,1,168,153.35C159.74,161.43,144.86,171.07,120.94,171.07Zm-53.3-43a1.4,1.4,0,0,1,.41,0,1.64,1.64,0,0,1,1.2,1.27,52.47,52.47,0,0,0,9.46,19.26c9.85,12.67,24.06,19.09,42.23,19.09s33.27-5.61,44.66-16.68a51.28,51.28,0,0,0,11.72-16.76,1.68,1.68,0,0,1,1-1,1.63,1.63,0,0,1,1.38.13c.2.12,20.27,11.61,39.53,5.9,10.6-3.14,19.09-10.9,25.23-23.07,9.5-18.84,7.83-37.4-4.47-49.65C229.45,56.19,213.92,53,202.23,59a1.66,1.66,0,0,1-2.15-.59c-.12-.2-12.53-19.68-32.38-23.55-11.13-2.17-22.58.92-34,9.2a1.65,1.65,0,0,1-1.82.06c-.42-.25-10.54-6.15-21.59,5.21a1.65,1.65,0,0,1-2.21.14c-.14-.11-14-11-29.37-8.29C69.46,42.83,61.5,49.07,55,59.72a1.67,1.67,0,0,1-1.46.79c-.26,0-20.41-.51-33,11.91-7,6.91-10.47,16.58-10.25,28.74.42,23,13.4,31.12,21.1,33.89a38.08,38.08,0,0,0,20.11,1.35c6.35-1.28,11.78-4.1,14.88-7.72A1.65,1.65,0,0,1,67.64,128.11Z"/><path class="cls-5" d="M211.58,86.2a44.48,44.48,0,0,1-24.14,28.86c-20.37,9.67-59.55,22.79-86-2.66A42.8,42.8,0,0,1,89.93,93.33a40.06,40.06,0,0,1-1.53-12c.25-9.24,3.68-19.78,15.78-26.53a36.28,36.28,0,0,1,35.89.67,35.82,35.82,0,0,0,16.85,5.05c15.74.49,25.75-15.56,47.09,0a22,22,0,0,1,5.36,5.5C213.45,72.1,213.33,79.41,211.58,86.2Z"/><path class="cls-1" d="M191.77,63.93l1,1.12a1.5,1.5,0,0,0,1.75.36l1.37-.61A1.53,1.53,0,0,1,197.85,67l-.75,1.3a1.52,1.52,0,0,0,.19,1.78l1,1.11a1.53,1.53,0,0,1-1.45,2.52l-1.46-.31a1.53,1.53,0,0,0-1.64.74L193,75.4a1.53,1.53,0,0,1-2.84-.6L190,73.31A1.52,1.52,0,0,0,188.79,72l-1.46-.31a1.53,1.53,0,0,1-.31-2.89l1.36-.61a1.53,1.53,0,0,0,.9-1.56l-.16-1.49A1.53,1.53,0,0,1,191.77,63.93Z"/><path class="cls-1" d="M129.64,97.47l0,1.5a1.52,1.52,0,0,0,1,1.48L132,101a1.53,1.53,0,0,1-.09,2.9l-1.44.42a1.53,1.53,0,0,0-1.09,1.42l-.05,1.5a1.53,1.53,0,0,1-2.79.82l-.84-1.24a1.54,1.54,0,0,0-1.69-.61l-1.44.42a1.53,1.53,0,0,1-1.64-2.4l.92-1.18a1.53,1.53,0,0,0,0-1.8l-.84-1.24a1.53,1.53,0,0,1,1.78-2.3l1.41.51a1.53,1.53,0,0,0,1.72-.5l.92-1.19A1.52,1.52,0,0,1,129.64,97.47Z"/><path class="cls-1" d="M149.19,65.29l.37.76a.86.86,0,0,0,.9.48l.83-.11A.87.87,0,0,1,152,67.9l-.61.58a.87.87,0,0,0-.18,1l.37.76a.87.87,0,0,1-1.19,1.14l-.74-.4a.86.86,0,0,0-1,.14l-.61.58a.86.86,0,0,1-1.45-.77l.15-.84a.86.86,0,0,0-.44-.91l-.74-.4a.86.86,0,0,1,.29-1.61l.83-.12a.86.86,0,0,0,.74-.7l.15-.83A.86.86,0,0,1,149.19,65.29Z"/><path class="cls-1" d="M179.72,89.17l.17.83a.85.85,0,0,0,.74.69l.84.1a.86.86,0,0,1,.33,1.61l-.74.41a.87.87,0,0,0-.42.92l.17.83a.86.86,0,0,1-1.43.81l-.63-.57a.85.85,0,0,0-1-.12l-.74.42A.86.86,0,0,1,175.8,94l.35-.77a.86.86,0,0,0-.2-1l-.62-.57a.86.86,0,0,1,.68-1.49l.84.09a.84.84,0,0,0,.88-.49l.36-.77A.86.86,0,0,1,179.72,89.17Z"/><g class="cls-2"><path class="cls-3" d="M140.47,51.5s7.33,8.08-4.5,27a2.25,2.25,0,0,0-.14,2.16,25.79,25.79,0,0,1,1.64,4.4,23.14,23.14,0,0,0-10.64-1.84S142.54,65.83,140.47,51.5Z"/></g><g class="cls-2"><path class="cls-3" d="M211.58,86.2a44.48,44.48,0,0,1-24.14,28.86c-20.37,9.67-59.55,22.79-86-2.66A42.8,42.8,0,0,1,89.93,93.33l22.5,2.56a66.08,66.08,0,0,1,8.24,10.26,2.53,2.53,0,0,0,3.6.8c4.61-3.14,15.6-9.23,28.63-6.91,0,0,5.86-10.17,1.37-18.6a20.92,20.92,0,0,1,4,5.94,2.1,2.1,0,0,0,3.91-.29c1.07-3.61,2.92-7.69,6.07-10.57,0,0-.17,1.7-.18,4.33a10,10,0,0,0,16,7.93,32.58,32.58,0,0,1,13-6.12,15.84,15.84,0,0,0,12.31-16.42c0-.09,0-.17,0-.25C213.45,72.1,213.33,79.41,211.58,86.2Z"/></g><path class="cls-4" d="M170.79,59.22c-.48.22-1,.49-1.57.76-.27.14-.54.28-.8.43l-.78.44a33.22,33.22,0,0,0-3,1.95,22.47,22.47,0,0,0-2.69,2.37c-.8.89-1.53,1.81-2.31,2.86h0a.15.15,0,0,1-.2,0,.16.16,0,0,1-.06-.12,8.13,8.13,0,0,1,1.23-3.78A19.68,19.68,0,0,1,163,61a24.73,24.73,0,0,1,3-2.62c.52-.41,1.06-.78,1.62-1.14s1.1-.69,1.75-1a1.65,1.65,0,1,1,1.5,2.94l-.07,0Z"/><path class="cls-4" d="M176.32,120.41c-.36-.42-.65-.79-1-1.19s-.61-.78-.9-1.18c-.58-.8-1.14-1.62-1.68-2.44a57.7,57.7,0,0,1-3-5.11,50.44,50.44,0,0,1-4.2-11.06,37.26,37.26,0,0,1-1.05-11.81,25.73,25.73,0,0,1,1-5.84c.15-.47.3-.94.47-1.4s.38-.91.59-1.36l.31-.67.38-.64c.25-.42.5-.84.78-1.24a.12.12,0,0,1,.17,0,.13.13,0,0,1,0,.13h0c-.08.49-.17,1-.27,1.43l-.16.7-.13.7c-.08.47-.19.93-.28,1.39s-.13.93-.21,1.39a38.46,38.46,0,0,0-.53,5.55,33.19,33.19,0,0,0,.38,5.55,39,39,0,0,0,1.2,5.43,51.17,51.17,0,0,0,1.87,5.25q1.11,2.58,2.44,5c.9,1.63,1.86,3.24,2.89,4.8.52.77,1,1.54,1.6,2.28l.84,1.12c.28.36.58.74.84,1l0,0a1.65,1.65,0,0,1-2.5,2.15Z"/><path class="cls-4" d="M154.62,81.38a10.94,10.94,0,0,1,1.84,4,17.28,17.28,0,0,1,.51,4.36,26.37,26.37,0,0,1-.37,4.42c-.07.36-.16.72-.24,1.09l-.12.54-.16.54-.33,1.07-.4,1.05c-.25.7-.63,1.36-.95,2-.16.33-.37.64-.56,1s-.37.65-.59,1l-.66.91a9.64,9.64,0,0,1-.69.89l-.73.84-.37.42-.4.39a26.39,26.39,0,0,1-3.38,2.88c-.61.42-1.21.85-1.83,1.24l-1.91,1.1a55.39,55.39,0,0,1-16.42,5.27l-2.11.34-1.06.17-1.06.12-2.12.24q-1,.14-2.13.21a55.44,55.44,0,0,1-8.65.09,30.64,30.64,0,0,1-4.4-.68,16.62,16.62,0,0,1-4.33-1.65,9.09,9.09,0,0,1-3.59-3.46,7.85,7.85,0,0,1-.91-2.43,7.73,7.73,0,0,1-.15-1.26,7.45,7.45,0,0,1,0-1.25,13.71,13.71,0,0,1,1.2-4.56,23,23,0,0,1,2.24-3.9,35.93,35.93,0,0,1,5.94-6.42,42.29,42.29,0,0,1,15.06-8.43,28.92,28.92,0,0,1,8.64-1.32,17.17,17.17,0,0,1,4.39.57,8.77,8.77,0,0,1,3.83,2.19.19.19,0,0,1,0,.26.27.27,0,0,1-.15,0h0c-1.47-.15-2.79-.35-4.11-.51a26.06,26.06,0,0,0-4-.29,26.76,26.76,0,0,0-7.88,1.47,38.23,38.23,0,0,0-7.33,3.44,41.68,41.68,0,0,0-6.55,4.79,33.2,33.2,0,0,0-5.35,6,19.94,19.94,0,0,0-1.92,3.38A10.73,10.73,0,0,0,99.5,107a4.83,4.83,0,0,0,0,.85,5.57,5.57,0,0,0,.1.82,4.82,4.82,0,0,0,.56,1.48,6.24,6.24,0,0,0,2.42,2.26,13.92,13.92,0,0,0,3.5,1.31,27.69,27.69,0,0,0,3.91.59,51.42,51.42,0,0,0,8.13-.1c.68,0,1.37-.12,2-.2l2.06-.24,1-.12,1-.17,2-.32a54.18,54.18,0,0,0,15.47-4.91,28.37,28.37,0,0,0,6.48-4.57,20,20,0,0,0,4.51-6.34l.39-.9.32-.92.16-.47.13-.47c.08-.32.18-.63.25-.95a24.74,24.74,0,0,0,.52-3.93c.05-1.34,0-2.67-.08-4s-.14-2.72-.17-4.16v0a.18.18,0,0,1,.18-.18A.17.17,0,0,1,154.62,81.38Z"/><path class="cls-4" d="M140.2,128.85c-14,0-28.12-3.94-39.88-15.26A43.55,43.55,0,0,1,86.76,81.26c.32-12.39,6.07-22.05,16.62-27.93h0A38.1,38.1,0,0,1,140.9,54,34,34,0,0,0,157,58.85c5.06.15,9.51-1.51,14.21-3.28,9.36-3.52,19-7.16,33.79,3.59,8.41,6.14,11.25,15.63,8.19,27.45a46,46,0,0,1-25,29.93C176.17,122.23,158.33,128.85,140.2,128.85ZM105,56.2C95.37,61.57,90.35,70,90.05,81.34a40.27,40.27,0,0,0,12.55,29.88c11,10.62,24.39,14.32,37.65,14.32,17.51,0,34.85-6.45,46.48-12A42.68,42.68,0,0,0,210,85.79c2.73-10.55.39-18.61-6.94-24-13.31-9.71-21.75-6.53-30.69-3.17-4.8,1.8-9.76,3.67-15.48,3.49a37.25,37.25,0,0,1-17.62-5.27A34.83,34.83,0,0,0,105,56.2Z"/><path class="cls-6" d="M119.39,22.8s6-6.05,13,.45,5.82,15.51,3.2,18.77S119.39,22.8,119.39,22.8Z"/><path class="cls-4" d="M134.87,44h-.18c-1.57-.1-4-1.44-10.37-10.56C121,28.58,118,23.7,118,23.65a1.65,1.65,0,0,1,.24-2c2.45-2.49,8.79-5.61,15.24.4,7.45,6.93,6.72,16.81,3.37,21A2.46,2.46,0,0,1,134.87,44ZM121.54,23.17c4.82,7.84,10.77,16.06,13,17.37,1.71-2.77,2.92-10.25-3.35-16.08C126.94,20.47,123.26,22,121.54,23.17Z"/><path class="cls-6" d="M59.63,82.13s-6.09,5.92.36,13S75.45,101,78.73,98.42,59.63,82.13,59.63,82.13Z"/><path class="cls-4" d="M71.82,102.08a17.62,17.62,0,0,1-13-5.88c-6-6.5-2.79-12.81-.28-15.25a1.64,1.64,0,0,1,2-.22s4.9,3,9.72,6.41C79.28,93.55,80.6,96,80.7,97.58a2.46,2.46,0,0,1-1,2.13A13,13,0,0,1,71.82,102.08ZM60,84.29C58.81,86,57.24,89.66,61.2,94c5.79,6.31,13.28,5.16,16.06,3.47C76,95.17,67.79,89.16,60,84.29Z"/><path class="cls-6" d="M123.47,86.67s-33.32,35.12-53.9,6.88c0,0-18.15-12.8-21.19-31.77-1.69-10.52,1.27-22.93,14.54-36.1,37.19-36.93,67.82,7.14,67.82,7.14,5.44,4,8.5,8.51,9.9,13.13C146.46,65.18,123.47,86.67,123.47,86.67Z"/><g class="cls-2"><path class="cls-3" d="M123.47,86.67s-33.32,35.12-53.9,6.88c0,0-18.15-12.8-21.19-31.77C48.84,62.45,74,99,119.16,76c14.71-7.49,20.45-18.53,21.48-30C146.46,65.18,123.47,86.67,123.47,86.67Z"/></g><path class="cls-4" d="M113.72,37.93a9.94,9.94,0,0,1-.33,5.29,11.92,11.92,0,0,1-2.8,4.67c-.31.33-.66.63-1,.94s-.73.57-1.11.81-.79.47-1.18.69a12.4,12.4,0,0,1-1.25.54,11.72,11.72,0,0,1-5.22.74.11.11,0,0,1-.11-.13.11.11,0,0,1,.06-.09c1.54-.84,3-1.6,4.31-2.46a5.25,5.25,0,0,0,.49-.33l.48-.33c.3-.25.63-.45.92-.71a17.66,17.66,0,0,0,1.7-1.53,19.17,19.17,0,0,0,2.8-3.66,29,29,0,0,0,2.14-4.44h0a.05.05,0,0,1,.07,0S113.71,37.92,113.72,37.93Z"/><path class="cls-4" d="M74.8,76.47a29.2,29.2,0,0,0,4.46-2.11,19.47,19.47,0,0,0,3.67-2.78,16.5,16.5,0,0,0,1.55-1.68c.26-.29.47-.61.71-.91l.34-.49a5.11,5.11,0,0,0,.33-.48c.87-1.32,1.64-2.76,2.49-4.29a.12.12,0,0,1,.16,0,.11.11,0,0,1,.06.09A11.78,11.78,0,0,1,87.79,69a11.19,11.19,0,0,1-.55,1.24c-.22.39-.43.79-.69,1.17s-.54.74-.82,1.1-.61.69-1,1a12,12,0,0,1-4.69,2.76,9.93,9.93,0,0,1-5.29.29.06.06,0,0,1,0-.07,0,0,0,0,1,0,0Z"/><path class="cls-4" d="M104.46,60.55a22.83,22.83,0,0,0-2.4,1,7.25,7.25,0,0,0-1.85,1.26A6.46,6.46,0,0,0,99,64.57c-.34.7-.61,1.5-1,2.4a.08.08,0,0,1-.11,0,.08.08,0,0,1,0,0,4.55,4.55,0,0,1-.48-2.87,4.6,4.6,0,0,1,1.46-2.74,5.37,5.37,0,0,1,5.62-.92.07.07,0,0,1,0,.07s0,0,0,0Z"/><path class="cls-4" d="M89.34,106.18c-.56,0-1.11,0-1.67-.05-7.57-.49-14-4.32-19.28-11.39-2.34-1.71-20.3-15.44-22-35.39-1-12,4.15-23.74,15.34-34.84S84.69,8.33,96.71,9.43c19.94,1.82,33.53,19.87,35.22,22.22,7,5.28,10.82,11.8,11.26,19.36,1,18.06-17.35,35.69-18.56,36.83S106.8,106.18,89.34,106.18Zm4.2-93.6c-10,0-19.92,4.79-29.47,14.26C53.62,37.23,48.78,48.07,49.7,59.07c1.63,19.38,20.62,33,20.81,33.14a1.49,1.49,0,0,1,.38.37c4.66,6.38,10.37,9.84,17,10.27,16.72,1.08,34.23-17.13,34.41-17.31a.46.46,0,0,1,.07-.07c.18-.17,18.52-17.55,17.55-34.28-.38-6.61-3.79-12.35-10.14-17a1.67,1.67,0,0,1-.37-.38c-.13-.19-13.66-19.3-33-21C95.44,12.62,94.49,12.58,93.54,12.58Z"/><circle class="cls-7" cx="112.85" cy="75.98" r="12.55"/><g class="cls-2"><path class="cls-3" d="M124.15,70.51a12.55,12.55,0,0,1-23.83,4.77,12.55,12.55,0,1,0,23.83-4.77Z"/></g><path class="cls-4" d="M112.85,89.7a13.72,13.72,0,1,1,9.68-4A13.68,13.68,0,0,1,112.85,89.7Zm0-25.09A11.37,11.37,0,1,0,120.93,68,11.31,11.31,0,0,0,112.85,64.61Z"/><path class="cls-4" d="M119.16,93a10.68,10.68,0,0,1-7.58-3.14h0a10.67,10.67,0,0,1,7.58-18.19h0a10.67,10.67,0,0,1,0,21.33Zm0-19.45a8.78,8.78,0,0,0-6.24,15h0a8.79,8.79,0,1,0,6.27-15Z"/><circle class="cls-8" cx="112.85" cy="75.98" r="5.46"/><g class="cls-2"><path class="cls-3" d="M117.07,72.51a5.45,5.45,0,0,1-9.33,4c-.12-.13-.23-.25-.34-.39A5.4,5.4,0,0,0,109,79.83a5.46,5.46,0,0,0,8.09-7.32Z"/></g><path class="cls-4" d="M112.85,82.62h0a6.66,6.66,0,0,1-4.69-2h0a6.64,6.64,0,0,1,9.43-9.36,6.65,6.65,0,0,1-4.72,11.32Zm-3-3.62a4.3,4.3,0,0,0,3,1.27h0a4.29,4.29,0,0,0,0-8.58h0a4.24,4.24,0,0,0-3,1.25,4.27,4.27,0,0,0,0,6.06Z"/><path class="cls-4" d="M66.79,31.26a62.29,62.29,0,0,1-5.64-3.48,41.93,41.93,0,0,1-5.26-4.16,16.92,16.92,0,0,1-2.33-2.68,8.2,8.2,0,0,1-.92-1.77,4.45,4.45,0,0,1-.23-2.36,3.94,3.94,0,0,1,1.23-2.17,5.84,5.84,0,0,1,1.81-1.13,4.94,4.94,0,0,1,2.19-.36,5.22,5.22,0,0,1,2.09.6,7.09,7.09,0,0,1,2.78,2.76,7.64,7.64,0,0,1,1.08,3.69,4.89,4.89,0,0,1-.39,2.06A4.09,4.09,0,0,1,61.81,24a4.86,4.86,0,0,1-1.93.77,7.53,7.53,0,0,1-1.88.09,14.26,14.26,0,0,1-3.4-.73,26.4,26.4,0,0,1-3.1-1.25,25.34,25.34,0,0,1-2.91-1.56,10.65,10.65,0,0,1-2.48-2.23,0,0,0,0,1,0,0s0,0,0,0a14.65,14.65,0,0,1,3.15,1c1,.4,1.93.89,2.91,1.27a27,27,0,0,0,2.95,1,12.3,12.3,0,0,0,2.94.46,3.85,3.85,0,0,0,2.37-.6,2.09,2.09,0,0,0,.7-1.88,5.25,5.25,0,0,0-2.66-4.1,2.24,2.24,0,0,0-2,0,3.15,3.15,0,0,0-.9.6,1,1,0,0,0-.32.6,1.69,1.69,0,0,0,.14.81,4.74,4.74,0,0,0,.61,1.07,14.39,14.39,0,0,0,2,2.14,59.72,59.72,0,0,0,10.31,7.08l0,0a1.61,1.61,0,0,1-1.58,2.81Z"/><path class="cls-1" d="M47.69,94.57c51.84-26.45,73.44,22.57,73.44,22.57C145.64,90.69,174,112,174,112c13.23-37.91,48.85-23.49,48.85-23.49s-4,26.14-45.32,34.6a12.14,12.14,0,0,1-2.35,1.41c-41.34,11.68-84.51,2.27-118.87-23.49Z"/><path class="cls-4" d="M121.13,118.79l-.27,0a1.65,1.65,0,0,1-1.24-1c-.08-.2-9.06-20-28.63-27C78.35,86.32,64,88.08,48.43,96a1.64,1.64,0,1,1-1.49-2.93c16.45-8.4,31.65-10.21,45.18-5.39,17.18,6.11,26.47,21,29.45,26.61,12.71-12.58,26.24-13.13,35.52-11.27a49.15,49.15,0,0,1,16.12,6.44c4.2-10.83,10.69-18.3,19.32-22.21,14.77-6.68,30.31-.54,31-.27a1.64,1.64,0,1,1-1.23,3c-.23-.09-15-5.86-28.4.23-8.28,3.77-14.43,11.26-18.28,22.27a1.66,1.66,0,0,1-1.07,1,1.68,1.68,0,0,1-1.47-.26,45.61,45.61,0,0,0-16.71-7.09c-12.84-2.52-24.27,1.52-34,12A1.67,1.67,0,0,1,121.13,118.79Z"/><path class="cls-1" d="M119.67,63.44a4.1,4.1,0,0,1-1.27-1.38,4,4,0,0,1,.62-4.74c1-1,1.93-1.92,2.94-2.84a3.92,3.92,0,0,1-2.14-.67,4,4,0,0,1-1.74-2.74,4,4,0,0,1,3.38-4.54c2.72-.41,5.51-.73,8.28-1a13.68,13.68,0,0,1,6.77.71,3.28,3.28,0,0,1,.67.35A4,4,0,0,1,137,53.4l.87-.07a4,4,0,0,1,4.25,3.73,4,4,0,0,1-3.72,4.25A105.26,105.26,0,0,0,122.77,64,4,4,0,0,1,119.67,63.44Z"/><path class="cls-4" d="M122.44,51.93c2.07-.3,4.16-.55,6.24-.76s4-.51,5.88.23l-.36-2.75a62.39,62.39,0,0,0-13.37,10.4,1.51,1.51,0,0,0,1.46,2.5,107.59,107.59,0,0,1,15.83-2.73,1.5,1.5,0,0,0,0-3,113.1,113.1,0,0,0-16.63,2.84L123,61.17a59.27,59.27,0,0,1,12.76-9.92,1.53,1.53,0,0,0-.35-2.75c-2.13-.83-4.46-.54-6.68-.33s-4.7.52-7,.87a1.51,1.51,0,0,0-1,1.84,1.54,1.54,0,0,0,1.85,1Z"/><path class="cls-1" d="M137.05,48.5a3.94,3.94,0,0,1-.83-1,4,4,0,0,1,.52-4.75c1.7-1.83,3.5-3.59,5.38-5.25l-1.86.31a4,4,0,0,1-3.29-.93,3.93,3.93,0,0,1-1.32-2.35,4,4,0,0,1,3.27-4.61c3.27-.56,6.6-1,9.91-1.38a15.87,15.87,0,0,1,7.79.61,4.22,4.22,0,0,1,1.15.7,4,4,0,0,1-.55,6.45c-1,.62-2.05,1.28-3.06,2,1.62-.25,3.16-.43,4.65-.57a4,4,0,0,1,.71,8,126.2,126.2,0,0,0-18.86,3.69A4,4,0,0,1,137.05,48.5Z"/><path class="cls-1" d="M161.61,39a4.87,4.87,0,0,1-1.35-.89,5,5,0,0,1-1.09-5.88,103.62,103.62,0,0,1,5.7-10.1c-1.22.57-2.43,1.16-3.62,1.75a5,5,0,0,1-6.7-2.26,5,5,0,0,1,2.26-6.7c4-2,8.18-3.9,12.3-5.64,3.08-1.29,6.4-2.53,10.16-2.21a5.16,5.16,0,0,1,1.63.42,5,5,0,0,1,1.65,7.92c-1.51,1.67-3,3.41-4.37,5.2,2.6-1.27,5.06-2.38,7.45-3.33a5,5,0,0,1,6.46,6.61,5,5,0,0,1-2.74,2.67c-8,3.2-15.69,7.76-23.13,12.18A5,5,0,0,1,161.61,39Z"/><path class="cls-4" d="M140.19,36c2.45-.41,4.92-.78,7.39-1.07,2.3-.27,4.74-.73,7,.08L154,30.94a75.56,75.56,0,0,0-15.94,13,2.27,2.27,0,0,0,2.19,3.76,126.79,126.79,0,0,1,18.9-3.71,2.31,2.31,0,0,0,2.25-2.25,2.27,2.27,0,0,0-2.25-2.25,134.81,134.81,0,0,0-20.1,3.87l2.19,3.76a71.11,71.11,0,0,1,15-12.24,2.29,2.29,0,0,0-.54-4.12c-2.63-1-5.46-.56-8.17-.24-2.87.34-5.74.75-8.59,1.23a2.26,2.26,0,0,0-1.57,2.77A2.31,2.31,0,0,0,140.19,36Z"/><path class="cls-4" d="M160.55,22q4.65-2.29,9.42-4.39c2.8-1.23,5.74-2.73,8.88-2.55l-2.13-5.12a102,102,0,0,0-15.65,23c-1.28,2.58,1.38,5.71,4.1,4.1,7.49-4.44,15-8.95,23.12-12.22a3.09,3.09,0,0,0,2.09-3.69c-.39-1.42-2.18-2.7-3.69-2.09-8.6,3.47-16.59,8.1-24.54,12.82l4.1,4.1A96.14,96.14,0,0,1,181,14.15,3,3,0,0,0,178.85,9c-3.93-.23-7.54,1.48-11,3s-6.89,3.1-10.28,4.77a3,3,0,1,0,3,5.18Z"/></g></g></svg>