<svg xmlns="http://www.w3.org/2000/svg" viewBox="0 0 192 192"><defs><style>.cls-1{fill:#0d0c38;}.cls-2{fill:#fff;}.cls-3{fill:#f28e22;}.cls-4{fill:#ff0;}.cls-5{fill:aqua;}.cls-6{fill:blue;}.cls-7{fill:lime;}.cls-8{fill:red;}.cls-9{fill:#f0f;}.cls-10{fill:none;stroke:#0d0c38;stroke-miterlimit:10;stroke-width:4px;}</style></defs><g id="Capa_2" data-name="Capa 2"><g id="Capa_1-2" data-name="Capa 1"><path class="cls-1" d="M160.07,96.27a237.57,237.57,0,0,1-49-5.33A282.57,282.57,0,0,1,80.29,82.5L69.17,78.9c-.78-.25-1.57-.46-2.35-.68l-1.32-.37c-4.4-1.29-9.18-2.48-14.64-3.65a156.79,156.79,0,0,0-28.24-3.42l-2.94,0a116.26,116.26,0,0,0-14.08.84l-1.49.18.81-2.86.65-.08a120,120,0,0,1,15.06-.94l2,0a153.65,153.65,0,0,1,28.82,3.31c5.52,1.17,10.38,2.36,14.86,3.66l1.3.37c.82.22,1.64.45,2.45.7l11.16,3.58a280.45,280.45,0,0,0,30.47,8.28,234.83,234.83,0,0,0,48.87,5.38c4.35,0,8.67-.14,12.84-.43,5.47-.37,11-1,16.31-1.8l1.11-.17,0,1.11c0,.33.06,1.87.06,1.87l-.86.15c-5.49.88-11,1.52-16.47,1.88C169.24,96.11,164.68,96.27,160.07,96.27Z"/><path class="cls-2" d="M22.64,69.78a159,159,0,0,1,28.43,3.44c4.87,1,9.79,2.22,14.7,3.67,1.23.35,2.48.67,3.71,1.06l3.68,1.19,7.44,2.41A281.32,281.32,0,0,0,111.28,90c20.86,4.41,42.32,6.25,62.3,4.84,5.6-.37,11.06-1,16.36-1.87l0-1c-5.32.82-10.8,1.43-16.4,1.81-19.87,1.35-41.22-.54-62-5A283.34,283.34,0,0,1,81,80.49l-7.45-2.4-3.71-1.18c-1.23-.4-2.48-.71-3.72-1.06-4.94-1.44-9.89-2.62-14.79-3.65a153.38,153.38,0,0,0-28.62-3.29,118,118,0,0,0-17,.91c-.08.26-.15.52-.22.78A118.15,118.15,0,0,1,22.64,69.78Z"/><path class="cls-1" d="M162.34,112.32a177.61,177.61,0,0,1-25.86-1.91,185,185,0,0,1-26.37-5.88A231.23,231.23,0,0,1,79.89,93.47c-2.41-1-4.83-2.09-7.24-3.12l-3.6-1.52c-.8-.34-1.6-.64-2.4-1l-1.19-.46C61,85.69,56.33,84.08,51.17,82.5a149.83,149.83,0,0,0-28-5.85,106.8,106.8,0,0,0-10.91-.57c-2.67,0-5.31.11-7.87.32L3,76.51l.52-2.31.16-.68.69-.09c2.19-.26,4.35-.45,6.43-.55,1.57-.08,3.19-.12,4.8-.12.91,0,1.82,0,2.74,0a120.61,120.61,0,0,1,19.85,2.27c3,.57,6,1.25,9,2,5.23,1.36,10,2.82,14.66,4.46l1.06.39c1,.39,2.09.78,3.13,1.21l3.59,1.39q3.62,1.41,7.24,2.87c7.07,2.9,13.38,5.38,19.29,7.58,3.48,1.29,6.76,2.43,10,3.48,1.88.61,3.75,1.19,5.57,1.72,5.38,1.58,10.84,3,16.23,4.09a188.93,188.93,0,0,0,32.74,4c1.76.06,3.52.09,5.25.09h.72a174.8,174.8,0,0,0,22.48-1.58l1.29-.18-.16,1.29c0,.41-.11.81-.17,1.22l-.12.9-1.64.27-1.93.32c-2.55.36-5.13.67-7.68.91-5.38.53-10.89.8-16.38.8Z"/><path class="cls-2" d="M23.23,75.65a150.88,150.88,0,0,1,28.23,5.89C56.23,83,61,84.62,65.82,86.49c1.2.47,2.42.91,3.62,1.41l3.61,1.53,7.25,3.12a229,229,0,0,0,30.1,11,184.9,184.9,0,0,0,26.23,5.85,175.7,175.7,0,0,0,25.71,1.9c5.54,0,11-.27,16.29-.79,2.57-.25,5.12-.56,7.62-.91,1-.14,1.89-.31,2.83-.46.06-.46.13-.92.19-1.38a174.66,174.66,0,0,1-22.61,1.59c-2,0-4,0-6-.09a189.36,189.36,0,0,1-32.92-4c-5.47-1.14-10.92-2.52-16.3-4.1q-2.81-.82-5.6-1.73-5.07-1.64-10-3.49c-6.49-2.42-12.94-5-19.32-7.59q-3.61-1.45-7.22-2.87l-3.61-1.4c-1.37-.56-2.77-1.06-4.15-1.58-4.86-1.72-9.73-3.17-14.57-4.43-3-.78-6-1.45-8.91-2A119.71,119.71,0,0,0,18.31,73.8q-3.79-.1-7.46.08c-2.16.1-4.28.29-6.36.55-.08.32-.15.65-.22,1A103.24,103.24,0,0,1,23.23,75.65Z"/><path class="cls-1" d="M165,128.38A157.93,157.93,0,0,1,137.5,126a158.9,158.9,0,0,1-28.34-7.83,196.84,196.84,0,0,1-29.66-13.7c-2.34-1.29-4.69-2.57-7-3.82-1.17-.63-2.35-1.25-3.52-1.86-.85-.44-1.71-.86-2.57-1.28l-1-.47c-4.44-2.18-9.13-4.27-13.94-6.2a143.67,143.67,0,0,0-27.84-8.28A93.36,93.36,0,0,0,7.08,81c-1.23,0-2.47,0-3.68.09l-1.24,0s.34-2,.4-2.3l.14-.75L3.45,78c1-.1,2-.18,3.06-.23,1.41-.08,2.86-.12,4.31-.12,1.06,0,2.12,0,3.19.06a102.35,102.35,0,0,1,20,2.86c2.9.68,5.88,1.5,8.86,2.42,4.91,1.54,9.77,3.31,14.44,5.26l.17.08c1.46.65,3,1.33,4.46,2L65.4,92c2.29,1.07,4.65,2.2,7,3.36,4.84,2.39,9.69,4.83,14.54,7.27l4,2c3.42,1.72,6.54,3.2,9.55,4.54,1.8.8,3.59,1.56,5.32,2.26,5.17,2.11,10.44,4,15.67,5.57a167.84,167.84,0,0,0,32.33,6.5c2,.2,4,.36,6,.47,3,.17,6.1.26,9.12.26a158.9,158.9,0,0,0,16.55-.86l1.52-.16-.47,1.45c-.18.58-.36,1.15-.55,1.72l-.2.59-2,.27a155.61,155.61,0,0,1-18,1.14Z"/><path class="cls-2" d="M23.82,81.52a144.58,144.58,0,0,1,28,8.34q7,2.82,14,6.23c1.18.59,2.37,1.15,3.54,1.76l3.53,1.86c2.35,1.26,4.71,2.54,7.06,3.84a194.43,194.43,0,0,0,29.53,13.63A157.34,157.34,0,0,0,137.67,125a156.65,156.65,0,0,0,28.09,2.42,156.27,156.27,0,0,0,17.92-1.13l1.41-.19c.19-.56.37-1.13.55-1.7a160.13,160.13,0,0,1-25.83.61c-2-.12-4-.27-6-.47A169.31,169.31,0,0,1,121.25,118c-5.33-1.63-10.6-3.5-15.75-5.6-1.81-.73-3.59-1.49-5.36-2.28-3.24-1.44-6.43-3-9.59-4.56-6.2-3.11-12.4-6.25-18.58-9.3-2.33-1.15-4.66-2.26-7-3.35l-3.5-1.61c-1.52-.74-3.06-1.42-4.59-2.11-4.77-2-9.57-3.73-14.35-5.22-2.94-.91-5.87-1.72-8.79-2.41A101.63,101.63,0,0,0,14,78.69c-2.51-.1-5-.08-7.41.06-1,0-2,.13-3,.23-.06.35-.12.71-.19,1.07A91.52,91.52,0,0,1,23.82,81.52Z"/><path class="cls-1" d="M167.92,144.44a147,147,0,0,1-29.4-3,145,145,0,0,1-30.29-9.78,172.44,172.44,0,0,1-29.11-16.33c-2.31-1.56-4.62-3.09-6.85-4.53-1.15-.74-2.29-1.47-3.44-2.19s-2.21-1.36-3.32-2l-.12-.07c-4.48-2.69-9-5.21-13.6-7.49A140.5,140.5,0,0,0,24.16,88.36,82.6,82.6,0,0,0,3.64,85.59H1.56l.26-2.15.11-.82.83,0c1.21-.07,2.42-.1,3.61-.1s2.22,0,3.31.08A91.12,91.12,0,0,1,29.78,86c2.85.8,5.79,1.75,8.73,2.82a152.13,152.13,0,0,1,14.23,6.06c2,1,3.6,1.85,5.06,2.65,1.12.59,2.26,1.2,3.39,1.82,2.21,1.21,4.5,2.5,6.8,3.84,5.53,3.24,11.37,6.85,17.87,11,3.31,2.15,6.29,4,9.09,5.6,1.72,1,3.43,1.94,5.08,2.81a158.74,158.74,0,0,0,15.12,7,150.55,150.55,0,0,0,31.91,9c2,.33,4,.61,6,.85a149.75,149.75,0,0,0,17.59,1c2.52,0,5.08-.06,7.58-.19l1.81-.09-.88,1.57c-.32.58-.64,1.15-1,1.71l-.26.46-.53,0c-3,.19-5.7.3-8.24.32Z"/><path class="cls-2" d="M24.41,87.39A141,141,0,0,1,52.24,98.18q6.87,3.45,13.67,7.52c1.15.69,2.31,1.38,3.45,2.1l3.45,2.2q3.45,2.22,6.88,4.55a171.72,171.72,0,0,0,29,16.24,144,144,0,0,0,30.08,9.71,145.75,145.75,0,0,0,30.45,2.94c2.76,0,5.48-.15,8.18-.32.33-.56.64-1.12,1-1.69a150.48,150.48,0,0,1-25.35-.85c-2-.25-4-.53-6.06-.86a152.29,152.29,0,0,1-32.13-9.07,164.19,164.19,0,0,1-15.21-7.09c-1.73-.91-3.43-1.86-5.11-2.83-3.11-1.8-6.14-3.69-9.14-5.63-5.9-3.81-11.84-7.52-17.83-11-2.25-1.31-4.5-2.59-6.77-3.82-1.13-.62-2.26-1.23-3.39-1.82-1.67-.92-3.34-1.78-5-2.63a153.28,153.28,0,0,0-14.14-6c-2.89-1.05-5.78-2-8.66-2.8A90.36,90.36,0,0,0,9.63,83.58a67.18,67.18,0,0,0-6.81,0c0,.33-.09.66-.13,1A83.13,83.13,0,0,1,24.41,87.39Z"/><path class="cls-1" d="M165.37,160.39A141.79,141.79,0,0,1,139.55,157a138.35,138.35,0,0,1-32.25-11.73,157.29,157.29,0,0,1-28.55-19,241.22,241.22,0,0,0-26.64-19A135.79,135.79,0,0,0,24.68,94.21,75.39,75.39,0,0,0,2.24,90.07l-1.06,0,.2-2.67h.94a78.11,78.11,0,0,1,23.25,4.12,138.26,138.26,0,0,1,28.1,13.25,243.61,243.61,0,0,1,27,19.15c5.24,4.23,9.39,7.32,13.47,10a144.11,144.11,0,0,0,14.57,8.53A137.71,137.71,0,0,0,140.25,154a138.84,138.84,0,0,0,26.13,3.39l2.12.07L167.09,159l-1,1.06-.31.34Z"/><path class="cls-2" d="M140,154.93a139,139,0,0,1-31.74-11.59,145.82,145.82,0,0,1-14.66-8.58c-4.72-3.12-9.19-6.55-13.55-10.07a243.52,243.52,0,0,0-26.92-19.07,137.11,137.11,0,0,0-27.9-13.16,77.54,77.54,0,0,0-23-4.07c0,.22,0,.45-.05.68A76.75,76.75,0,0,1,25,93.26,137.76,137.76,0,0,1,52.63,106.5a242.47,242.47,0,0,1,26.75,19,157,157,0,0,0,28.37,18.85,137.43,137.43,0,0,0,32,11.64,140.92,140.92,0,0,0,25.64,3.35l.93-1A140.45,140.45,0,0,1,140,154.93Z"/><path class="cls-1" d="M42.81,109.92l4.57.87a21.08,21.08,0,0,1,6.41-3.36A20.6,20.6,0,0,1,64,106.7a15.42,15.42,0,0,1,12.16,10.21c2.77,8.51-2.72,17.67-12.48,20.86-.6.19-1.2.36-1.81.5l-5.33,30.25-23.35-4.16Z"/><path class="cls-3" d="M47.85,117.22l1.46.28a14.28,14.28,0,0,1,6.41-4.15,14.49,14.49,0,0,1,7.14-.53,9.29,9.29,0,0,1,7.4,6c1.68,5.19-2.05,10.9-8.5,13a14.68,14.68,0,0,1-5.19.75l-5.06,28.7-11.08-2Z"/><path class="cls-1" d="M65.52,120.39c-.81-2.49-4.51-3.52-8.25-2.3-2.89,1-5,3-5.38,5h0L46.2,155.28l1.26.23L52.67,126c1.43,1.59,4.47,2.1,7.54,1.1C64,125.88,66.33,122.88,65.52,120.39Z"/><path class="cls-1" d="M112.74,104.46l1.72-10.36L117.67,59h3.89A18.52,18.52,0,0,1,134,54a14.66,14.66,0,0,1,9.67,3.43l.85-.38a18.1,18.1,0,0,1,7-1.45c6,0,11,3.13,13.11,8.17a13.35,13.35,0,0,1-1.4,12.73,17.56,17.56,0,0,1-7.83,6.36l-.73.29-2.28,24.93Z"/><path class="cls-4" d="M118.68,99.87l.85-5.11,2.8-30.69h1.48A12.58,12.58,0,0,1,129,60.15a13.12,13.12,0,0,1,5-1c3.87,0,7.09,1.93,8.4,5l.09.22a12.9,12.9,0,0,1,4-2.62,13.12,13.12,0,0,1,5-1c3.87,0,7.09,1.93,8.4,5a8.31,8.31,0,0,1-.95,7.93,12.49,12.49,0,0,1-5.56,4.48,13.65,13.65,0,0,1-3.5.94l-.32,3.54-1.82,19.89ZM138.2,83.68l.83-9a13.64,13.64,0,0,1-6.64,2.8l-.51,5.61Z"/><path class="cls-1" d="M155.22,67.74c-.82-1.93-3.83-2.51-6.74-1.28-2.24.94-3.76,2.69-4,4.32h0l-1.69,18.45-16.49-1.5,1.48-16.26c1.26,1.18,3.72,1.38,6.1.38,2.91-1.23,4.6-3.78,3.79-5.72s-3.83-2.5-6.74-1.27c-2.24.94-3.76,2.68-4,4.32h0l-2.38,26.09h0v0L143.16,97l.35-3.9h0l.2-2.24h0l.13-1.51h0l1.48-16.25c1.26,1.17,3.72,1.38,6.1.37C154.34,72.23,156,69.67,155.22,67.74ZM142.48,93,126,91.48l.21-2.24,16.5,1.51Z"/><path class="cls-1" d="M31.09,127a27.91,27.91,0,0,1-5.32-.54l-6-1.16.12-1.14a18.79,18.79,0,0,1-5.64-5,18,18,0,0,1-2.09-17.93,16.8,16.8,0,0,1,2.15-3.71,22.59,22.59,0,0,1-2.78-7.7c-2-12.09,5.34-23.43,19.59-30.34C33.83,42.34,44.68,38,47,37.31l4.62-1.5L55.74,38c1.73.91,10.36,6.12,10.19,20-.07,4.84-2,11.6-10.05,18.05a20,20,0,0,1,2.9,22.78,19.46,19.46,0,0,1-7.47,7.72L51,110c-.18,1.66-1.4,9.73-8.54,13.89A22,22,0,0,1,31.09,127Z"/><path class="cls-5" d="M31.09,120.29a21.2,21.2,0,0,1-4.05-.42v0a12.65,12.65,0,0,1-7.43-4.7,11.35,11.35,0,0,1-1.29-11.3,9.47,9.47,0,0,1,5.49-5.3,16.16,16.16,0,0,1-5.68-9.81c-1.48-9,4.51-17.74,16-23.28,1.11-.54,2.18-1.1,3.18-1.66C38.65,47.46,47.89,44.05,49,43.71l2-.65,1.67.87c.68.36,6.7,3.8,6.58,14-.08,5.71-4,11.09-11.48,15.64l-.41,4.23a12.8,12.8,0,0,1,2.94,2.11,13.28,13.28,0,0,1,2.6,15.77,13.51,13.51,0,0,1-7.87,6.4l-.7,7.32c-.07.68-.8,6.15-5.23,8.73a15.3,15.3,0,0,1-8,2.18Z"/><path class="cls-1" d="M47.18,83.12a8,8,0,0,0-4.64-2.2l1-10.1c5.78-3.15,11.17-7.62,11.23-13,.1-7.72-4.18-10-4.18-10l-.23.07c-.33.11-8.1,2.79-8.63,18,0,.14,0,.27,0,.41a56,56,0,0,1-5.57,3.07C26.47,74.12,21.4,81,22.55,88c.87,5.32,5.42,9.38,11.29,10.11a23.1,23.1,0,0,0,5,.45c-.67,5.8-1.19,9.85-1.21,10s-.4,5.8-6.17,6.44a9.19,9.19,0,0,1-4.29-.5,4.12,4.12,0,0,1-1.87-3.73,4.25,4.25,0,0,0,1.9.64,4.42,4.42,0,0,0,1.62-8.65,5,5,0,0,0-6.35,2.84,6.84,6.84,0,0,0,.74,6.9,8.2,8.2,0,0,0,4.88,3h-.18c3.84.74,6.42.22,8.92-1.23s3-5.3,3-5.3l1-10.52c3.83-.49,6.61-2.16,8.06-4.88A8.78,8.78,0,0,0,47.18,83.12Zm-.45,6.76a5.7,5.7,0,0,1-.71,4,8.26,8.26,0,0,1-5,2.76l.36-3.74.81-8.49A6.67,6.67,0,0,1,46.73,89.88ZM44.39,61.69c1.13-6.23,6.91-10.51,6.91-10.51a9.08,9.08,0,0,1,0,4.28c-.78,3.19-3.23,6.33-7.18,9.29ZM27.78,92.54c-4.39-6.87.75-15.61,8.21-18.33,1.66-.61,3.52-1.38,5.39-2.29-.19,2.85-.43,5.91-.71,9a10.88,10.88,0,0,0-4.27,1.49s-5.47,3.19-2.57,8.71a4.57,4.57,0,0,0,3.52,1.8,5.14,5.14,0,0,1-1.91-6.2c.61-1.91,2.7-2.85,4.93-2.7-.44,4.55-.92,9-1.36,12.89C34.76,97.24,29.93,95.91,27.78,92.54Z"/><path class="cls-1" d="M165.91,120.56c-5.35,0-9.91-2.56-12.2-6.86a13.14,13.14,0,0,1,.29-12.6,18.42,18.42,0,0,1,7.59-7.37,19.59,19.59,0,0,1,2.91-1.27V62H184v51.45H180.6a19.08,19.08,0,0,1-5.92,4.84A18.69,18.69,0,0,1,165.91,120.56Z"/><path class="cls-6" d="M165.91,116a8.94,8.94,0,0,1-8.18-4.45,8.65,8.65,0,0,1,.28-8.3,13.84,13.84,0,0,1,5.72-5.51,14.31,14.31,0,0,1,5.32-1.66V66.55h10.42v42.34h-1.28a13.82,13.82,0,0,1-5.65,5.38A14.12,14.12,0,0,1,165.91,116Z"/><path class="cls-1" d="M174.91,71.11h-1.3v30.46c-1.72-1.35-4.83-1.36-7.74.19-3.53,1.89-5.38,5.31-4.13,7.66s5.13,2.72,8.66.83c2.73-1.45,4.44-3.82,4.5-5.91h0Z"/><path class="cls-1" d="M94.21,122.5c-13.89,0-24.75-8.83-24.73-20s10.89-20,24.75-20,24.79,8.84,24.77,20-10.89,20-24.75,20Z"/><path class="cls-2" d="M94.21,117.22c-10.92,0-19.46-6.5-19.45-14.75s8.56-14.69,19.47-14.69,19.5,6.51,19.49,14.75-8.57,14.69-19.47,14.69Zm-3.45-15.67a10.33,10.33,0,0,0,3.32,1.53,10.85,10.85,0,0,0,2.86.41,6.14,6.14,0,0,0,.78,0,10.33,10.33,0,0,0-3.32-1.53,10.85,10.85,0,0,0-2.86-.41A6.14,6.14,0,0,0,90.76,101.55Z"/><path class="cls-1" d="M94.26,93.06c-7.85,0-14.21,4.2-14.22,9.42s6.34,9.45,14.18,9.46,14.21-4.2,14.22-9.42S102.1,93.08,94.26,93.06Zm9.68,12.1c-.86,3.13-5.9,4.48-11.25,3s-9-5.2-8.15-8.34,5.89-4.48,11.25-3S104.8,102,103.94,105.16Z"/><path class="cls-1" d="M81.64,88.8c-10.27,0-18.44-6-20.33-14.92-2.24-10.62,5.55-21,17.75-23.54q1.05-.23,2.1-.36L91.41,14.51l24.15,6.92-.31,8.06c11.86,12.79,5.48,25,.54,31.25l-4,5-4.31-2.94-6.91,23.91-5.45-1.64A26.42,26.42,0,0,1,81.64,88.8Z"/><path class="cls-7" d="M81.64,82c-7,0-12.44-3.82-13.64-9.5C66.55,65.6,72,58.82,80.47,57a19.7,19.7,0,0,1,4-.43c.63,0,1.25,0,1.85.09L96.08,23l12.44,3.57-.19,5.16.06.19a5.74,5.74,0,0,0,1.25,1.63c2.61,2.65,10.53,10.71.79,23l-6.85-4.67L96,78.15l-2.07-.62a18.11,18.11,0,0,1-8.24,4A19.47,19.47,0,0,1,81.64,82Z"/><path class="cls-1" d="M104.77,38.31A11.84,11.84,0,0,1,102,34.24a6.27,6.27,0,0,1-.49-2.62l-.73-.21L90.77,66c-1.52-2.09-5.08-3.09-8.88-2.29-4.63,1-7.85,4.27-7.2,7.35s4.94,4.78,9.56,3.79c3.58-.75,6.31-2.89,7.06-5.24h0L100.6,37.5c1.11,2.73,5,5.15,5.79,8.06s-1.31,6.68-1.31,6.68C110.72,45.13,107.87,41.46,104.77,38.31Z"/><path class="cls-1" d="M146.18,170.12A14.59,14.59,0,0,1,134,166.19c-6.11-6.05-5.51-16.24,1.38-23.22.29-.29.58-.58.88-.85l-8.4-26.91,19.28-6,3.29,5.41c13.55,3.45,14.05,15.17,13.61,20.15l-.49,5.66-3.54,0,6,19.36-5.77.75a20.18,20.18,0,0,1-3.1,4A19,19,0,0,1,146.18,170.12Z"/><path class="cls-8" d="M145.39,164.06a8.52,8.52,0,0,1-7.14-2.23c-3.68-3.63-3-10,1.43-14.56a14.46,14.46,0,0,1,3.7-2.72l-7.9-25.32,8.87-2.77,2,3.26.06,0h.06a4.38,4.38,0,0,0,1.58.57c2.69.56,10.87,2.3,9.86,13.87l-6.3-.08L158,154.59l-1.89.25a13.62,13.62,0,0,1-3.32,5.35A12.88,12.88,0,0,1,145.39,164.06Z"/><path class="cls-1" d="M147,125.12a8.81,8.81,0,0,1-3.46-1.41,4.59,4.59,0,0,1-1.4-1.44l-.55.17,8.11,26c-1.82-.68-4.49.17-6.55,2.26-2.52,2.55-3.18,6-1.48,7.64s5.1,1,7.61-1.59c1.95-2,2.78-4.46,2.27-6.26h0l-7.53-24.14c1.83,1.26,5.33,1.15,7,2.67s2,4.77,2,4.77C153.62,127,150.29,125.82,147,125.12Z"/><path class="cls-1" d="M83.47,182a15.3,15.3,0,0,1-10.68-4.23c-6.3-6.08-6.17-16.19.16-23.4l-7.68-23.65L122.6,112.1l3.16,12.62,10.57,32.52-3.67,2.29a19.88,19.88,0,0,1-4.11,6.21,18.81,18.81,0,0,1-13.38,6,15.73,15.73,0,0,1-3-.29,18.74,18.74,0,0,1-12.85,5.43,15.72,15.72,0,0,1-3-.28A18.74,18.74,0,0,1,83.47,182Z"/><path class="cls-9" d="M83.47,174.16a7.48,7.48,0,0,1-5.24-2c-3.36-3.23-2.9-9,1-13A12.8,12.8,0,0,1,82,156.91l-6.88-21.16L117,122.14l1.18,4.74,8.76,27-.93.59a11.6,11.6,0,0,1-3.14,5.88,11,11,0,0,1-7.74,3.57h0a7.51,7.51,0,0,1-5.25-2.05l-.29-.3a12.12,12.12,0,0,1-2.57,3.93A11,11,0,0,1,99.32,169,7.51,7.51,0,0,1,94.07,167l-.17-.18h-.17a12.25,12.25,0,0,1-2.51,3.8A11,11,0,0,1,83.47,174.16ZM93,157a12.63,12.63,0,0,1,2.16-3,12.8,12.8,0,0,1,2.76-2.17l-3-9.15-6,1.94Zm15.85-5.15a12.78,12.78,0,0,1,2.16-3,12.21,12.21,0,0,1,2.76-2.17l-3-9.16-6,1.95Z"/><path class="cls-1" d="M113.71,128.18h0l-32.63,10.6,1,3.06h0l6,18.56c-1.53-.55-3.75.19-5.45,2-2.07,2.15-2.59,5-1.16,6.39s4.27.75,6.34-1.4c1.6-1.66,2.27-3.74,1.84-5.24h0L83,141.53l14.92-4.84,6,18.56c-1.53-.56-3.75.18-5.45,1.94-2.07,2.16-2.59,5-1.16,6.39s4.27.75,6.34-1.4c1.6-1.66,2.27-3.74,1.83-5.24h0l-6.67-20.56,14.92-4.84,6,18.56c-1.53-.56-3.75.18-5.45,2-2.07,2.15-2.59,5-1.16,6.39s4.27.75,6.34-1.41c1.6-1.66,2.27-3.74,1.83-5.24h0Z"/><circle id="Circle" class="cls-10" cx="96" cy="96" r="94"/></g></g></svg>