<svg xmlns="http://www.w3.org/2000/svg" viewBox="0 0 128.64 191.1"><defs><style>.cls-1,.cls-2{fill:#fff;stroke:#fff;}.cls-1,.cls-2,.cls-3,.cls-4,.cls-5,.cls-6{stroke-miterlimit:10;}.cls-1,.cls-4{stroke-width:4px;}.cls-2,.cls-3{stroke-linecap:round;}.cls-2,.cls-3,.cls-5,.cls-6{stroke-width:3px;}.cls-3{fill:none;}.cls-3,.cls-4,.cls-5,.cls-6{stroke:#394e72;}.cls-4{fill:#d7e4ef;}.cls-5{fill:#f97272;}.cls-6{fill:#98dfff;}</style></defs><g id="Capa_2" data-name="Capa 2"><g id="Apps1"><g id="Termometro"><path class="cls-1" d="M37,189.1a35,35,0,0,1-2.67-69.9L89.84,12.49a19.5,19.5,0,0,1,34.6,18L68.3,138.39A35,35,0,0,1,37,189.1Z"/><path class="cls-2" d="M84.87,20.54a5,5,0,0,1-2.3-.56l-14.2-7.39A5,5,0,1,1,73,3.72l14.19,7.39a5,5,0,0,1-2.31,9.43Z"/><line class="cls-3" x1="70.68" y1="8.16" x2="84.87" y2="15.54"/><path class="cls-2" d="M77,35.62a5,5,0,0,1-2.3-.56l-14.2-7.39a5,5,0,0,1,4.62-8.87l14.19,7.39A5,5,0,0,1,77,35.62Z"/><line class="cls-3" x1="62.83" y1="23.24" x2="77.03" y2="30.62"/><path class="cls-2" d="M68.71,51.59a4.92,4.92,0,0,1-2.3-.57L52.22,43.64a5,5,0,1,1,4.61-8.87L71,42.15a5,5,0,0,1-2.32,9.44Z"/><line class="cls-3" x1="54.52" y1="39.2" x2="68.72" y2="46.59"/><path class="cls-2" d="M60.87,66.67a5,5,0,0,1-2.31-.56L44.37,58.72A5,5,0,1,1,49,49.85l14.19,7.38a5,5,0,0,1-2.31,9.44Z"/><line class="cls-3" x1="46.68" y1="54.28" x2="60.87" y2="61.67"/><path class="cls-2" d="M53,81.75a5,5,0,0,1-2.3-.56L36.52,73.8a5,5,0,1,1,4.62-8.87l14.19,7.39A5,5,0,0,1,53,81.75Z"/><line class="cls-3" x1="38.83" y1="69.37" x2="53.02" y2="76.75"/><path class="cls-2" d="M44.71,97.72a4.89,4.89,0,0,1-2.3-.57l-14.2-7.38a5,5,0,0,1,4.62-8.87L47,88.28a5,5,0,0,1-2.31,9.44Z"/><line class="cls-3" x1="30.52" y1="85.33" x2="44.72" y2="92.72"/><path class="cls-2" d="M35.52,113.23a5.05,5.05,0,0,1-2.31-.57L19,105.27a5,5,0,1,1,4.62-8.87l14.19,7.39a5,5,0,0,1-2.31,9.44Z"/><line class="cls-3" x1="21.33" y1="100.84" x2="35.52" y2="108.22"/><path class="cls-4" d="M62.62,138.46,120,28.18A14.5,14.5,0,1,0,94.28,14.8L37.41,124.1a30,30,0,1,0,25.21,14.36Z"/><path class="cls-5" d="M48,145,95,54.62l-8-4.16L40.12,140.55A15,15,0,1,0,48,145Z"/><path class="cls-6" d="M110.9,24a4.5,4.5,0,1,0-8-4.15L87,50.46l8,4.16Z"/></g></g></g></svg>