<svg xmlns="http://www.w3.org/2000/svg" viewBox="0 0 209.01 204.48"><defs><style>.cls-1,.cls-2{fill:#fff;stroke:#fff;}.cls-1,.cls-2,.cls-3,.cls-4,.cls-5,.cls-6{stroke-miterlimit:10;}.cls-1,.cls-4{stroke-width:4px;}.cls-2,.cls-3{stroke-linecap:round;}.cls-2,.cls-3,.cls-5,.cls-6{stroke-width:3px;}.cls-3{fill:none;}.cls-3,.cls-4,.cls-5,.cls-6{stroke:#394e72;}.cls-4{fill:#d7e4ef;}.cls-5{fill:#f97272;}.cls-6{fill:#98dfff;}</style></defs><g id="Capa_2" data-name="Capa 2"><g id="Apps1"><g id="Termometro"><path class="cls-1" d="M29.46,199.61a42.84,42.84,0,0,1,27.61-81.05L167.34,21A23.87,23.87,0,0,1,199,56.73L87.48,155.4a42.85,42.85,0,0,1-58,44.21Z"/><path class="cls-2" d="M158.12,28a6,6,0,0,1-2.38-1.66l-13-14.66a6.12,6.12,0,1,1,9.16-8.12l13,14.67A6.12,6.12,0,0,1,158.12,28Z"/><line class="cls-3" x1="147.34" y1="7.62" x2="160.32" y2="22.29"/><path class="cls-2" d="M142.54,41.79a6.05,6.05,0,0,1-2.39-1.66l-13-14.66a6.12,6.12,0,0,1,9.17-8.12l13,14.67a6.12,6.12,0,0,1-6.78,9.77Z"/><line class="cls-3" x1="131.76" y1="21.41" x2="144.74" y2="36.08"/><path class="cls-2" d="M126,56.39a6.13,6.13,0,0,1-2.39-1.65l-13-14.67A6.12,6.12,0,0,1,119.84,32l13,14.66A6.12,6.12,0,0,1,126,56.39Z"/><line class="cls-3" x1="115.26" y1="36.01" x2="128.24" y2="50.68"/><path class="cls-2" d="M110.45,70.18a6.1,6.1,0,0,1-2.38-1.65l-13-14.67a6.12,6.12,0,0,1,9.17-8.11l13,14.66a6.12,6.12,0,0,1-6.79,9.77Z"/><line class="cls-3" x1="99.67" y1="49.8" x2="112.65" y2="64.47"/><path class="cls-2" d="M94.87,84a6,6,0,0,1-2.38-1.65l-13-14.67a6.12,6.12,0,1,1,9.16-8.11l13,14.66A6.12,6.12,0,0,1,94.87,84Z"/><line class="cls-3" x1="84.09" y1="63.59" x2="97.07" y2="78.26"/><path class="cls-2" d="M78.37,98.57A6,6,0,0,1,76,96.92L63,82.25a6.12,6.12,0,1,1,9.16-8.11l13,14.67a6.11,6.11,0,0,1-6.78,9.76Z"/><line class="cls-3" x1="67.59" y1="78.2" x2="80.57" y2="92.86"/><path class="cls-2" d="M61.06,112.26a6,6,0,0,1-2.38-1.66l-13-14.66a6.12,6.12,0,0,1,9.16-8.12l13,14.67a6.12,6.12,0,0,1-6.78,9.77Z"/><line class="cls-3" x1="50.28" y1="91.88" x2="63.26" y2="106.55"/><path class="cls-4" d="M81,153l114-100.84a17.75,17.75,0,1,0-23.53-26.59l-112.94,100A36.72,36.72,0,1,0,81,153Z"/><path class="cls-5" d="M61.34,154l93.38-82.64-7.3-8.25L54.33,145.51a18.36,18.36,0,1,0,7,8.5Z"/><path class="cls-6" d="M186.35,43.39a5.51,5.51,0,0,0-7.3-8.25l-31.63,28,7.3,8.25Z"/></g></g></g></svg>