<svg xmlns="http://www.w3.org/2000/svg" viewBox="0 0 224.36 203"><defs><style>.cls-1,.cls-5{fill:#fff;}.cls-2,.cls-3{fill:#fff176;}.cls-10,.cls-11,.cls-12,.cls-13,.cls-2,.cls-3,.cls-4,.cls-5,.cls-6,.cls-7,.cls-8{stroke:#394e72;}.cls-10,.cls-11,.cls-12,.cls-13,.cls-2,.cls-4,.cls-5,.cls-6,.cls-7,.cls-8{stroke-miterlimit:10;}.cls-10,.cls-11,.cls-12,.cls-2,.cls-3,.cls-4,.cls-5,.cls-6,.cls-7,.cls-8{stroke-width:4px;}.cls-3{stroke-linecap:square;stroke-linejoin:round;}.cls-4{fill:#ccd1d9;}.cls-6{fill:#ff0606;}.cls-7{fill:#eddd6b;}.cls-8{fill:#e3f2fd;}.cls-9{fill:#aaa;opacity:0.18;}.cls-10,.cls-11{fill:none;}.cls-11{stroke-linecap:round;}.cls-12{fill:#cce1ed;}.cls-13{fill:#e4e7e9;stroke-width:3px;}</style></defs><g id="Capa_2" data-name="Capa 2"><g id="Apps1"><g id="vacunas"><g id="frasco"><path class="cls-1" d="M154.4,203a21.57,21.57,0,0,1-21.31-21.78V132.85a7.41,7.41,0,0,1,4.7-6.9l12.51-8a12.82,12.82,0,0,1-5.17-10.31v-.92A12.68,12.68,0,0,1,157.7,94H184a12.68,12.68,0,0,1,12.57,12.76v.92A12.81,12.81,0,0,1,191.47,118L204,126a7.41,7.41,0,0,1,4.68,6.89v48.37A21.58,21.58,0,0,1,187.32,203Z"/><path class="cls-2" d="M140.09,134.45h61.55a0,0,0,0,1,0,0v47.62A13.93,13.93,0,0,1,187.71,196H154a13.93,13.93,0,0,1-13.93-13.93V134.45A0,0,0,0,1,140.09,134.45Z"/><polygon class="cls-3" points="201.64 133.78 182.24 121.74 159.63 121.74 140.09 133.78 201.64 133.78"/><polygon class="cls-3" points="159.63 121.74 159.63 114.15 182.24 114.38 182.24 121.74 159.63 121.74"/><rect class="cls-4" x="152.13" y="101" width="37.46" height="12.04" rx="5.18"/><rect class="cls-5" x="149.45" y="143.15" width="43.49" height="43.49" rx="2.49"/><polygon class="cls-6" points="184.91 159.87 175.54 159.87 175.54 150.51 165.51 150.51 165.51 159.87 156.81 159.87 156.81 169.91 165.51 169.91 165.51 178.61 175.54 178.61 175.54 169.91 184.91 169.91 184.91 159.87"/></g><g id="GERINGA"><path id="sombra_blanca_geringa" data-name="sombra blanca geringa" class="cls-1" d="M1.41,193.31a6.3,6.3,0,0,1-1.36-4.79L1.8,175.2a6.34,6.34,0,0,1,2.28-4.08l39.79-32.26a10.36,10.36,0,0,1,3.83-7.74l7-5.72a17.37,17.37,0,0,1,4.81-20.78l78.32-63.5a11.72,11.72,0,0,1,19-13.63l4,4.9,19.56-15.85a12.62,12.62,0,0,1,21.8-11.87l19.3,23.81a12.62,12.62,0,0,1-15.25,19.33l-19.86,16.1,4.54,5.6A11.72,11.72,0,0,1,173.22,84.8L94.94,148.26a17.38,17.38,0,0,1-21.49.29l-7,5.68a10.37,10.37,0,0,1-9.22,2L10.29,194.24a6.29,6.29,0,0,1-8.88-.93Z"/><rect class="cls-7" x="53.04" y="129.08" width="17.13" height="19.83" rx="4.52" transform="translate(130.78 3.61) rotate(50.97)"/><path class="cls-2" d="M104,76.73l-40.45,32.8A11,11,0,0,0,61.91,125l13.54,16.7A11,11,0,0,0,91,143.36l40.45-32.79Z"/><path class="cls-8" d="M171.87,77.77a11,11,0,0,0,1.62-15.52L160,45.55a11,11,0,0,0-15.51-1.62L104,76.73l27.43,33.84Z"/><path class="cls-9" d="M173.62,62.42l-13.54-16.7a11,11,0,0,0-14.62-2.28l.1.12,13.54,16.7a11,11,0,0,1-1.62,15.52L117,108.58,76.57,141.37a10.6,10.6,0,0,1-.89.65,11,11,0,0,0,15.41,1.51l40.44-32.79L172,77.93A11,11,0,0,0,173.62,62.42Z"/><g id="contorno"><path class="cls-10" d="M171.87,77.77a11,11,0,0,0,1.62-15.52L160,45.55a11,11,0,0,0-15.51-1.62L104,76.73l27.43,33.84Z"/><path class="cls-10" d="M104,76.73l-40.45,32.8A11,11,0,0,0,61.91,125l13.54,16.7A11,11,0,0,0,91,143.36l40.45-32.79Z"/><line class="cls-11" x1="130.63" y1="58.08" x2="136.88" y2="65.78"/><line class="cls-11" x1="118.03" y1="68.3" x2="124.27" y2="76"/><line class="cls-11" x1="105.42" y1="78.52" x2="111.67" y2="86.22"/><line class="cls-11" x1="92.82" y1="88.74" x2="99.06" y2="96.44"/><line class="cls-11" x1="80.21" y1="98.96" x2="86.46" y2="106.66"/></g><rect class="cls-12" x="132.38" y="50.47" width="64.91" height="10.82" rx="5.09" transform="matrix(0.63, 0.78, -0.78, 0.63, 104.44, -107.35)"/><polygon class="cls-13" points="56.9 148.33 6.31 189.34 8.06 176.02 51.08 141.15 56.9 148.33"/><rect class="cls-12" x="169.14" y="22" width="27.95" height="36.96" transform="translate(99.24 -127.25) rotate(50.97)"/><line class="cls-10" x1="196.48" y1="29.06" x2="168.47" y2="51.78"/><rect class="cls-12" x="180.45" y="18.21" width="43.28" height="12.62" rx="5.94" transform="translate(93.87 -147.9) rotate(50.97)"/></g></g></g></g></svg>