<svg xmlns="http://www.w3.org/2000/svg" viewBox="0 0 170.81 196.18"><defs><style>.cls-1{fill:#fff;}.cls-2,.cls-8{fill:#f40b7a;}.cls-3,.cls-4,.cls-5,.cls-6,.cls-7{fill:#fcfcfc;}.cls-3,.cls-4,.cls-5,.cls-6{stroke:#fff;}.cls-10,.cls-3,.cls-4,.cls-5,.cls-8,.cls-9{stroke-miterlimit:10;}.cls-3,.cls-8{stroke-width:3px;}.cls-11,.cls-4,.cls-6,.cls-9{stroke-width:7px;}.cls-10,.cls-11,.cls-5,.cls-6{stroke-linecap:round;}.cls-10,.cls-5{stroke-width:16px;}.cls-11,.cls-6{stroke-linejoin:round;}.cls-11,.cls-8,.cls-9{stroke:#394e72;}.cls-10,.cls-11,.cls-9{fill:none;}.cls-10{stroke:#f40b7a;}.cls-12{fill:#394e72;}</style></defs><g id="Capa_2" data-name="Capa 2"><g id="Apps1"><g id="Estetoscopio"><circle class="cls-1" cx="142.81" cy="90.5" r="28"/><circle class="cls-2" cx="142.81" cy="90.5" r="23"/><rect class="cls-3" x="23.31" y="-1" width="28" height="33" rx="13.64" transform="translate(52.81 -21.81) rotate(90)"/><path class="cls-4" d="M30.31,96a7,7,0,0,1-6.59-4.62l-17-46.91C2.26,33,2.42,23.79,7.23,17.16c6.69-9.2,19-8.73,20.4-8.65a7,7,0,0,1-.79,14c-1.57-.08-6.44.33-8.3,2.93-1.73,2.42-1.27,7.54,1.28,14a1.34,1.34,0,0,1,.07.18l17,47a7,7,0,0,1-4.2,9A6.87,6.87,0,0,1,30.31,96Z"/><rect class="cls-3" x="69.81" y="-0.5" width="28" height="33" rx="13.64" transform="translate(99.81 -67.81) rotate(90)"/><path class="cls-4" d="M90.81,96.5a6.83,6.83,0,0,1-2.38-.42,7,7,0,0,1-4.21-9l17-47a1.34,1.34,0,0,0,.07-.18c2.55-6.48,3-11.6,1.28-14-1.86-2.61-6.74-3-8.3-2.93a7,7,0,0,1-.79-14c1.39-.08,13.72-.55,20.4,8.65,4.81,6.63,5,15.81.48,27.31l-17,46.91A7,7,0,0,1,90.81,96.5Z"/><path class="cls-5" d="M60.7,116.6l-1.08,0c-21-.72-34.7-22.56-35.27-23.49a7,7,0,0,1,11.91-7.36c.13.22,10.43,16.44,23.88,16.86,8.18.28,16.6-5.54,25-17.25A7,7,0,0,1,96.5,93.49C85.52,108.83,73.48,116.6,60.7,116.6Z"/><path class="cls-5" d="M60.81,138.5a7,7,0,0,1-7-7v-20a7,7,0,0,1,14,0v20A7,7,0,0,1,60.81,138.5Z"/><path class="cls-6" d="M92.17,192.68a98.42,98.42,0,0,1-11.7-.73c-9.48-1.14-21.64-7.36-25.68-30.56a100.08,100.08,0,0,1-.95-24.47,7,7,0,0,1,13.93,1.41c0,.46-3.21,37.61,14.37,39.72,21.32,2.56,31-3.65,31.05-3.71a2.72,2.72,0,0,1,.34-.24,9.79,9.79,0,0,0,3.74-6.77c.43-4.1-1.27-11.27-11.7-22.13C93.4,132.56,90.26,117.88,97,104.94c7.08-13.7,24.75-23,39.4-20.86a7,7,0,1,1-2.08,13.84c-7.87-1.18-20,4-24.89,13.45s.72,18.35,6.28,24.13c11.55,12,16.76,23.37,15.49,33.76a23.71,23.71,0,0,1-9.91,16.53C119.5,187,110.34,192.68,92.17,192.68Z"/><circle class="cls-7" cx="142.31" cy="91" r="17"/><rect class="cls-8" x="27.81" y="8.5" width="19" height="14" rx="6.64"/><path class="cls-9" d="M27.21,15.5S2.31,14,13.31,42l17,47"/><rect class="cls-8" x="74.31" y="9" width="19" height="14" rx="6.64" transform="translate(167.61 32) rotate(-180)"/><path class="cls-9" d="M93.9,16s24.91-1.5,13.91,26.5l-17,47"/><path class="cls-10" d="M30.31,89.41s28,45.42,60.5,0"/><path class="cls-11" d="M60.81,137.63S56.31,182,81.31,185s36-5,36-5,19.61-12.3-6.7-39.65S115.31,88,135.31,91"/><line class="cls-10" x1="60.81" y1="111.5" x2="60.81" y2="131.5"/><circle class="cls-12" cx="142.31" cy="91" r="10"/></g></g></g></svg>