<svg xmlns="http://www.w3.org/2000/svg" viewBox="0 0 192 192"><defs><style>.cls-1{fill:none;stroke:#0d0c38;stroke-miterlimit:10;stroke-width:4px;}.cls-2{fill:#fa0;}.cls-3{fill:#ff0;}.cls-4{fill:#fff;}.cls-5{fill:#1bab0a;}.cls-6{fill:#67d525;}.cls-7{fill:#0465fc;}.cls-8{fill:#26c9fd;}.cls-9{fill:#9524da;}.cls-10{fill:#ba2efc;}.cls-11{fill:#d01818;}.cls-12{fill:#ff6433;}</style></defs><g id="Capa_2" data-name="Capa 2"><g id="Capa_1-2" data-name="Capa 1"><g id="Vocales"><circle class="cls-1" cx="96" cy="96" r="94"/><g id="A"><path class="cls-2" d="M66.26,97.08c-3.74,0-10.65-.8-14.83-6.15A14.12,14.12,0,0,1,49.29,87a14.44,14.44,0,0,1-8.64,6.74,23,23,0,0,1-6.32.92,17.22,17.22,0,0,1-9.75-2.76,15.85,15.85,0,0,1-4.65-4.72c-3.68-5.81-2.26-12.34-1.79-14.48,2.3-10.6,12.94-33.15,14.35-36.12.74-1.83,6-13.67,19.11-13.67.64,0,1.29,0,1.94.08,1.82.13,18.31,1.65,21.28,13.52,2,8,7.71,39.32,8.06,41.27.35,1.6,1.65,9-2.63,14.4-1.76,2.21-5.09,4.84-11,4.84l-1.22,0C67.62,97.05,67,97.08,66.26,97.08Z"/><path class="cls-3" d="M66.26,94.08c-3.19,0-9.07-.65-12.46-5A12.55,12.55,0,0,1,51.45,80H48.68C48,83.53,46,89.12,39.82,90.88a19.73,19.73,0,0,1-5.49.81,14.37,14.37,0,0,1-8-2.21,13.14,13.14,0,0,1-3.84-3.88c-3-4.77-1.84-10.19-1.39-12.24,2.26-10.44,13.21-33.52,14.17-35.55.58-1.48,5.07-11.87,16.36-11.87.55,0,1.11,0,1.67.07,1.6.12,16.18,1.44,18.64,11.26,2,7.91,7.66,39.09,8,41.13.23,1,1.47,7.53-2,11.95-1.34,1.69-3.93,3.7-8.63,3.7-.4,0-.81,0-1.24,0S67.06,94.08,66.26,94.08Z"/><path class="cls-4" d="M55,77H46s0,9-7,11-11-1-11-1a10,10,0,0,1-3-3c-2.24-3.55-1.49-7.74-1-10,2.27-10.48,14-35,14-35h0s4-11,15-10c0,0,14,1,16,9s8,41,8,41,3,13-9,12C68,91,51,93,55,77Z"/><path class="cls-3" d="M49,57l3-8s2.6-5,3.3,0S57,60,57,60s1,3.64-4,2.32-4-1.06-4-1.19S47,61,49,57Z"/></g><g id="E"><path class="cls-5" d="M119,41,90,37S76,36,74,49s-6,42-6,42-1,14,11,16,31,5,31,5,10,0,12-6,4-18-3-19c0,0,10-6,4-19a14.82,14.82,0,0,0,4.25-3.88A13.8,13.8,0,0,0,130,57a13.15,13.15,0,0,0,0-2,17,17,0,0,0-1-6,11.92,11.92,0,0,0-3.41-5.55A10.84,10.84,0,0,0,119,41Z"/><path class="cls-6" d="M118,67s9-2,9-10-1-12-7-13-32-4-32-4-9-2-11,11-6,42-6,42-3,10,9,12,29,4,29,4,10,1,11-7,1-13-5-15C115,87,129,79,118,67Z"/><path class="cls-4" d="M99,82l13,2s5,0,6-3,2-11-3-12-14-2-14-2a2.19,2.19,0,0,1-1-3c1-2,1-2,3-2s14,2,14,2,4,1,7-5-2-11-2-11,0-1-11-2-.53,0-.53,0L93,43s-10-2-13,7-7,42-7,42,0,7,7,9,25,4,25,4,9,2,11-2c0,0,7-12-4-14L99,86.81S96,84,99,82Z"/></g><g id="I"><path class="cls-7" d="M143.44,105c-8.78-.47-14.35-8.34-16-15.93l-.1-.5-3-31c-.6-8.73,1.2-15.16,5.51-19.68,3.87-4.06,9.4-6,16.43-5.9l.49,0c10.79.58,15.95,11.68,16.3,22.49.22,2.2,1.53,15.55,2.39,26.17,1.63,20.13-11.77,22.75-18.21,24a15.69,15.69,0,0,1-3.85.28Z"/><path class="cls-8" d="M143.7,100c-7-.38-10.42-7.71-11.34-12l0-.23-2.95-30.53c-.5-7.25.85-12.45,4.14-15.89,2.9-3.05,7.06-4.47,12.7-4.35l.33,0c8.78.46,11.4,11.34,11.58,17.81.15,1.59,1.51,15.36,2.39,26.25,1.18,14.48-6,17.11-14.18,18.7a10.68,10.68,0,0,1-2.63.2Z"/><path class="cls-4" d="M154.12,55.11s-.3-13.91-8-14.08-13.68,2.8-12.77,16l2.91,30.2s2.16,10.09,9.29,8.7,11.91-2.84,11-14.45S154.12,55.11,154.12,55.11Z"/></g><g id="U"><path class="cls-9" d="M130.8,165.67a43,43,0,0,1-8.86-.92,34.93,34.93,0,0,1-13.82-5.66c-2.54-1.79-8.48-6-11-14A24.31,24.31,0,0,1,96,136.8l0-.53.13-.52c1.91-7.4,8.31-31.87,10.47-36s7.06-6.67,12.63-6.67a20.09,20.09,0,0,1,11.65,3.88,15.05,15.05,0,0,1,5.4,6.83A15.11,15.11,0,0,1,146,100h.31l.31,0c7.43.93,12.76,3.56,15.82,7.81A13.39,13.39,0,0,1,164.9,118l-.05.23-.06.22c-.85,3.25-5.27,20-8,29.89-3.78,13.87-17.35,16.49-17.92,16.6A44.23,44.23,0,0,1,130.8,165.67Z"/><path class="cls-10" d="M130.8,163.67a41.22,41.22,0,0,1-8.45-.88,33,33,0,0,1-13.08-5.34c-2.37-1.67-7.93-5.58-10.25-12.92a22.29,22.29,0,0,1-1-7.65l0-.32.08-.31c1.35-5.23,8.19-31.54,10.3-35.6,1.77-3.4,6-5.6,10.86-5.6a18,18,0,0,1,10.48,3.51,13,13,0,0,1,5.58,9.73c2.51-4.87,7.73-6.29,10.68-6.29h.19l.18,0c6.86.86,11.72,3.22,14.45,7a11.5,11.5,0,0,1,2.12,8.57l0,.17c-.05.19-5,19.14-8,30-3.45,12.68-15.83,15.07-16.35,15.16A42.07,42.07,0,0,1,130.8,163.67Z"/><path class="cls-4" d="M131.5,114.28S135,106,128,101s-14.87-2.94-16.94,1S101,137,101,137a19.34,19.34,0,0,0,.88,6.62c2,6.38,6.87,9.8,9.12,11.38a30.26,30.26,0,0,0,12,4.85,38.67,38.67,0,0,0,15,.15s11-2,14-13,8-30,8-30,2-10-14-12c0,0-8,0-9,8l-5.5,21.19S131,136,128,136s-2-4-1-6S131.5,114.28,131.5,114.28Z"/></g><g id="O"><path class="cls-11" d="M76.51,176.56a37.55,37.55,0,0,1-9.11-1.05c-17.54-4.76-27-22.09-27.23-36.75-.09-4.91.78-17.35,10.64-26.81,8.83-8.47,19.1-9.26,23-9.56.83-.07,2.23-.17,4.07-.17,7.26,0,17.56,1.73,25.32,10s8.37,18.21,8.67,23c.34,5.31,1.36,21.45-11.71,32.87A35.51,35.51,0,0,1,76.51,176.56Z"/><path class="cls-12" d="M76.51,172.56a34.19,34.19,0,0,1-8.07-.91c-15.63-4.24-24-19.79-24.27-33-.08-4.39.68-15.49,9.41-23.85,7.8-7.49,17-8.2,20.5-8.46.79-.06,2.09-.16,3.77-.16,6.48,0,15.62,1.51,22.41,8.73s7.29,15.86,7.59,20.52c.31,4.82,1.24,19.48-10.35,29.6A31.57,31.57,0,0,1,76.51,172.56Z"/><path class="cls-4" d="M104.86,135.67c.28,4.44,1.14,18-9.34,27.14-11.19,9.77-25.69,6.1-26.29,5.94-14.08-3.81-21.85-18-22.06-30.12-.06-3.31.31-13.8,8.48-21.63,7-6.74,15.53-7.39,18.67-7.63s15.45-1.19,23.75,7.63C104.08,123.39,104.58,131.3,104.86,135.67Z"/><path class="cls-12" d="M81,147c-.21.22-2.55,2.55-5.5,2-2.77-.52-4.11-3.21-4.5-4a12.57,12.57,0,0,1-1-5,17.83,17.83,0,0,1,0-4c.08-.57,1.12-7.13,5.5-8,2.53-.5,5.17,1.1,6.5,3,1.1,1.58,1.08,3.41,1,7C82.89,142.69,82.84,145.1,81,147Z"/></g></g></g></g></svg>