<svg xmlns="http://www.w3.org/2000/svg" viewBox="0 0 192 192"><defs><style>.cls-1{fill:none;stroke:#0d0c38;stroke-miterlimit:10;stroke-width:4px;}.cls-2{fill:#fa0;}.cls-3{fill:#ff0;}.cls-4{fill:#fff;}.cls-5{fill:#1bab0a;}.cls-6{fill:#67d525;}.cls-7{fill:#0465fc;}.cls-8{fill:#26c9fd;}.cls-9{fill:#9524da;}.cls-10{fill:#ba2efc;}.cls-11{fill:#d01818;}.cls-12{fill:#ff6433;}</style></defs><g id="Capa_2" data-name="Capa 2"><g id="Capa_1-2" data-name="Capa 1"><g id="Vocales"><circle class="cls-1" cx="96" cy="96" r="94"/><g id="A"><path class="cls-2" d="M66.26,103.08c-4.36,0-12.33-1-17.57-7.19a18.39,18.39,0,0,1-6.94,3.73,27.11,27.11,0,0,1-7.42,1.07,21.14,21.14,0,0,1-12-3.43,19.82,19.82,0,0,1-5.81-5.91c-4.55-7.2-2.87-14.93-2.32-17.47C16.56,63.11,26.67,41.55,28.84,37c1.25-3,7.53-16,22.76-16,.76,0,1.53,0,2.3.1C56,21.19,75.05,23,78.7,37.57c2,8,7.43,37.73,8.11,41.47.54,2.6,1.79,11.1-3.43,17.67-3.26,4.09-8.27,6.34-14.11,6.34l-1.19,0C67.49,103.06,66.88,103.08,66.26,103.08Z"/><path class="cls-3" d="M66.26,98.08c-3.56,0-10.12-.75-14-5.77a13.23,13.23,0,0,1-2.63-6.16,14,14,0,0,1-9.22,8.66,22.12,22.12,0,0,1-6,.88,16.15,16.15,0,0,1-9.16-2.57,14.92,14.92,0,0,1-4.4-4.45c-3.45-5.46-2.15-11.47-1.66-13.73C21.41,64.36,32.29,41.36,33.41,39c.8-2,5.83-13.07,18.19-13.07.61,0,1.23,0,1.85.08,1.71.12,17.6,1.57,20.4,12.77,2,7.93,7.63,38.91,8.05,41.22.29,1.33,1.59,8.52-2.43,13.58-1.62,2-4.71,4.46-10.2,4.46L68,98C67.63,98.05,67,98.08,66.26,98.08Z"/><path class="cls-4" d="M55,79H46s0,9-7,11-11-1-11-1a10,10,0,0,1-3-3c-2.24-3.55-1.49-7.74-1-10,2.27-10.48,14-35,14-35h0s4-11,15-10c0,0,14,1,16,9s8,41,8,41,3,13-9,12C68,93,51,95,55,79Z"/><path class="cls-2" d="M49,59l3-8s2.6-5,3.3,0S57,62,57,62s1,3.64-4,2.32-4-1.06-4-1.19S47,63,49,59Z"/></g><g id="E"><path class="cls-5" d="M115.75,105.5a35.23,35.23,0,0,1-6.3-.61c-3.57-.41-19.12-2.25-26.2-4.27A19.58,19.58,0,0,1,69,82v-.6l.07-.6c.43-3.49,4.22-34.3,7.44-44,2.93-8.79,10.46-14,20.14-14a23.58,23.58,0,0,1,4.15.35L117.17,26l.73.07c8.22.75,15.35,1.4,18.58,6.48,3.88,4.89,6.51,12.87,2.46,20.95A20.88,20.88,0,0,1,134.1,60c1.79,6.57-.32,13.31-.61,14.2a12.87,12.87,0,0,1-1.47,3,14.55,14.55,0,0,1,.68,1.3c3.73,8.11-.47,16.75-1.93,19.31C129.21,100.72,125.21,105.5,115.75,105.5Z"/><path class="cls-6" d="M115.75,100.5a29.89,29.89,0,0,1-5.54-.56c-2.26-.25-18.63-2.15-25.58-4.13A14.61,14.61,0,0,1,74,82v-.3l0-.3c.16-1.37,4.09-33.61,7.22-43,2.24-6.74,7.86-10.61,15.39-10.61a18.68,18.68,0,0,1,3.24.27l16.63,2.86.93.08c8,.73,13.22,1.37,14.93,4.38,2.63,3.18,5.38,9.27,2.09,15.84a13.94,13.94,0,0,1-6.58,6.87l.26.42c3.31,5.72.71,13.71.59,14a8.35,8.35,0,0,1-3.38,4.35,10.48,10.48,0,0,1,2.8,3.65c2.81,6.11-.82,13.16-1.77,14.82C125.14,97.76,122.29,100.5,115.75,100.5Z"/><path class="cls-4" d="M105,72l13,2s5,0,6-3,2-11-3-12-14-2-14-2a2.19,2.19,0,0,1-1-3c1-2,1-2,3-2s14,2,14,2,4,1,7-5-2-11-2-11,0-1-11-2-.53,0-.53,0L99,33s-10-2-13,7-7,42-7,42,0,7,7,9,25,4,25,4,9,2,11-2c0,0,7-12-4-14l-13-2.19S102,74,105,72Z"/></g><g id="I"><path class="cls-7" d="M151.06,115c-10-.53-16.31-9.48-18.15-18.11l-.12-.57L129.4,61.11c-.69-9.92,1.36-17.24,6.26-22.38,4.4-4.61,10.68-6.86,18.68-6.69l.55,0c12.26.65,18.13,13.27,18.53,25.56.25,2.5,1.74,17.68,2.71,29.75,1.86,22.88-13.37,25.86-20.69,27.29a18,18,0,0,1-4.38.32Z"/><path class="cls-8" d="M151.36,109.3c-8-.42-11.85-8.76-12.89-13.62l-.05-.25-3.35-34.71c-.57-8.24,1-14.15,4.7-18.07,3.3-3.45,8-5.07,14.45-4.93h.37c10,.53,12.95,12.89,13.16,20.26.17,1.8,1.72,17.45,2.72,29.84,1.33,16.45-6.87,19.44-16.12,21.25a12.17,12.17,0,0,1-3,.22Z"/><path class="cls-4" d="M163.2,58.27s-.34-15.82-9.08-16S138.57,45.45,139.6,60.4l3.32,34.33s2.45,11.48,10.56,9.89,13.52-3.23,12.46-16.43S163.2,58.27,163.2,58.27Z"/></g><g id="U"><path class="cls-9" d="M129.8,175.67a49.54,49.54,0,0,1-10.1-1,41.45,41.45,0,0,1-16-6.63c-2.77-2-10.12-7.13-13.27-17A30.19,30.19,0,0,1,89,140.57l0-1.18.3-1.14c3.79-14.7,8.77-33.1,11-37.29,3.13-6,10.18-9.91,18-9.91a25.94,25.94,0,0,1,15.13,5,22.13,22.13,0,0,1,3.88,3.5A21.63,21.63,0,0,1,145,98h.69l.67.08c9.16,1.15,15.87,4.6,19.95,10.27a19.62,19.62,0,0,1,3.48,14.81l-.07.32-.08.32c-.88,3.34-5.29,20.06-8,30.09-3.8,14-16,19.73-22.64,20.93A50.47,50.47,0,0,1,129.8,175.67Z"/><path class="cls-10" d="M129.8,169.67a43,43,0,0,1-8.86-.92,35.45,35.45,0,0,1-13.82-5.66c-2.54-1.79-8.48-6-11-14A24.31,24.31,0,0,1,95,140.8l0-.53.14-.52c1.91-7.4,8.31-31.87,10.47-36s7.06-6.67,12.63-6.67a20.07,20.07,0,0,1,11.65,3.88,15,15,0,0,1,5.4,6.81A15,15,0,0,1,145,104h.31l.31,0c7.43.93,12.76,3.56,15.82,7.81A13.58,13.58,0,0,1,163.9,122l0,.15,0,.14c-.05.19-5,19.15-8,30.05-3.78,13.88-17.35,16.49-17.93,16.6A44.85,44.85,0,0,1,129.8,169.67Z"/><path class="cls-4" d="M130.5,118.28S134,110,127,105s-14.87-2.94-16.94,1S100,141,100,141a19.34,19.34,0,0,0,.88,6.62c2,6.38,6.87,9.8,9.12,11.38a30.26,30.26,0,0,0,12,4.85,38.67,38.67,0,0,0,15,.15s11-2,14-13,8-30,8-30,2-10-14-12c0,0-8,0-9,8l-5.5,21.19S130,140,127,140s-2-4-1-6S130.5,118.28,130.5,118.28Z"/></g><g id="O"><path class="cls-11" d="M70.51,181.56a41.69,41.69,0,0,1-10.17-1.19C40.91,175.1,30.46,156,30.17,139.83c-.1-5.44.87-19.22,11.87-29.77C51.91,100.6,63.62,99.7,67.47,99.4c.84-.07,2.39-.18,4.38-.18,8.05,0,19.49,2,28.23,11.25s9.45,20.64,9.75,25.5c1,15.54-3.41,27.69-13.07,36.13A39.45,39.45,0,0,1,70.51,181.56Z"/><path class="cls-12" d="M70.51,175.56a35.29,35.29,0,0,1-8.59-1c-16.58-4.5-25.5-20.94-25.75-34.86-.08-4.64.73-16.42,10-25.33,8.32-8,18.42-8.75,21.74-9,.76-.06,2.16-.16,3.92-.16,6.87,0,16.59,1.62,23.86,9.36s7.85,17.2,8.14,21.77c.32,5.06,1.29,20.46-11,31.23A33.54,33.54,0,0,1,70.51,175.56Z"/><path class="cls-4" d="M98.86,136.67c.28,4.44,1.14,18-9.34,27.14-11.19,9.77-25.69,6.1-26.29,5.94-14.08-3.81-21.85-18-22.06-30.12-.06-3.31.31-13.8,8.48-21.63,7-6.74,15.53-7.39,18.67-7.63s15.45-1.19,23.75,7.63C98.08,124.39,98.58,132.3,98.86,136.67Z"/><path class="cls-12" d="M75,148c-.21.22-2.55,2.55-5.5,2-2.77-.52-4.11-3.21-4.5-4a12.57,12.57,0,0,1-1-5,17.83,17.83,0,0,1,0-4c.08-.57,1.12-7.13,5.5-8,2.53-.5,5.17,1.1,6.5,3,1.1,1.58,1.08,3.41,1,7C76.89,143.69,76.84,146.1,75,148Z"/></g></g></g></g></svg>