<svg xmlns="http://www.w3.org/2000/svg" viewBox="0 0 166.58 65.33"><defs><style>.cls-1{fill:#3c99c2;stroke:#001755;stroke-miterlimit:10;stroke-width:2px;}.cls-2{fill:#fff;}</style></defs><g id="Capa_2" data-name="Capa 2"><g id="Capa_8" data-name="Capa 8"><path class="cls-1" d="M1,1H17.43q7.79,0,11.79,1.21a11.71,11.71,0,0,1,6.47,4.91q2.48,3.69,2.47,11.9,0,5.55-1.74,7.74t-6.87,3.36q5.72,1.29,7.75,4.29t2,9.17v5.87q0,6.42-1.46,9.51a7.91,7.91,0,0,1-4.68,4.23Q30,64.33,20.05,64.33H1ZM17.47,11.83V25.92c.7,0,1.25,0,1.64,0q2.43,0,3.09-1.2c.44-.79.66-3.07.66-6.82a11.23,11.23,0,0,0-.54-4.17,2.64,2.64,0,0,0-1.43-1.5A12.73,12.73,0,0,0,17.47,11.83Zm0,23.94V53.49c2.32-.08,3.8-.44,4.44-1.09s.95-2.26.95-4.82v-5.9c0-2.71-.28-4.36-.86-4.93S19.92,35.85,17.47,35.77Z"/><path class="cls-1" d="M73.7,1l9.42,63.33H66.29l-.88-11.39H59.52l-1,11.39h-17L49.9,1ZM65,41.72Q63.72,31,62.47,15.12,60,33.32,59.31,41.72Z"/><path class="cls-1" d="M85.92,1h16.42q7.78,0,11.8,1.21a11.71,11.71,0,0,1,6.47,4.91q2.46,3.69,2.47,11.9c0,3.7-.59,6.28-1.75,7.74s-3.44,2.58-6.86,3.36q5.72,1.29,7.74,4.29t2,9.17v5.87q0,6.42-1.47,9.51a7.89,7.89,0,0,1-4.67,4.23Q114.9,64.33,105,64.33h-19Zm16.46,10.83V25.92c.71,0,1.26,0,1.65,0q2.41,0,3.09-1.2c.44-.79.66-3.07.66-6.82a11,11,0,0,0-.55-4.17,2.63,2.63,0,0,0-1.42-1.5A12.76,12.76,0,0,0,102.38,11.83Zm0,23.94V53.49c2.32-.08,3.8-.44,4.44-1.09s1-2.26,1-4.82v-5.9c0-2.71-.29-4.36-.86-4.93S104.83,35.85,102.38,35.77Z"/><path class="cls-1" d="M165.24,1l-12,40.41V64.33H138V41.41L126.4,1h15.13q3.54,18.54,4,25,1.36-10.14,4.58-25Z"/><path class="cls-2" d="M32.89,12.83a8,8,0,0,0-3.28-5,13.92,13.92,0,0,0-5.75-2.29A8.42,8.42,0,0,1,30.2,7a7.24,7.24,0,0,1,2.19,2.57A5.24,5.24,0,0,1,32.89,12.83Z"/><path class="cls-2" d="M35.55,41.38a8,8,0,0,0-3.29-5,14,14,0,0,0-5.74-2.29,8.38,8.38,0,0,1,6.34,1.49A7,7,0,0,1,35,38.12,5.23,5.23,0,0,1,35.55,41.38Z"/><path class="cls-2" d="M121,40.81a7.93,7.93,0,0,0-3.28-5A13.94,13.94,0,0,0,112,33.5,8.4,8.4,0,0,1,118.29,35a7.14,7.14,0,0,1,2.19,2.57A5.24,5.24,0,0,1,121,40.81Z"/><path class="cls-2" d="M118.17,13.24a8,8,0,0,0-3.28-5,14.07,14.07,0,0,0-5.74-2.29,8.36,8.36,0,0,1,6.33,1.49A7,7,0,0,1,117.67,10,5.22,5.22,0,0,1,118.17,13.24Z"/><path class="cls-2" d="M70.7,5.35c.86,3.79,1.41,7.63,1.9,11.47s.83,7.71.91,11.6c-.86-3.8-1.42-7.63-1.9-11.48S70.78,9.24,70.7,5.35Z"/><path class="cls-2" d="M160.56,4.7a70.47,70.47,0,0,1-2,8.68,68.4,68.4,0,0,1-2.94,8.39,68.91,68.91,0,0,1,2-8.67A70.94,70.94,0,0,1,160.56,4.7Z"/></g></g></svg>