<svg xmlns="http://www.w3.org/2000/svg" xmlns:xlink="http://www.w3.org/1999/xlink" viewBox="0 0 166.58 65.33"><defs><style>.cls-1,.cls-2{stroke:#001755;stroke-miterlimit:10;stroke-width:2px;}.cls-1{fill:url(#Degradado_sin_nombre_66);}.cls-2{fill:url(#Degradado_sin_nombre_68);}</style><linearGradient id="Degradado_sin_nombre_66" x1="-12.67" y1="32.66" x2="173.92" y2="32.66" gradientUnits="userSpaceOnUse"><stop offset="0" stop-color="#70a7ff"/><stop offset="0.14" stop-color="#7d73fa"/><stop offset="0.29" stop-color="#8941f4"/><stop offset="0.4" stop-color="#9022f1"/><stop offset="0.46" stop-color="#9316f0"/><stop offset="0.68" stop-color="#a916f0"/><stop offset="1" stop-color="#d016f0"/><stop offset="1" stop-color="#d616f0"/></linearGradient><linearGradient id="Degradado_sin_nombre_68" x1="-33.18" y1="32.66" x2="192.71" y2="32.66" gradientUnits="userSpaceOnUse"><stop offset="0" stop-color="#70a7ff"/><stop offset="0.21" stop-color="#7d73fa"/><stop offset="0.43" stop-color="#8941f4"/><stop offset="0.6" stop-color="#9022f1"/><stop offset="0.69" stop-color="#9316f0"/><stop offset="0.82" stop-color="#a916f0"/><stop offset="1" stop-color="#d016f0"/><stop offset="1" stop-color="#d616f0"/></linearGradient></defs><g id="Capa_2" data-name="Capa 2"><g id="Capa_11" data-name="Capa 11"><path class="cls-1" d="M29.55,30.12q5.13-1.17,6.87-3.36T38.16,19q0-8.2-2.47-11.9a11.71,11.71,0,0,0-6.47-4.91Q25.22,1,17.43,1H1V64.33H20.05q9.93,0,13.14-1.14A7.91,7.91,0,0,0,37.87,59q1.46-3.09,1.46-9.51V43.58q0-6.18-2-9.17T29.55,30.12ZM22.86,47.58c0,2.56-.31,4.17-.95,4.82s-2.12,1-4.44,1.09V35.77c2.45.08,4,.41,4.53,1s.86,2.22.86,4.93Zm-.66-22.9q-.66,1.2-3.09,1.2c-.39,0-.94,0-1.64,0V11.83a12.73,12.73,0,0,1,3.42.36,2.64,2.64,0,0,1,1.43,1.5,11.23,11.23,0,0,1,.54,4.17C22.86,21.61,22.64,23.89,22.2,24.68Z"/><path class="cls-2" d="M29.55,30.12q5.13-1.17,6.87-3.36T38.16,19q0-8.2-2.47-11.9a11.71,11.71,0,0,0-6.47-4.91Q25.22,1,17.43,1H1V64.33H20.05q9.93,0,13.14-1.14A7.91,7.91,0,0,0,37.87,59q1.46-3.09,1.46-9.51V43.58q0-6.18-2-9.17T29.55,30.12ZM22.86,47.58c0,2.56-.31,4.17-.95,4.82s-2.12,1-4.44,1.09V35.77c2.45.08,4,.41,4.53,1s.86,2.22.86,4.93Zm-.66-22.9q-.66,1.2-3.09,1.2c-.39,0-.94,0-1.64,0V11.83a12.73,12.73,0,0,1,3.42.36,2.64,2.64,0,0,1,1.43,1.5,11.23,11.23,0,0,1,.54,4.17C22.86,21.61,22.64,23.89,22.2,24.68Z"/><path class="cls-1" d="M49.9,1,41.5,64.33h17l1-11.39h5.89l.88,11.39H83.12L73.7,1Zm9.41,40.72q.64-8.41,3.16-26.6Q63.73,31,65,41.72Z"/><path class="cls-2" d="M49.9,1,41.5,64.33h17l1-11.39h5.89l.88,11.39H83.12L73.7,1Zm9.41,40.72q.64-8.41,3.16-26.6Q63.73,31,65,41.72Z"/><path class="cls-1" d="M114.47,30.12c3.42-.78,5.7-1.9,6.86-3.36s1.75-4,1.75-7.74q0-8.2-2.47-11.9a11.71,11.71,0,0,0-6.47-4.91Q110.12,1,102.34,1H85.92V64.33h19q9.93,0,13.14-1.14A7.89,7.89,0,0,0,122.78,59q1.47-3.09,1.47-9.51V43.58q0-6.18-2-9.17T114.47,30.12Zm-6.69,17.46c0,2.56-.32,4.17-1,4.82s-2.12,1-4.44,1.09V35.77c2.45.08,4,.41,4.54,1s.86,2.22.86,4.93Zm-.66-22.9q-.68,1.2-3.09,1.2c-.39,0-.94,0-1.65,0V11.83a12.76,12.76,0,0,1,3.43.36,2.63,2.63,0,0,1,1.42,1.5,11,11,0,0,1,.55,4.17C107.78,21.61,107.56,23.89,107.12,24.68Z"/><path class="cls-2" d="M114.47,30.12c3.42-.78,5.7-1.9,6.86-3.36s1.75-4,1.75-7.74q0-8.2-2.47-11.9a11.71,11.71,0,0,0-6.47-4.91Q110.12,1,102.34,1H85.92V64.33h19q9.93,0,13.14-1.14A7.89,7.89,0,0,0,122.78,59q1.47-3.09,1.47-9.51V43.58q0-6.18-2-9.17T114.47,30.12Zm-6.69,17.46c0,2.56-.32,4.17-1,4.82s-2.12,1-4.44,1.09V35.77c2.45.08,4,.41,4.54,1s.86,2.22.86,4.93Zm-.66-22.9q-.68,1.2-3.09,1.2c-.39,0-.94,0-1.65,0V11.83a12.76,12.76,0,0,1,3.43.36,2.63,2.63,0,0,1,1.42,1.5,11,11,0,0,1,.55,4.17C107.78,21.61,107.56,23.89,107.12,24.68Z"/><path class="cls-1" d="M145.53,26q-.47-6.42-4-25H126.4L138,41.41V64.33h15.25V41.41L165.24,1H150.11Q146.9,15.82,145.53,26Z"/><path class="cls-2" d="M145.53,26q-.47-6.42-4-25H126.4L138,41.41V64.33h15.25V41.41L165.24,1H150.11Q146.9,15.82,145.53,26Z"/></g></g></svg>