<svg xmlns="http://www.w3.org/2000/svg" xmlns:xlink="http://www.w3.org/1999/xlink" viewBox="0 0 107.17 116.65"><defs><style>.cls-1,.cls-2{stroke:#001755;stroke-miterlimit:10;}.cls-1{stroke-width:4px;fill:url(#Degradado_sin_nombre_46);}.cls-2{fill:#fff;stroke-width:0.5px;}</style><linearGradient id="Degradado_sin_nombre_46" x1="-2.28" y1="90.15" x2="83.36" y2="40.7" gradientUnits="userSpaceOnUse"><stop offset="0" stop-color="#c1408b"/><stop offset="0.13" stop-color="#bb478f"/><stop offset="0.33" stop-color="#ab5a9b"/><stop offset="0.56" stop-color="#927aaf"/><stop offset="0.82" stop-color="#6ea5c9"/><stop offset="0.88" stop-color="#65b0d0"/></linearGradient></defs><g id="Capa_2" data-name="Capa 2"><g id="Capa_8" data-name="Capa 8"><path class="cls-1" d="M104.88,87.9l-.16-.15a1.25,1.25,0,0,0-.2-.14.94.94,0,0,0-.23-.13,1.94,1.94,0,0,0-1-.14,2.31,2.31,0,0,0-.7.16l-.06,0-.06,0-.11.06-.09,0-.75.4a5.18,5.18,0,0,1-.72.17,7,7,0,0,1-.78.09l-.89.06a12.92,12.92,0,0,1-1.47,0A11.64,11.64,0,0,1,95.93,88a14.91,14.91,0,0,1-4.16-1.64c-3-1.89-4.13-5.12-4.61-6.52a15.17,15.17,0,0,1-.81-4.81c0-14.35,0-21.52.07-28.46.2-11.69-4.77-26.71-16.25-35.64a43.52,43.52,0,0,0-26-9A44,44,0,0,0,16.51,12.27C2.3,24.49,2.19,41.5,2.22,44.09c-.07,4.08-.33,18.65-.17,31.37a35.75,35.75,0,0,0,.84,7.84A39.1,39.1,0,0,0,8.7,96.45c11.79,17.76,39.2,18.19,44.47,18.18,5,0,12.19.38,21.09-2.27,0,0,17.56-5.25,29.9-20.6.15-.18.29-.38.29-.38s.18-.25.25-.36a3.36,3.36,0,0,0,.2-.39,3.71,3.71,0,0,0,.2-.65A3.1,3.1,0,0,0,104.88,87.9Z"/><ellipse class="cls-2" cx="49.94" cy="44.61" rx="9.32" ry="14.3"/><ellipse class="cls-2" cx="19.7" cy="44.61" rx="9.32" ry="14.3"/></g></g></svg>