<svg xmlns="http://www.w3.org/2000/svg" viewBox="0 0 241.74 72.57"><defs><style>.cls-1{fill:#d1228b;stroke:#001755;stroke-miterlimit:10;stroke-width:2px;}.cls-2{fill:#fff;}</style></defs><g id="Capa_2" data-name="Capa 2"><g id="Capa_8" data-name="Capa 8"><path class="cls-1" d="M70.94,2.42,63.1,70.15h-22q-3-15.62-5.33-35.52-1.05,8.53-4.91,35.52H9L1.12,2.42H18.23l1.86,23.63,1.8,22.85q1-17.73,4.87-46.48H45.05q.36,3,1.92,22.34l2,25.77q1.5-24.6,4.91-48.11Z"/><path class="cls-1" d="M114.66,42.08q0,10.2-.49,14.45a16.15,16.15,0,0,1-3,7.76,16.32,16.32,0,0,1-6.84,5.4,25,25,0,0,1-10,1.88,25.38,25.38,0,0,1-9.76-1.78A16.27,16.27,0,0,1,74.41,56.72a144.59,144.59,0,0,1-.5-14.64V30.49q0-10.2.48-14.45A16.19,16.19,0,0,1,84.24,2.88,25,25,0,0,1,94.28,1a25.43,25.43,0,0,1,9.77,1.78,16.24,16.24,0,0,1,10.1,13.07,140.78,140.78,0,0,1,.51,14.64ZM97,19.82q0-4.72-.52-6a2.08,2.08,0,0,0-2.15-1.32,2.43,2.43,0,0,0-2.12,1.07c-.48.71-.73,2.81-.73,6.29V51.45q0,5.89.48,7.28a2.1,2.1,0,0,0,2.24,1.38,2.16,2.16,0,0,0,2.3-1.59c.34-1.06.5-3.58.5-7.57Z"/><path class="cls-1" d="M121.22,2.42h12.47q12.47,0,16.88,1a11.63,11.63,0,0,1,7.19,4.92q2.79,4,2.79,12.61,0,7.9-2,10.63t-7.74,3.26c3.49.87,5.83,2,7,3.47a10.43,10.43,0,0,1,2.24,4q.44,1.81.44,10V70.15H144.19V47.64c0-3.62-.29-5.87-.86-6.73s-2.07-1.3-4.5-1.3V70.15H121.22ZM138.83,14V29.07a7.73,7.73,0,0,0,4.17-.82q1.19-.81,1.19-5.29V19.24c0-2.15-.38-3.56-1.15-4.23S140.87,14,138.83,14Z"/><path class="cls-1" d="M185,2.42V56.59h10.71V70.15H167.36V2.42Z"/><path class="cls-1" d="M200,2.42h13.18q12.75,0,17.25,1.17a13.31,13.31,0,0,1,6.84,3.85,12.21,12.21,0,0,1,2.93,6,90,90,0,0,1,.59,12.91V50q0,9.12-.86,12.19a9.14,9.14,0,0,1-3,4.81,12.4,12.4,0,0,1-5.27,2.43,47.72,47.72,0,0,1-9.46.69H200ZM217.56,14V58.56q3.81,0,4.69-1.53c.58-1,.88-3.78.88-8.3V22.42a34.46,34.46,0,0,0-.3-5.9,2.77,2.77,0,0,0-1.34-1.9A8.55,8.55,0,0,0,217.56,14Z"/><path class="cls-2" d="M107.07,14a8,8,0,0,0-3.28-5A14.07,14.07,0,0,0,98,6.63a8.43,8.43,0,0,1,6.34,1.49,7.07,7.07,0,0,1,2.19,2.57A5.24,5.24,0,0,1,107.07,14Z"/><path class="cls-2" d="M155.08,14a8,8,0,0,0-3.28-5,14.09,14.09,0,0,0-5.74-2.3,8.4,8.4,0,0,1,6.33,1.49,7,7,0,0,1,2.19,2.57A5.24,5.24,0,0,1,155.08,14Z"/><path class="cls-2" d="M156.19,45.82a8,8,0,0,0-3.28-5,14.07,14.07,0,0,0-5.74-2.29A8.36,8.36,0,0,1,153.5,40a7,7,0,0,1,2.19,2.57A5.22,5.22,0,0,1,156.19,45.82Z"/><path class="cls-2" d="M234.92,15.18a8,8,0,0,0-3.28-5,14.07,14.07,0,0,0-5.74-2.29,8.36,8.36,0,0,1,6.33,1.49,7.07,7.07,0,0,1,2.19,2.57A5.22,5.22,0,0,1,234.92,15.18Z"/><path class="cls-2" d="M41.57,7.88c.44,2.59.77,5.18,1.09,7.77s.57,5.19.82,7.78.44,5.2.59,7.81l.21,3.91c0,1.31.1,2.61.11,3.92-.23-1.29-.4-2.58-.6-3.88l-.49-3.88c-.32-2.59-.57-5.19-.82-7.79s-.44-5.2-.58-7.8S41.6,10.5,41.57,7.88Z"/><path class="cls-2" d="M182.19,5.29c.07,2.66.1,5.32.11,8l0,8-.14,8c-.06,2.66-.16,5.32-.28,8-.06-2.66-.1-5.31-.1-8l0-8,.15-8C182,10.6,182.07,8,182.19,5.29Z"/></g></g></svg>