<svg xmlns="http://www.w3.org/2000/svg" xmlns:xlink="http://www.w3.org/1999/xlink" viewBox="0 0 241.74 72.57"><defs><style>.cls-1,.cls-2{stroke:#001755;stroke-miterlimit:10;stroke-width:2px;}.cls-1{fill:url(#Degradado_sin_nombre_19);}.cls-2{fill:none;}</style><linearGradient id="Degradado_sin_nombre_19" x1="-7.08" y1="36.29" x2="253.29" y2="36.29" gradientUnits="userSpaceOnUse"><stop offset="0" stop-color="#b970ff"/><stop offset="0.06" stop-color="#ab75fd"/><stop offset="0.16" stop-color="#8781f9"/><stop offset="0.31" stop-color="#4d96f2"/><stop offset="0.46" stop-color="#08aeea"/><stop offset="0.63" stop-color="#14c7cd"/><stop offset="0.87" stop-color="#24e8a7"/><stop offset="1" stop-color="#2af598"/></linearGradient></defs><g id="Capa_2" data-name="Capa 2"><g id="Capa_11" data-name="Capa 11"><path class="cls-1" d="M48.92,50.53,47,24.76Q45.41,5.4,45.05,2.42H26.76Q22.88,31.16,21.89,48.9l-1.8-22.85L18.23,2.42H1.12L9,70.15H30.87q3.85-27,4.91-35.52,2.31,19.92,5.33,35.52h22L70.94,2.42H53.83Q50.43,25.94,48.92,50.53Z"/><path class="cls-2" d="M94.37,12.46a2.43,2.43,0,0,0-2.12,1.07c-.48.71-.73,2.81-.73,6.29V51.45q0,5.89.48,7.28a2.1,2.1,0,0,0,2.24,1.38,2.16,2.16,0,0,0,2.3-1.59c.34-1.06.5-3.58.5-7.57V19.82q0-4.72-.52-6A2.08,2.08,0,0,0,94.37,12.46Z"/><path class="cls-1" d="M111,8.11a16,16,0,0,0-7-5.33A25.43,25.43,0,0,0,94.28,1a25,25,0,0,0-10,1.88A16.19,16.19,0,0,0,74.39,16q-.48,4.25-.48,14.45V42.08a144.59,144.59,0,0,0,.5,14.64A16.27,16.27,0,0,0,84.52,69.79a25.38,25.38,0,0,0,9.76,1.78,25,25,0,0,0,10-1.88,16.32,16.32,0,0,0,6.84-5.4,16.15,16.15,0,0,0,3-7.76q.48-4.24.49-14.45V30.49a140.78,140.78,0,0,0-.51-14.64A16,16,0,0,0,111,8.11ZM97,51c0,4-.16,6.51-.5,7.57a2.16,2.16,0,0,1-2.3,1.59A2.1,2.1,0,0,1,92,58.73q-.48-1.38-.48-7.28V19.82c0-3.48.25-5.58.73-6.29a2.43,2.43,0,0,1,2.12-1.07,2.08,2.08,0,0,1,2.15,1.32q.53,1.32.52,6Z"/><path class="cls-2" d="M138.83,14V29.07a7.73,7.73,0,0,0,4.17-.82q1.19-.81,1.19-5.29V19.24c0-2.15-.38-3.56-1.15-4.23S140.87,14,138.83,14Z"/><path class="cls-1" d="M158.58,31.54q2-2.73,2-10.63,0-8.65-2.79-12.61a11.63,11.63,0,0,0-7.19-4.92q-4.41-1-16.88-1H121.22V70.15h17.61V39.61c2.43,0,3.93.43,4.5,1.3s.86,3.11.86,6.73V70.15h16.36V52.29q0-8.2-.44-10a10.43,10.43,0,0,0-2.24-4c-1.2-1.45-3.54-2.6-7-3.47Q156.62,34.26,158.58,31.54ZM144.19,23q0,4.48-1.19,5.29a7.73,7.73,0,0,1-4.17.82V14c2,0,3.44.33,4.21,1s1.15,2.08,1.15,4.23Z"/><polygon class="cls-1" points="184.97 2.42 167.36 2.42 167.36 70.15 195.68 70.15 195.68 56.59 184.97 56.59 184.97 2.42"/><path class="cls-2" d="M221.49,14.62a8.55,8.55,0,0,0-3.93-.61V58.56q3.81,0,4.69-1.53c.58-1,.88-3.78.88-8.3V22.42a34.46,34.46,0,0,0-.3-5.9A2.77,2.77,0,0,0,221.49,14.62Z"/><path class="cls-1" d="M237.22,7.44a13.31,13.31,0,0,0-6.84-3.85q-4.49-1.17-17.25-1.17H200V70.15h22.21a47.72,47.72,0,0,0,9.46-.69A12.4,12.4,0,0,0,236.89,67a9.14,9.14,0,0,0,3-4.81q.85-3.07.86-12.19V26.31a90,90,0,0,0-.59-12.91A12.21,12.21,0,0,0,237.22,7.44ZM223.13,48.73c0,4.52-.3,7.29-.88,8.3s-2.15,1.53-4.69,1.53V14a8.55,8.55,0,0,1,3.93.61,2.77,2.77,0,0,1,1.34,1.9,34.46,34.46,0,0,1,.3,5.9Z"/></g></g></svg>