<svg xmlns="http://www.w3.org/2000/svg" viewBox="0 0 55.09 23.03"><defs><style>.cls-1{fill:#fff;stroke:#000;stroke-miterlimit:10;}</style></defs><g id="Capa_2" data-name="Capa 2"><g id="Capa_9" data-name="Capa 9"><path id="nube5" class="cls-1" d="M18.63,7.69s-6.48-5-8,1.12a2.09,2.09,0,0,0-.61,1.6c-.75,1.39,1.33,2.46,2.33,1.93S2.15,11.14.9,13.38a5.12,5.12,0,0,0-.06,3.77c3.12,8.93,10.41,2.1,10.41,2.1s3.06,7,15.64.49c0,0,4.61,5.2,12.14,1.19a7.13,7.13,0,0,0,1.87-2.84S45,23.14,51.81,19.5s-.52-9.1-4.29-8.95a12.85,12.85,0,0,0-6,1.57s1.07-8.45-9.18-4.85c0,0-5.52-10.17-10.21-5.58S18.79,5.45,18.63,7.69Z"/></g></g></svg>