<svg xmlns="http://www.w3.org/2000/svg" viewBox="0 0 38.84 20.27"><defs><style>.cls-1{fill:#fff;stroke:#000;stroke-miterlimit:10;}</style></defs><g id="Capa_2" data-name="Capa 2"><g id="Capa_9" data-name="Capa 9"><path id="nube5" class="cls-1" d="M11.25,6.58S7,5.31,6.52,9.61c0,0-.15,1.24.62,1.65,0,0-6.81-.42-6.64,3.15s-.07,7.46,7.15,2.94c0,0,5.23,5.84,10.19-.62,0,0,4.52,6.25,11.32-.85,0,0,3.84,3.65,7.89-1.46s-2.19-8.95-8.42-5.21c0,0,1.35-7.44-7.85-3.8,0,0-1.41-7.52-6.83-3.95A4.71,4.71,0,0,0,11.25,6.58Z"/></g></g></svg>