<svg xmlns="http://www.w3.org/2000/svg" viewBox="0 0 55.03 24.79"><defs><style>.cls-1{fill:#fff;stroke:#000;stroke-miterlimit:10;}</style></defs><g id="Capa_2" data-name="Capa 2"><g id="Capa_9" data-name="Capa 9"><path id="nube3" class="cls-1" d="M18,8.53s-6.83-4.78-7.91,1.79a2.3,2.3,0,0,0-.49,1.73c-.64,1.52,1.51,2.48,2.47,1.84s-10.24-.47-11.32,2a5.65,5.65,0,0,0,.21,4c3.77,9.13,10.53,1.4,10.53,1.4s3.58,7.15,15.64-.7c0,0,5,5.11,12.19.32A7.51,7.51,0,0,0,41,17.72s4.47,5,11,.64S50.82,8.85,47.07,9.3a12.56,12.56,0,0,0-5.86,2.1S41.66,2.46,31.7,7C31.7,7,25.45-3.21,21.11,2S18,6.17,18,8.53Z"/></g></g></svg>