<svg xmlns="http://www.w3.org/2000/svg" viewBox="0 0 51.99 27.1"><defs><style>.cls-1{fill:#fff;stroke:#000;stroke-miterlimit:10;}</style></defs><g id="Capa_2" data-name="Capa 2"><g id="Capa_9" data-name="Capa 9"><path id="nube1" class="cls-1" d="M16.4,7.62S11,5.16,9.59,10.77c0,0-.42,1.62.52,2.3,0,0-8.94-1.79-9.37,3S-.7,25.92,9.68,21.24c0,0,5.87,8.68,13.62,1,0,0,4.85,9.11,15.15.94,0,0,4.42,5.53,10.72-.51S47.89,10.43,39,14.26c0,0,3.15-9.62-9.71-6.47,0,0-.51-10.21-8.34-6.46A6.3,6.3,0,0,0,16.4,7.62Z"/></g></g></svg>