<svg xmlns="http://www.w3.org/2000/svg" viewBox="0 0 54.44 28.25"><defs><style>.cls-1{fill:#fff;stroke:#000;stroke-miterlimit:10;}</style></defs><g id="Capa_2" data-name="Capa 2"><g id="Capa_9" data-name="Capa 9"><path id="nube2" class="cls-1" d="M17.89,9.68s-3.13-4.4-6.38,0,.7,6.51.7,6.51S-6.36,13.9,3.27,26.47c0,0,5.3,4.15,8.24-2.49,0,0,10.53,9.58,14.61-1.85,0,0,3.32,6.26,10.09,3.19s5.43-4.72,5.43-4.72,4.72,5.74,9.7.76,2.1-8.93-2.68-8.61a23.74,23.74,0,0,0-7.15,1.34s-.77-6.9-4.34-7.22A19.5,19.5,0,0,0,29.83,8s-.32-9.89-8.43-6.89S17.89,9.68,17.89,9.68Z"/></g></g></svg>