<svg xmlns="http://www.w3.org/2000/svg" viewBox="0 0 15.81 15.81"><defs><style>.cls-1{fill:#001755;}</style></defs><g id="Capa_2" data-name="Capa 2"><g id="Portada"><path class="cls-1" d="M15.68,4a4.14,4.14,0,0,0-1.27-2.7A4.39,4.39,0,0,0,11.51.09,56.08,56.08,0,0,0,3.69.18,4,4,0,0,0,.26,3.25a44.57,44.57,0,0,0-.08,8.87,4,4,0,0,0,3.18,3.45,47.29,47.29,0,0,0,8.75.06,4,4,0,0,0,3.47-3.16C15.94,11.09,15.81,5.21,15.68,4Zm-1.45,7.9a2.67,2.67,0,0,1-2.52,2.38,47.09,47.09,0,0,1-8.15-.11,2.6,2.6,0,0,1-2-2.23,53.08,53.08,0,0,1,0-8,2.67,2.67,0,0,1,2.5-2.38,56.22,56.22,0,0,1,7.79,0A2.67,2.67,0,0,1,14.26,4.1,57.62,57.62,0,0,1,14.23,11.87Zm-6.32-8A4.06,4.06,0,1,0,12,7.91,4.05,4.05,0,0,0,7.91,3.85Zm0,6.67a2.62,2.62,0,1,1,2.65-2.59A2.62,2.62,0,0,1,7.88,10.52ZM13.07,3.7a1,1,0,1,1-1-1A1,1,0,0,1,13.07,3.7Z"/><path class="cls-1" d="M15.68,4a4.14,4.14,0,0,0-1.27-2.7A4.39,4.39,0,0,0,11.51.09,56.08,56.08,0,0,0,3.69.18,4,4,0,0,0,.26,3.25a44.57,44.57,0,0,0-.08,8.87,4,4,0,0,0,3.18,3.45,47.29,47.29,0,0,0,8.75.06,4,4,0,0,0,3.47-3.16C15.94,11.09,15.81,5.21,15.68,4Zm-1.45,7.9a2.67,2.67,0,0,1-2.52,2.38,47.09,47.09,0,0,1-8.15-.11,2.6,2.6,0,0,1-2-2.23,53.08,53.08,0,0,1,0-8,2.67,2.67,0,0,1,2.5-2.38,56.22,56.22,0,0,1,7.79,0A2.67,2.67,0,0,1,14.26,4.1,57.62,57.62,0,0,1,14.23,11.87Zm-6.32-8A4.06,4.06,0,1,0,12,7.91,4.05,4.05,0,0,0,7.91,3.85Zm0,6.67a2.62,2.62,0,1,1,2.65-2.59A2.62,2.62,0,0,1,7.88,10.52ZM13.07,3.7a1,1,0,1,1-1-1A1,1,0,0,1,13.07,3.7Z"/></g></g></svg>