<svg xmlns="http://www.w3.org/2000/svg" viewBox="0 0 16.99 13.83"><defs><style>.cls-1{fill:#001755;fill-rule:evenodd;}</style></defs><g id="Capa_2" data-name="Capa 2"><g id="Portada"><path class="cls-1" d="M5.15,10.82A3.5,3.5,0,0,1,1.9,8.4a3.3,3.3,0,0,0,1.5-.05l.05,0a3.5,3.5,0,0,1-2.27-1.6A3.43,3.43,0,0,1,.67,4.87a3.58,3.58,0,0,0,1.56.43A3.52,3.52,0,0,1,.79,3.18,3.49,3.49,0,0,1,1.16.65,10,10,0,0,0,8.37,4.3c0-.14,0-.26-.06-.39a3.39,3.39,0,0,1,.51-2.28A3.39,3.39,0,0,1,11.19.05a3.43,3.43,0,0,1,3.06,1,.17.17,0,0,0,.18.05,6.68,6.68,0,0,0,2-.78l.05,0s0,0,0,0A3.58,3.58,0,0,1,15,2.18,6.9,6.9,0,0,0,17,1.65v0c-.13.17-.26.35-.4.52A6.62,6.62,0,0,1,15.32,3.4a.1.1,0,0,0-.05.11,8.94,8.94,0,0,1-.07,1.55,10.28,10.28,0,0,1-.9,3.11,10,10,0,0,1-1.89,2.75,9.28,9.28,0,0,1-4.79,2.67,10.61,10.61,0,0,1-1.95.24,10,10,0,0,1-5.59-1.5L0,12.27a7,7,0,0,0,3.49-.48A6.62,6.62,0,0,0,5.15,10.82Z"/></g></g></svg>