<svg xmlns="http://www.w3.org/2000/svg" viewBox="0 0 47.7 47.61"><defs><style>.cls-1,.cls-2{fill:#b7b7b7;}.cls-1{fill-rule:evenodd;}</style></defs><g id="Capa_2" data-name="Capa 2"><g id="Capa_10" data-name="Capa 10"><g id="instagram"><path class="cls-1" d="M30.3,22.38H28.83A6.41,6.41,0,0,1,29,23.84a5.17,5.17,0,0,1-10.33,0,6.59,6.59,0,0,1,.19-1.48H17.39a1.68,1.68,0,0,0-1.53,1.48v6.44a1.66,1.66,0,0,0,1.5,1.49H30.27a1.72,1.72,0,0,0,1.53-1.51V23.82A1.62,1.62,0,0,0,30.3,22.38Z"/><path class="cls-1" d="M23.85,26.41a2.46,2.46,0,0,0,2.58-2.57s-.2-2.58-2.58-2.58-2.58,2.58-2.58,2.58A2.46,2.46,0,0,0,23.85,26.41Z"/><rect class="cls-2" x="27.72" y="16.1" width="3.87" height="3.87" rx="1.29"/><path class="cls-1" d="M23.85,0A23.81,23.81,0,1,0,47.7,23.8,23.83,23.83,0,0,0,23.85,0ZM34.18,31.57a2.59,2.59,0,0,1-2.59,2.58H16.1a2.59,2.59,0,0,1-2.58-2.58V16.1a2.58,2.58,0,0,1,2.58-2.57H31.59a2.58,2.58,0,0,1,2.59,2.57Z"/></g></g></g></svg>