<svg xmlns="http://www.w3.org/2000/svg" viewBox="0 0 47.7 47.61"><defs><style>.cls-1{fill:#b7b7b7;fill-rule:evenodd;}</style></defs><g id="Capa_2" data-name="Capa 2"><g id="Capa_10" data-name="Capa 10"><path id="twitter" class="cls-1" d="M23.85,0A23.81,23.81,0,1,0,47.7,23.8,23.83,23.83,0,0,0,23.85,0ZM34.73,19.41A9,9,0,0,1,32.5,21.7c0,.19,0,.38,0,.58A12.58,12.58,0,0,1,19.81,34.9a12.72,12.72,0,0,1-6.85-2A7.59,7.59,0,0,0,14,33a9,9,0,0,0,5.55-1.9A4.46,4.46,0,0,1,15.41,28a4.6,4.6,0,0,0,.84.08,4.53,4.53,0,0,0,1.17-.16,4.45,4.45,0,0,1-3.58-4.35V23.5a4.33,4.33,0,0,0,2,.56,4.43,4.43,0,0,1-1.38-5.92,12.69,12.69,0,0,0,9.2,4.63,4.74,4.74,0,0,1-.11-1,4.46,4.46,0,0,1,7.72-3,8.94,8.94,0,0,0,2.84-1.08,4.46,4.46,0,0,1-2,2.45,8.83,8.83,0,0,0,2.56-.7Z"/></g></g></svg>