<svg xmlns="http://www.w3.org/2000/svg" xmlns:xlink="http://www.w3.org/1999/xlink" viewBox="0 0 195.05 32.97"><defs><style>.cls-1{fill:#001755;}.cls-2,.cls-3{stroke:#001755;stroke-miterlimit:10;}.cls-2{fill:url(#Degradado_sin_nombre_46);}.cls-3{fill:#fff;stroke-width:0.5px;}</style><linearGradient id="Degradado_sin_nombre_46" x1="164.05" y1="25.51" x2="188.36" y2="11.48" gradientUnits="userSpaceOnUse"><stop offset="0" stop-color="#c1408b"/><stop offset="0.13" stop-color="#bb478f"/><stop offset="0.33" stop-color="#ab5a9b"/><stop offset="0.56" stop-color="#927aaf"/><stop offset="0.82" stop-color="#6ea5c9"/><stop offset="0.88" stop-color="#65b0d0"/></linearGradient></defs><g id="Capa_2" data-name="Capa 2"><g id="Fantasma"><path class="cls-1" d="M0,27V5.66H10.83c2.25,0,3.89.56,4.92,1.7a5.62,5.62,0,0,1,1.55,3.89,4.92,4.92,0,0,1-.9,2.88,4.63,4.63,0,0,1-2.68,1.78c2.76.66,4.14,2.32,4.14,5a6.74,6.74,0,0,1-1.46,4.25Q14.93,27,10.16,27ZM6,13.83h3a2,2,0,0,0,1.61-.58A2,2,0,0,0,11.14,12c0-1.18-.73-1.78-2.19-1.78H6Zm0,8.4H9.22A2.3,2.3,0,0,0,11,21.65a1.88,1.88,0,0,0,.56-1.32A2,2,0,0,0,11,19a2.52,2.52,0,0,0-2-.62H6Z"/><path class="cls-1" d="M36.36,27H30.42a10.84,10.84,0,0,1-.22-2.22,5.7,5.7,0,0,1-5.11,2.55,5.62,5.62,0,0,1-4.21-1.44,4.58,4.58,0,0,1-1.4-3.29,4.73,4.73,0,0,1,2.29-4.07c1.53-1,4.23-1.66,8.12-1.87v-.36a1.62,1.62,0,0,0-.48-1.39A2.34,2.34,0,0,0,28,14.55c-1.44,0-2.24.57-2.41,1.73l-5.69-.53q1.21-5,8.3-5a15,15,0,0,1,3.53.39,5.93,5.93,0,0,1,2.55,1.19,4.16,4.16,0,0,1,1.25,1.72,12,12,0,0,1,.33,3.49v6.34A8.8,8.8,0,0,0,36.36,27Zm-6.47-7.43c-2.66.28-4,1.13-4,2.54,0,1,.52,1.44,1.57,1.44a2.59,2.59,0,0,0,1.71-.59c.47-.4.7-1.27.7-2.63Z"/><path class="cls-1" d="M42.66,27H39.14V5.66h6.14V13a4.37,4.37,0,0,1,4.08-2.22,5.38,5.38,0,0,1,3.34,1,6,6,0,0,1,2,2.94,12,12,0,0,1,.67,4A10.23,10.23,0,0,1,53.7,25a5.92,5.92,0,0,1-5.12,2.35,5.85,5.85,0,0,1-5.11-2.51A9.26,9.26,0,0,0,42.66,27Zm2.62-5.92c0,1.56.61,2.35,1.81,2.35a1.67,1.67,0,0,0,1.51-.86,7.61,7.61,0,0,0,.52-3.5c0-1.93-.19-3.14-.59-3.64a1.81,1.81,0,0,0-1.47-.74,1.72,1.72,0,0,0-1.23.53,2.05,2.05,0,0,0-.55,1.55Z"/><path class="cls-1" d="M72.36,11.09,66.12,28.31a6.89,6.89,0,0,1-2.06,3.06,6.46,6.46,0,0,1-4.14,1.1c-.45,0-1.49,0-3.12-.14V27.91a15.42,15.42,0,0,0,2.25.18c1.79,0,2.68-.39,2.68-1.18a3.15,3.15,0,0,0-.26-1.08l-5.7-14.74h6.66l2.63,8.48,2.75-8.48Z"/><path class="cls-1" d="M100.84,5.66,95.19,27h-5.5l-3-11.76L83.89,27H78.15L72.48,5.66h6.16l3,12.27L84.54,5.66h5.14L92.84,18l3-12.3Z"/><path class="cls-1" d="M109.55,27.31a8.22,8.22,0,0,1-6.28-2.46,8.09,8.09,0,0,1-2.33-5.77,8,8,0,0,1,2.43-5.94,9.6,9.6,0,0,1,12.62,0A7.89,7.89,0,0,1,118.38,19,8,8,0,0,1,116,24.93,8.73,8.73,0,0,1,109.55,27.31Zm.09-3.78A1.67,1.67,0,0,0,111.41,22a14.63,14.63,0,0,0,.32-3.15,8.27,8.27,0,0,0-.45-3.21,1.63,1.63,0,0,0-1.62-1,1.65,1.65,0,0,0-1.58,1,8,8,0,0,0-.5,3.34,8.37,8.37,0,0,0,.51,3.62A1.68,1.68,0,0,0,109.64,23.53Z"/><path class="cls-1" d="M126.77,27h-6V11.09H126v3.28q.9-3.57,4.14-3.57c.22,0,.53,0,.91.06v5.55a4.86,4.86,0,0,0-1.17-.16q-3.09,0-3.09,3.45Z"/><path class="cls-1" d="M139.14,5.66V27H133V5.66Z"/><path class="cls-1" d="M157.94,27h-5.85V24.87a4.46,4.46,0,0,1-4.28,2.44,5.42,5.42,0,0,1-4.46-2.15q-1.71-2.14-1.71-6.24a9.76,9.76,0,0,1,1.72-6.08,5.44,5.44,0,0,1,4.55-2.25,4.89,4.89,0,0,1,3.89,1.8V5.66h6.14ZM151.8,16.76c0-1.42-.59-2.14-1.77-2.14A1.61,1.61,0,0,0,148.41,16a12.72,12.72,0,0,0-.38,3.33c0,2.57.66,3.86,2,3.86a1.6,1.6,0,0,0,1.27-.61,2.77,2.77,0,0,0,.53-1.86Z"/><path class="cls-2" d="M194.46,24.88l0-.05-.06,0-.06,0a.5.5,0,0,0-.28,0,.57.57,0,0,0-.2,0h0l0,0h0l-.21.11a.81.81,0,0,1-.21,0l-.22,0h-.25a2.07,2.07,0,0,1-.42,0,3,3,0,0,1-.5-.09,4.34,4.34,0,0,1-1.18-.46,3.33,3.33,0,0,1-1.3-1.85,4.16,4.16,0,0,1-.23-1.37c0-4.07,0-6.11,0-8.07A13,13,0,0,0,184.61,3a12,12,0,0,0-15.22.38,12,12,0,0,0-4.06,9c0,1.15-.09,5.29-.05,8.9a10.54,10.54,0,0,0,.24,2.22,11,11,0,0,0,1.65,3.73c3.35,5,11.12,5.16,12.62,5.16a18.91,18.91,0,0,0,6-.64A19.14,19.14,0,0,0,194.26,26l.08-.11a.61.61,0,0,0,.07-.1.36.36,0,0,0,.06-.11.88.88,0,0,0,.06-.18A.86.86,0,0,0,194.46,24.88Z"/><ellipse class="cls-3" cx="178.87" cy="12.59" rx="2.64" ry="4.06"/><ellipse class="cls-3" cx="170.29" cy="12.59" rx="2.64" ry="4.06"/></g></g></svg>