<svg xmlns="http://www.w3.org/2000/svg" viewBox="0 0 157.94 26.81"><defs><style>.cls-1{fill:#001755;}</style></defs><g id="Capa_2" data-name="Capa 2"><g id="Portada"><path class="cls-1" d="M0,21.33V0H10.83q3.38,0,4.92,1.7A5.65,5.65,0,0,1,17.3,5.59a4.93,4.93,0,0,1-.9,2.89,4.57,4.57,0,0,1-2.68,1.77c2.76.67,4.14,2.32,4.14,5a6.71,6.71,0,0,1-1.46,4.24q-1.47,1.88-6.24,1.87ZM6,8.17h3a2,2,0,0,0,1.61-.58,1.91,1.91,0,0,0,.47-1.23c0-1.19-.73-1.78-2.19-1.78H6Zm0,8.41H9.22A2.3,2.3,0,0,0,11,16a1.88,1.88,0,0,0,.56-1.32A2,2,0,0,0,11,13.32a2.56,2.56,0,0,0-2-.62H6Z"/><path class="cls-1" d="M36.36,21.33H30.42a11,11,0,0,1-.22-2.22,5.7,5.7,0,0,1-5.11,2.55,5.62,5.62,0,0,1-4.21-1.44,4.62,4.62,0,0,1-1.4-3.3,4.75,4.75,0,0,1,2.29-4.07c1.53-1,4.23-1.66,8.12-1.87v-.36a1.64,1.64,0,0,0-.48-1.39A2.41,2.41,0,0,0,28,8.89c-1.44,0-2.24.58-2.41,1.73l-5.69-.53q1.21-5,8.3-5a15.53,15.53,0,0,1,3.53.38,6.06,6.06,0,0,1,2.55,1.2,4.1,4.1,0,0,1,1.25,1.72,11.92,11.92,0,0,1,.33,3.48v6.34A8.9,8.9,0,0,0,36.36,21.33Zm-6.47-7.44c-2.66.28-4,1.13-4,2.55,0,1,.52,1.44,1.57,1.44a2.55,2.55,0,0,0,1.71-.6c.47-.39.7-1.27.7-2.62Z"/><path class="cls-1" d="M42.66,21.33H39.14V0h6.14V7.33a4.37,4.37,0,0,1,4.08-2.22,5.38,5.38,0,0,1,3.34,1,6.08,6.08,0,0,1,2,3,11.94,11.94,0,0,1,.67,4A10.2,10.2,0,0,1,53.7,19.3a5.92,5.92,0,0,1-5.12,2.36,5.83,5.83,0,0,1-5.11-2.52A9.52,9.52,0,0,0,42.66,21.33Zm2.62-5.92c0,1.56.61,2.34,1.81,2.34a1.66,1.66,0,0,0,1.51-.85,7.69,7.69,0,0,0,.52-3.51c0-1.93-.19-3.14-.59-3.63A1.78,1.78,0,0,0,47.06,9a1.68,1.68,0,0,0-1.23.53,2,2,0,0,0-.55,1.54Z"/><path class="cls-1" d="M72.36,5.44,66.12,22.66a6.8,6.8,0,0,1-2.06,3.05,6.4,6.4,0,0,1-4.14,1.1c-.45,0-1.49,0-3.12-.14V22.25a14.22,14.22,0,0,0,2.25.19c1.79,0,2.68-.4,2.68-1.19a3.15,3.15,0,0,0-.26-1.08L55.77,5.44h6.66l2.63,8.48,2.75-8.48Z"/><path class="cls-1" d="M100.84,0,95.19,21.33h-5.5l-3-11.77L83.89,21.33H78.15L72.48,0h6.16l3,12.28L84.54,0h5.14l3.16,12.3,3-12.3Z"/><path class="cls-1" d="M109.55,21.66a8.22,8.22,0,0,1-6.28-2.46,8.13,8.13,0,0,1-2.33-5.78,8,8,0,0,1,2.43-5.94,9.63,9.63,0,0,1,12.62,0,7.92,7.92,0,0,1,2.39,5.88A8,8,0,0,1,116,19.27,8.73,8.73,0,0,1,109.55,21.66Zm.09-3.78a1.67,1.67,0,0,0,1.77-1.51,14.76,14.76,0,0,0,.32-3.15,8.36,8.36,0,0,0-.45-3.22,1.62,1.62,0,0,0-1.62-1,1.64,1.64,0,0,0-1.58,1,8,8,0,0,0-.5,3.35,8.31,8.31,0,0,0,.51,3.61A1.69,1.69,0,0,0,109.64,17.88Z"/><path class="cls-1" d="M126.77,21.33h-6V5.44H126V8.72q.9-3.59,4.14-3.58c.22,0,.53,0,.91.06v5.55a5.42,5.42,0,0,0-1.17-.16c-2.06,0-3.09,1.16-3.09,3.46Z"/><path class="cls-1" d="M139.14,0V21.33H133V0Z"/><path class="cls-1" d="M157.94,21.33h-5.85V19.22a4.48,4.48,0,0,1-4.28,2.44,5.44,5.44,0,0,1-4.46-2.15q-1.71-2.15-1.71-6.24a9.74,9.74,0,0,1,1.72-6.08,5.44,5.44,0,0,1,4.55-2.25,4.91,4.91,0,0,1,3.89,1.79V0h6.14ZM151.8,11.11C151.8,9.68,151.21,9,150,9a1.61,1.61,0,0,0-1.62,1.36,12.61,12.61,0,0,0-.38,3.33c0,2.57.66,3.86,2,3.86a1.63,1.63,0,0,0,1.27-.61,2.81,2.81,0,0,0,.53-1.86Z"/></g></g></svg>