<svg xmlns="http://www.w3.org/2000/svg" viewBox="0 0 74.79 74.79"><defs><style>.cls-1,.cls-2{fill:none;stroke:#9ecde2;stroke-miterlimit:10;}.cls-1{stroke-width:4px;}.cls-3{fill:#9ecde2;}</style></defs><g id="Capa_2" data-name="Capa 2"><g id="Capa_10" data-name="Capa 10"><rect class="cls-1" x="2" y="2" width="70.79" height="70.79" rx="15.18"/><rect class="cls-2" x="24.35" y="21.49" width="24.41" height="32.96"/><path class="cls-3" d="M52.38,12.79,35.68,36.41a14,14,0,0,1,2.55,1.66,23.16,23.16,0,0,0,1.82,1.44h0l16.7-23.63Z"/><polygon class="cls-3" points="35.19 37.1 33.44 44.22 39.57 40.19 35.19 37.1"/><rect class="cls-3" x="53.38" y="11.3" width="5.36" height="1.83" rx="0.64" transform="translate(17.33 -30.12) rotate(35.25)"/><rect class="cls-3" x="53.07" y="12.27" width="5.36" height="0.77" transform="translate(17.53 -29.86) rotate(35.25)"/><line class="cls-2" x1="27.49" y1="26.61" x2="45.41" y2="26.61"/><line class="cls-2" x1="27.49" y1="31.39" x2="45.41" y2="31.39"/><line class="cls-2" x1="27.55" y1="36.17" x2="45.46" y2="36.17"/><line class="cls-2" x1="27.6" y1="40.96" x2="45.52" y2="40.96"/><line class="cls-2" x1="27.49" y1="45.74" x2="45.41" y2="45.74"/></g></g></svg>