<svg xmlns="http://www.w3.org/2000/svg" viewBox="0 0 74.79 74.79"><defs><style>.cls-1{fill:#9ecde2;fill-rule:evenodd;}.cls-2{fill:none;stroke:#9ecde2;stroke-miterlimit:10;stroke-width:4px;}</style></defs><g id="Capa_2" data-name="Capa 2"><g id="Capa_10" data-name="Capa 10"><path class="cls-1" d="M52.12,36.93c-1,0-1.54.46-1.57,1.11,0,.05,0,.11,0,.16V56.36H42V49.12a1.27,1.27,0,0,0-1.13-1.26H34.38A1.4,1.4,0,0,0,33,49.12v7.24H24.5V39.71a1.3,1.3,0,0,0-1.32-1.22,1.21,1.21,0,0,0-1.33,1.08.33.33,0,0,0,0,.14v18A1.29,1.29,0,0,0,23.18,59H34.62a1.22,1.22,0,0,0,1-1.26V50.52h3.72v7.23A1.31,1.31,0,0,0,40.65,59H51.79s1.19-.73,1.39-1.41V38.21a2.75,2.75,0,0,0-1.06-1.27Zm6.42,1h0c-8.12-8.73-13.15-14-20.4-21.64a1,1,0,0,0-.75-.48,1.23,1.23,0,0,0-1,.48L16.15,37.74a1.6,1.6,0,0,0-.36,1,1,1,0,0,0,.36.8,1,1,0,0,0,1.73,0L37.39,19,56.82,39.83a1.18,1.18,0,0,0,.86.32,1.27,1.27,0,0,0,.86-2.25Z"/><rect class="cls-2" x="2" y="2" width="70.79" height="70.79" rx="15.18"/></g></g></svg>