<svg xmlns="http://www.w3.org/2000/svg" viewBox="0 0 74.79 74.79"><defs><style>.cls-1{fill:none;stroke:#9ecde2;stroke-miterlimit:10;stroke-width:4px;}.cls-2{fill:#9ecde2;}</style></defs><g id="Capa_2" data-name="Capa 2"><g id="Capa_10" data-name="Capa 10"><rect class="cls-1" x="2" y="2" width="70.79" height="70.79" rx="15.18"/><path id="logo" class="cls-2" d="M55.26,46.5l0,0-.07-.05-.08,0a.52.52,0,0,0-.33,0,.6.6,0,0,0-.23,0h0l0,0h0l-.25.14a1,1,0,0,1-.24.06l-.27,0-.3,0a2.93,2.93,0,0,1-.5,0,4.07,4.07,0,0,1-.6-.11A4.92,4.92,0,0,1,50.81,46a4.13,4.13,0,0,1-1.57-2.28A5.51,5.51,0,0,1,49,42c0-5,0-7.52,0-9.94.07-4.09-1.63-9.35-5.53-12.47a14.51,14.51,0,0,0-8.84-3.13,14.77,14.77,0,0,0-9.41,3.59,15.09,15.09,0,0,0-4.86,11.13c0,1.42-.11,6.52-.06,11a12.78,12.78,0,0,0,.29,2.74,13.63,13.63,0,0,0,2,4.6c4,6.21,13.33,6.36,15.12,6.36a22,22,0,0,0,7.17-.8A22.87,22.87,0,0,0,55,47.85l.1-.13.08-.12a.91.91,0,0,0,.07-.14,1.22,1.22,0,0,0,0-1ZM27.55,37.29c-1.75,0-3.17-2.23-3.17-5s1.42-5,3.17-5,3.17,2.24,3.17,5S29.3,37.29,27.55,37.29Zm10.29,0c-1.75,0-3.17-2.23-3.17-5s1.42-5,3.17-5,3.17,2.24,3.17,5S39.59,37.29,37.84,37.29Z"/></g></g></svg>