<svg xmlns="http://www.w3.org/2000/svg" viewBox="0 0 74.79 74.79"><defs><style>.cls-1{fill:#9ecde2;}.cls-2{fill:none;stroke:#9ecde2;stroke-miterlimit:10;stroke-width:4px;}</style></defs><g id="Capa_2" data-name="Capa 2"><g id="Capa_10" data-name="Capa 10"><g id="person"><path class="cls-1" d="M41.23,43.59c-1-.15-1-2.8-1-2.8A13.55,13.55,0,0,0,43.7,34.2c1.66,0,2.69-4,1-5.42.06-1.49,2.13-11.67-8.33-11.67S28,27.29,28.07,28.78c-1.67,1.41-.64,5.42,1,5.42a13.53,13.53,0,0,0,3.46,6.59s0,2.65-1,2.8c-3.11.5-14.71,5.62-14.71,11.23H56c0-5.61-11.61-10.73-14.72-11.23Z"/></g><rect class="cls-2" x="2" y="2" width="70.79" height="70.79" rx="15.18"/><polygon class="cls-1" points="61.73 28.24 55.52 20.52 54.98 21.19 54.98 24.71 47.73 24.71 47.73 31.23 54.98 31.23 54.98 35.3 55.52 35.97 61.73 28.24 61.73 28.24 61.73 28.24"/></g></g></svg>