<svg xmlns="http://www.w3.org/2000/svg" viewBox="0 0 74.79 74.79"><defs><style>.cls-1{fill:#9ecde2;}.cls-2{fill:none;stroke:#9ecde2;stroke-miterlimit:10;stroke-width:4px;}</style></defs><g id="Capa_2" data-name="Capa 2"><g id="Capa_10" data-name="Capa 10"><g id="phone"><path class="cls-1" d="M55,47.57a1.7,1.7,0,0,1-.52,1.49L49.5,54a3,3,0,0,1-.88.64,3.7,3.7,0,0,1-1.06.33l-.22,0-.49,0a16.22,16.22,0,0,1-6.16-1.44,32.67,32.67,0,0,1-5.2-2.84,38.63,38.63,0,0,1-6.18-5.22A39.8,39.8,0,0,1,25,40.56a33.22,33.22,0,0,1-2.76-4.34,23.27,23.27,0,0,1-1.57-3.61,19.28,19.28,0,0,1-.7-2.8A8.42,8.42,0,0,1,19.81,28c0-.45,0-.69,0-.74a3.47,3.47,0,0,1,.33-1.07,2.64,2.64,0,0,1,.63-.87l5-5A1.66,1.66,0,0,1,27,19.81a1.45,1.45,0,0,1,.86.28,2.6,2.6,0,0,1,.63.69l4,7.56a1.85,1.85,0,0,1,.18,1.31A2.33,2.33,0,0,1,32,30.84l-1.83,1.82a.64.64,0,0,0-.13.25,1.11,1.11,0,0,0-.05.28A6.64,6.64,0,0,0,30.65,35,16.06,16.06,0,0,0,32,37.15a23.46,23.46,0,0,0,2.64,3,24.85,24.85,0,0,0,3,2.67,18.24,18.24,0,0,0,2.18,1.4,6.8,6.8,0,0,0,1.34.54l.47.09a.81.81,0,0,0,.24-.06.54.54,0,0,0,.24-.13l2.13-2.16a2.23,2.23,0,0,1,1.56-.59,2,2,0,0,1,1,.22h0L54,46.34A1.87,1.87,0,0,1,55,47.57Z"/></g><rect class="cls-2" x="2" y="2" width="70.79" height="70.79" rx="15.18"/></g></g></svg>