<svg xmlns="http://www.w3.org/2000/svg" viewBox="0 0 212.51 212.83"><defs><style>.cls-1{fill:#0da198;stroke:#001755;stroke-miterlimit:10;}.cls-2{fill:#d5cd69;}.cls-3{opacity:0.09;}.cls-4,.cls-5{opacity:0.1;}.cls-5{fill:#fff;}</style></defs><g id="Capa_2" data-name="Capa 2"><g id="Capa_9" data-name="Capa 9"><path class="cls-1" d="M211.9,106.63a105.7,105.7,0,0,1-211.4,0C.5,71,19.79,45.18,25.06,38.88,27.54,35.93,58.62,0,106.2.93,156.68,2,211.9,44.25,211.9,106.63Z"/><path class="cls-2" d="M24,53.47a53.38,53.38,0,0,0-3.74,10.89,54.76,54.76,0,0,0-.34,22.47l3,3.3L24.81,89s-3.06-4.27-3.38-5.81.89-.7.89-.7A60.19,60.19,0,0,0,36.17,99.89a42.57,42.57,0,0,0,9.13,3.45s7.34,2,9.19,4.15S64,114.64,64,114.64s2.68,2.62.9,7.66-6.39,4.72,1.27,20.81,10.75,1.13,13.66,34.34,18.83,29.68,18.83,29.68,2.68-5.56-4.85-5.11c0,0,1.28-3-3.19-14a12.78,12.78,0,0,0,9.7-5c3.7-5-1.47-4-1.47-4l16.66-20.42s5,1.78,5.49-13.28l1.21-9.06s7.66-1.22-1.53-7.22S116,111.83,87.3,111.57c0,0-3.38-2.29-11.49-2,0,0,.83-4.31.06-4.58s-4.4.24-10.72,5.86c0,0-.06,1.72-1.66.76a29.69,29.69,0,0,1-4.4-4.08s2-6.77,1.85-6.77-.38-1.91-7-.06c0,0-3.06.25-1.47-1.85s3.9-2.62,3.7-3.45,1.15-6.89-7-2.55-12.83-2.55-6.9-6.45c0,0,1.34-3.38,7.73-5.49s10.53.13,11.93,5,5-2.49,5-2.42S70.39,65,93,57.13c0,0-.47,3.32,2.22,1.53s7-4.77,1.8-4.17c0,0,3.19-6.68-7.4-1.58,0,0-.64-1.65,1.91-2.68a20.65,20.65,0,0,1,12.71-1.78c6.7,1,5.29-5.75,2.87-5.24s-1.16-5.61-1.16-5.61-.5-4.6-5,0c0,0-2.43,1.53-2.43-2.05s-4.59-5-10,.9A17.08,17.08,0,0,1,81.17,47.3c-6.25,3.83-11.61-13.48-4.08-14.85S95.2,25.6,95.2,25.6s2.31-6-3.94-3.07-5.87,2.3-5.11-.25,3.45-3.83,4.21-3.19S89.34,14,86.79,17,68,30.7,58.7,26.36c0,0-3.83-1.15-10.85-3.7l-2.21-1.45c-2.57,1.78-5.24,3.79-8,6.07A113.13,113.13,0,0,0,24.9,39.82,14.94,14.94,0,0,1,24,53.47Z"/><path class="cls-2" d="M94.22,20.13s5.21,3.23,6.74,3.06,3.06-.68,1.19,2-5.79-.17-6.47,1.87,1.88,2.9,3.92,3.07,1-1.36,3.64-2.21,9.12-3.92,6.4-5.79-5.62-3.07-8.34-2-2.38-2.05-3.74-2.39S92.93,17.55,94.22,20.13Z"/><path class="cls-2" d="M115.6,12.13s6.3-.34,6,2.21,0,12.25,0,12.25.67,11.07,11.73,2.9,14-10,14-10,6.13-.52,4.08-4.26-10.72-6.3-19.74-6.47A37,37,0,0,0,115.6,12.13Z"/><path class="cls-2" d="M113.56,12.13a47.74,47.74,0,0,1-10.32,2c-5.17.34-8.58-2.89-4.15-3.41s8.85-.18,8.68-2-1.53-3.74,5.79-3.4,9.7.17,6.63,2S115.26,11.62,113.56,12.13Z"/><path class="cls-2" d="M202.41,72.55s19.4,35.58-10,89.36c0,0-1.87,3.58-2.38-7.32S188.11,124,188.11,124s-7-6.08-3.24-6.45,1.88-3.09-1.1-2.41-18.3,2.39-19.15,1.37-25-4.77-14.3-29.28,30-21.45,30-21.45,4.25,8.51,9.87,9,7.15,3.58,8.34,1.2S201.31,70.16,202.41,72.55Z"/><path class="cls-2" d="M193.56,63.87l-7.15-5.62s-5.8-.24-7.49,3.58-16.17,7.58-15.83,3.79-6.48-8.73,0-8.73S176,55.53,173.3,53.32,169.56,50.08,168,46s2-8.85,5.28-7,6.47-1.7,6.47-1.7,11.33,5,18.38,23.66c0,0-1,3.91-6.3-4.6s-.17,2.72-.17,2.72a38.42,38.42,0,0,1,3.92,4.26C197,65.23,196.56,66.23,193.56,63.87Z"/><path class="cls-3" d="M106.81.93a92.5,92.5,0,0,0-21,2c34.91,16.16,63.59,50.69,63.59,95.64a105.74,105.74,0,0,1-87,104.05,105.74,105.74,0,0,0,150.07-96C212.51,44.25,157.29,2,106.81.93Z"/><path class="cls-4" d="M112.19,1.08c41.29,12.39,78.54,50.08,78.54,101.32A105.7,105.7,0,0,1,85,208.1c-3.14,0-6.24-.15-9.31-.42A105.73,105.73,0,0,0,211.9,106.46C211.9,46.54,161,5.15,112.19,1.08Z"/><path class="cls-5" d="M12.36,111.88c0-35.64,19.29-61.44,24.56-67.74,2.47-3,33.55-38.92,81.14-38a106,106,0,0,1,40.85,9.49C142.52,5.92,124.06.38,106.2,0,58.62-.94,27.54,35,25.06,38,19.79,44.27.5,70.08.5,105.72a105.72,105.72,0,0,0,63,96.72A105.64,105.64,0,0,1,12.36,111.88Z"/></g></g></svg>